<ttFont>
    <TTGlyph name=".notdef" xMin="42" yMin="0" xMax="1052" yMax="1446">
      <contour>
        <pt x="239" y="1147" on="1"/>
        <pt x="296" y="1193" on="0"/>
        <pt x="441" y="1256" on="0"/>
        <pt x="540" y="1256" on="1"/>
        <pt x="610" y="1256" on="0"/>
        <pt x="722" y="1218" on="0"/>
        <pt x="800" y="1149" on="0"/>
        <pt x="841" y="1052" on="0"/>
        <pt x="841" y="993" on="1"/>
        <pt x="841" y="938" on="0"/>
        <pt x="813" y="859" on="0"/>
        <pt x="771" y="800" on="0"/>
        <pt x="721" y="758" on="0"/>
        <pt x="675" y="721" on="0"/>
        <pt x="640" y="685" on="0"/>
        <pt x="635" y="663" on="1"/>
        <pt x="613" y="567" on="1"/>
        <pt x="444" y="567" on="1"/>
        <pt x="427" y="681" on="1"/>
        <pt x="426" y="686" on="0"/>
        <pt x="425" y="697" on="0"/>
        <pt x="425" y="702" on="1"/>
        <pt x="425" y="734" on="0"/>
        <pt x="453" y="781" on="0"/>
        <pt x="494" y="820" on="0"/>
        <pt x="543" y="855" on="0"/>
        <pt x="584" y="896" on="0"/>
        <pt x="612" y="945" on="0"/>
        <pt x="612" y="978" on="1"/>
        <pt x="612" y="1013" on="0"/>
        <pt x="564" y="1057" on="0"/>
        <pt x="518" y="1057" on="1"/>
        <pt x="482" y="1057" on="0"/>
        <pt x="433" y="1043" on="0"/>
        <pt x="397" y="1027" on="0"/>
        <pt x="370" y="1013" on="0"/>
        <pt x="355" y="1013" on="1"/>
        <pt x="321" y="1013" on="0"/>
        <pt x="305" y="1042" on="1"/>
      </contour>
      <contour>
        <pt x="385" y="313" on="1"/>
        <pt x="385" y="341" on="0"/>
        <pt x="406" y="391" on="0"/>
        <pt x="442" y="428" on="0"/>
        <pt x="492" y="449" on="0"/>
        <pt x="521" y="449" on="1"/>
        <pt x="549" y="449" on="0"/>
        <pt x="598" y="428" on="0"/>
        <pt x="635" y="391" on="0"/>
        <pt x="656" y="341" on="0"/>
        <pt x="656" y="313" on="1"/>
        <pt x="656" y="284" on="0"/>
        <pt x="635" y="235" on="0"/>
        <pt x="598" y="199" on="0"/>
        <pt x="549" y="178" on="0"/>
        <pt x="521" y="178" on="1"/>
        <pt x="492" y="178" on="0"/>
        <pt x="442" y="199" on="0"/>
        <pt x="406" y="235" on="0"/>
        <pt x="385" y="284" on="0"/>
      </contour>
      <contour>
        <pt x="42" y="1446" on="1"/>
        <pt x="1052" y="1446" on="1"/>
        <pt x="1052" y="0" on="1"/>
        <pt x="42" y="0" on="1"/>
      </contour>
      <contour>
        <pt x="107" y="69" on="1"/>
        <pt x="980" y="69" on="1"/>
        <pt x="980" y="1378" on="1"/>
        <pt x="107" y="1378" on="1"/>
      </contour>
    </TTGlyph>
    <TTGlyph name="A" xMin="-72" yMin="0" xMax="1237" yMax="1446">
      <contour>
        <pt x="1237" y="0" on="1"/>
        <pt x="1036" y="0" on="1"/>
        <pt x="1002" y="0" on="0"/>
        <pt x="962" y="32" on="0"/>
        <pt x="957" y="59" on="1"/>
        <pt x="897" y="361" on="1"/>
        <pt x="358" y="361" on="1"/>
        <pt x="224" y="59" on="1"/>
        <pt x="213" y="36" on="0"/>
        <pt x="163" y="0" on="0"/>
        <pt x="132" y="0" on="1"/>
        <pt x="-72" y="0" on="1"/>
        <pt x="627" y="1446" on="1"/>
        <pt x="892" y="1446" on="1"/>
      </contour>
      <contour>
        <pt x="439" y="544" on="1"/>
        <pt x="860" y="544" on="1"/>
        <pt x="762" y="1039" on="1"/>
        <pt x="754" y="1075" on="0"/>
        <pt x="738" y="1155" on="0"/>
        <pt x="731" y="1205" on="1"/>
        <pt x="712" y="1155" on="0"/>
        <pt x="675" y="1070" on="0"/>
        <pt x="659" y="1038" on="1"/>
      </contour>
    </TTGlyph>
    <TTGlyph name="AE" xMin="-95" yMin="0" xMax="1750" yMax="1446">
      <contour>
        <pt x="743" y="1446" on="1"/>
        <pt x="1750" y="1446" on="1"/>
        <pt x="1725" y="1239" on="1"/>
        <pt x="1082" y="1239" on="1"/>
        <pt x="1082" y="827" on="1"/>
        <pt x="1549" y="827" on="1"/>
        <pt x="1524" y="628" on="1"/>
        <pt x="1082" y="628" on="1"/>
        <pt x="1082" y="207" on="1"/>
        <pt x="1598" y="207" on="1"/>
        <pt x="1572" y="0" on="1"/>
        <pt x="837" y="0" on="1"/>
        <pt x="837" y="361" on="1"/>
        <pt x="370" y="361" on="1"/>
        <pt x="205" y="59" on="1"/>
        <pt x="192" y="36" on="0"/>
        <pt x="139" y="0" on="0"/>
        <pt x="107" y="0" on="1"/>
        <pt x="-95" y="0" on="1"/>
      </contour>
      <contour>
        <pt x="470" y="544" on="1"/>
        <pt x="837" y="544" on="1"/>
        <pt x="837" y="1234" on="1"/>
        <pt x="819" y="1189" on="0"/>
        <pt x="783" y="1112" on="0"/>
        <pt x="763" y="1078" on="1"/>
      </contour>
    </TTGlyph>
    <TTGlyph name="Aacute" xMin="-72" yMin="0" xMax="1237" yMax="1789">
      <component glyphName="A" x="0" y="0" flags="0x204"/>
      <component glyphName="acute.case" x="370" y="0" flags="0x4"/>
    </TTGlyph>
    <TTGlyph name="Acircumflex" xMin="-72" yMin="0" xMax="1237" yMax="1767">
      <component glyphName="A" x="0" y="0" flags="0x204"/>
      <component glyphName="circumflex.case" x="347" y="0" flags="0x4"/>
    </TTGlyph>
    <TTGlyph name="Adieresis" xMin="-72" yMin="0" xMax="1237" yMax="1788">
      <component glyphName="A" x="0" y="0" flags="0x204"/>
      <component glyphName="dieresis.case" x="347" y="0" flags="0x4"/>
    </TTGlyph>
    <TTGlyph name="Agrave" xMin="-72" yMin="0" xMax="1237" yMax="1789">
      <component glyphName="A" x="0" y="0" flags="0x204"/>
      <component glyphName="grave.case" x="347" y="0" flags="0x4"/>
    </TTGlyph>
    <TTGlyph name="Aogonek" xMin="-72" yMin="-345" xMax="1259" yMax="1446">
      <contour>
        <pt x="1214" y="-190" on="1"/>
        <pt x="1232" y="-190" on="0"/>
        <pt x="1235" y="-206" on="1"/>
        <pt x="1259" y="-294" on="1"/>
        <pt x="1227" y="-316" on="0"/>
        <pt x="1131" y="-345" on="0"/>
        <pt x="1080" y="-345" on="1"/>
        <pt x="995" y="-345" on="0"/>
        <pt x="907" y="-271" on="0"/>
        <pt x="907" y="-214" on="1"/>
        <pt x="907" y="-154" on="0"/>
        <pt x="987" y="-45" on="0"/>
        <pt x="1062" y="0" on="1"/>
        <pt x="1036" y="0" on="1"/>
        <pt x="1002" y="0" on="0"/>
        <pt x="962" y="32" on="0"/>
        <pt x="957" y="59" on="1"/>
        <pt x="897" y="361" on="1"/>
        <pt x="358" y="361" on="1"/>
        <pt x="224" y="59" on="1"/>
        <pt x="213" y="36" on="0"/>
        <pt x="163" y="0" on="0"/>
        <pt x="132" y="0" on="1"/>
        <pt x="-72" y="0" on="1"/>
        <pt x="627" y="1446" on="1"/>
        <pt x="892" y="1446" on="1"/>
        <pt x="1237" y="0" on="1"/>
        <pt x="1204" y="0" on="1"/>
        <pt x="1183" y="-11" on="0"/>
        <pt x="1142" y="-42" on="0"/>
        <pt x="1111" y="-80" on="0"/>
        <pt x="1091" y="-124" on="0"/>
        <pt x="1091" y="-148" on="1"/>
        <pt x="1091" y="-174" on="0"/>
        <pt x="1120" y="-206" on="0"/>
        <pt x="1146" y="-206" on="1"/>
        <pt x="1163" y="-206" on="0"/>
        <pt x="1185" y="-201" on="0"/>
        <pt x="1200" y="-195" on="0"/>
        <pt x="1209" y="-190" on="0"/>
      </contour>
      <contour>
        <pt x="439" y="544" on="1"/>
        <pt x="860" y="544" on="1"/>
        <pt x="762" y="1039" on="1"/>
        <pt x="756" y="1071" on="0"/>
        <pt x="738" y="1155" on="0"/>
        <pt x="731" y="1205" on="1"/>
        <pt x="712" y="1155" on="0"/>
        <pt x="675" y="1070" on="0"/>
        <pt x="659" y="1038" on="1"/>
      </contour>
    </TTGlyph>
    <TTGlyph name="Aring" xMin="-72" yMin="0" xMax="1237" yMax="1874">
      <component glyphName="A" x="0" y="0" flags="0x204"/>
      <component glyphName="ring.case" x="350" y="0" flags="0x4"/>
    </TTGlyph>
    <TTGlyph name="Atilde" xMin="-72" yMin="0" xMax="1237" yMax="1766">
      <component glyphName="A" x="0" y="0" flags="0x204"/>
      <component glyphName="tilde.case" x="347" y="0" flags="0x4"/>
    </TTGlyph>
    <TTGlyph name="B" xMin="70" yMin="0" xMax="1164" yMax="1446">
      <contour>
        <pt x="70" y="0" on="1"/>
        <pt x="248" y="1446" on="1"/>
        <pt x="712" y="1446" on="1"/>
        <pt x="832" y="1446" on="0"/>
        <pt x="1003" y="1399" on="0"/>
        <pt x="1112" y="1313" on="0"/>
        <pt x="1164" y="1191" on="0"/>
        <pt x="1164" y="1116" on="1"/>
        <pt x="1164" y="1054" on="0"/>
        <pt x="1131" y="941" on="0"/>
        <pt x="1061" y="845" on="0"/>
        <pt x="953" y="769" on="0"/>
        <pt x="878" y="744" on="1"/>
        <pt x="1001" y="713" on="0"/>
        <pt x="1121" y="574" on="0"/>
        <pt x="1121" y="467" on="1"/>
        <pt x="1121" y="367" on="0"/>
        <pt x="1047" y="196" on="0"/>
        <pt x="907" y="71" on="0"/>
        <pt x="706" y="0" on="0"/>
        <pt x="579" y="0" on="1"/>
      </contour>
      <contour>
        <pt x="407" y="637" on="1"/>
        <pt x="354" y="202" on="1"/>
        <pt x="599" y="202" on="1"/>
        <pt x="669" y="202" on="0"/>
        <pt x="769" y="240" on="0"/>
        <pt x="834" y="309" on="0"/>
        <pt x="865" y="406" on="0"/>
        <pt x="865" y="464" on="1"/>
        <pt x="865" y="543" on="0"/>
        <pt x="765" y="637" on="0"/>
        <pt x="651" y="637" on="1"/>
      </contour>
      <contour>
        <pt x="429" y="816" on="1"/>
        <pt x="621" y="816" on="1"/>
        <pt x="755" y="816" on="0"/>
        <pt x="900" y="942" on="0"/>
        <pt x="900" y="1072" on="1"/>
        <pt x="900" y="1163" on="0"/>
        <pt x="797" y="1246" on="0"/>
        <pt x="688" y="1246" on="1"/>
        <pt x="482" y="1246" on="1"/>
      </contour>
    </TTGlyph>
    <TTGlyph name="C" xMin="74" yMin="-16" xMax="1275" yMax="1462">
      <contour>
        <pt x="678" y="204" on="1"/>
        <pt x="739" y="204" on="0"/>
        <pt x="830" y="223" on="0"/>
        <pt x="897" y="253" on="0"/>
        <pt x="945" y="286" on="0"/>
        <pt x="981" y="316" on="0"/>
        <pt x="1009" y="335" on="0"/>
        <pt x="1023" y="335" on="1"/>
        <pt x="1035" y="335" on="0"/>
        <pt x="1051" y="325" on="0"/>
        <pt x="1056" y="320" on="1"/>
        <pt x="1147" y="207" on="1"/>
        <pt x="1053" y="99" on="0"/>
        <pt x="799" y="-16" on="0"/>
        <pt x="634" y="-16" on="1"/>
        <pt x="501" y="-16" on="0"/>
        <pt x="293" y="79" on="0"/>
        <pt x="149" y="247" on="0"/>
        <pt x="74" y="477" on="0"/>
        <pt x="74" y="613" on="1"/>
        <pt x="74" y="738" on="0"/>
        <pt x="128" y="961" on="0"/>
        <pt x="228" y="1150" on="0"/>
        <pt x="368" y="1300" on="0"/>
        <pt x="538" y="1406" on="0"/>
        <pt x="735" y="1462" on="0"/>
        <pt x="842" y="1462" on="1"/>
        <pt x="921" y="1462" on="0"/>
        <pt x="1051" y="1433" on="0"/>
        <pt x="1157" y="1381" on="0"/>
        <pt x="1241" y="1308" on="0"/>
        <pt x="1275" y="1263" on="1"/>
        <pt x="1185" y="1155" on="1"/>
        <pt x="1175" y="1143" on="0"/>
        <pt x="1148" y="1125" on="0"/>
        <pt x="1128" y="1125" on="1"/>
        <pt x="1106" y="1125" on="0"/>
        <pt x="1066" y="1161" on="0"/>
        <pt x="1005" y="1204" on="0"/>
        <pt x="908" y="1240" on="0"/>
        <pt x="829" y="1240" on="1"/>
        <pt x="725" y="1240" on="0"/>
        <pt x="547" y="1155" on="0"/>
        <pt x="415" y="997" on="0"/>
        <pt x="340" y="774" on="0"/>
        <pt x="340" y="635" on="1"/>
        <pt x="340" y="534" on="0"/>
        <pt x="391" y="374" on="0"/>
        <pt x="481" y="263" on="0"/>
        <pt x="605" y="204" on="0"/>
      </contour>
    </TTGlyph>
    <TTGlyph name="Cacute" xMin="74" yMin="-16" xMax="1275" yMax="1789">
      <component glyphName="C" x="0" y="0" flags="0x4"/>
      <component glyphName="acute.case" x="423" y="0" flags="0x4"/>
    </TTGlyph>
    <TTGlyph name="Ccedilla" xMin="74" yMin="-349" xMax="1275" yMax="1462">
      <contour>
        <pt x="496" y="-230" on="1"/>
        <pt x="503" y="-230" on="0"/>
        <pt x="516" y="-235" on="0"/>
        <pt x="532" y="-241" on="0"/>
        <pt x="552" y="-246" on="0"/>
        <pt x="566" y="-246" on="1"/>
        <pt x="597" y="-246" on="0"/>
        <pt x="629" y="-215" on="0"/>
        <pt x="629" y="-194" on="1"/>
        <pt x="629" y="-168" on="0"/>
        <pt x="569" y="-143" on="0"/>
        <pt x="504" y="-134" on="1"/>
        <pt x="553" y="-11" on="1"/>
        <pt x="439" y="3" on="0"/>
        <pt x="260" y="107" on="0"/>
        <pt x="138" y="272" on="0"/>
        <pt x="74" y="488" on="0"/>
        <pt x="74" y="613" on="1"/>
        <pt x="74" y="738" on="0"/>
        <pt x="128" y="961" on="0"/>
        <pt x="228" y="1150" on="0"/>
        <pt x="368" y="1300" on="0"/>
        <pt x="538" y="1406" on="0"/>
        <pt x="735" y="1462" on="0"/>
        <pt x="842" y="1462" on="1"/>
        <pt x="921" y="1462" on="0"/>
        <pt x="1051" y="1433" on="0"/>
        <pt x="1157" y="1381" on="0"/>
        <pt x="1241" y="1308" on="0"/>
        <pt x="1275" y="1263" on="1"/>
        <pt x="1185" y="1155" on="1"/>
        <pt x="1175" y="1143" on="0"/>
        <pt x="1148" y="1125" on="0"/>
        <pt x="1128" y="1125" on="1"/>
        <pt x="1106" y="1125" on="0"/>
        <pt x="1066" y="1161" on="0"/>
        <pt x="1005" y="1204" on="0"/>
        <pt x="908" y="1240" on="0"/>
        <pt x="829" y="1240" on="1"/>
        <pt x="725" y="1240" on="0"/>
        <pt x="547" y="1155" on="0"/>
        <pt x="415" y="997" on="0"/>
        <pt x="340" y="774" on="0"/>
        <pt x="340" y="635" on="1"/>
        <pt x="340" y="534" on="0"/>
        <pt x="391" y="374" on="0"/>
        <pt x="481" y="263" on="0"/>
        <pt x="605" y="204" on="0"/>
        <pt x="678" y="204" on="1"/>
        <pt x="739" y="204" on="0"/>
        <pt x="830" y="223" on="0"/>
        <pt x="897" y="253" on="0"/>
        <pt x="945" y="286" on="0"/>
        <pt x="981" y="316" on="0"/>
        <pt x="1009" y="335" on="0"/>
        <pt x="1023" y="335" on="1"/>
        <pt x="1035" y="335" on="0"/>
        <pt x="1051" y="325" on="0"/>
        <pt x="1056" y="320" on="1"/>
        <pt x="1147" y="207" on="1"/>
        <pt x="1062" y="110" on="0"/>
        <pt x="842" y="-2" on="0"/>
        <pt x="701" y="-13" on="1"/>
        <pt x="684" y="-58" on="1"/>
        <pt x="757" y="-77" on="0"/>
        <pt x="817" y="-144" on="0"/>
        <pt x="817" y="-187" on="1"/>
        <pt x="817" y="-225" on="0"/>
        <pt x="780" y="-285" on="0"/>
        <pt x="714" y="-327" on="0"/>
        <pt x="623" y="-349" on="0"/>
        <pt x="569" y="-349" on="1"/>
        <pt x="531" y="-349" on="0"/>
        <pt x="467" y="-337" on="0"/>
        <pt x="435" y="-325" on="1"/>
        <pt x="468" y="-251" on="1"/>
        <pt x="476" y="-230" on="0"/>
      </contour>
    </TTGlyph>
    <TTGlyph name="D" xMin="70" yMin="0" xMax="1354" yMax="1446">
      <contour>
        <pt x="1354" y="820" on="1"/>
        <pt x="1354" y="640" on="0"/>
        <pt x="1238" y="338" on="0"/>
        <pt x="1031" y="121" on="0"/>
        <pt x="747" y="0" on="0"/>
        <pt x="579" y="0" on="1"/>
        <pt x="70" y="0" on="1"/>
        <pt x="248" y="1446" on="1"/>
        <pt x="758" y="1446" on="1"/>
        <pt x="896" y="1446" on="0"/>
        <pt x="1117" y="1352" on="0"/>
        <pt x="1271" y="1186" on="0"/>
        <pt x="1354" y="956" on="0"/>
      </contour>
      <contour>
        <pt x="1088" y="814" on="1"/>
        <pt x="1088" y="911" on="0"/>
        <pt x="1040" y="1069" on="0"/>
        <pt x="949" y="1180" on="0"/>
        <pt x="817" y="1240" on="0"/>
        <pt x="732" y="1240" on="1"/>
        <pt x="483" y="1240" on="1"/>
        <pt x="356" y="207" on="1"/>
        <pt x="605" y="207" on="1"/>
        <pt x="714" y="207" on="0"/>
        <pt x="892" y="291" on="0"/>
        <pt x="1019" y="448" on="0"/>
        <pt x="1088" y="673" on="0"/>
      </contour>
    </TTGlyph>
    <TTGlyph name="Delta" xMin="-50" yMin="0" xMax="1290" yMax="1445">
      <contour>
        <pt x="1290" y="0" on="1"/>
        <pt x="-50" y="0" on="1"/>
        <pt x="680" y="1445" on="1"/>
        <pt x="916" y="1445" on="1"/>
      </contour>
      <contour>
        <pt x="314" y="205" on="1"/>
        <pt x="977" y="205" on="1"/>
        <pt x="793" y="1039" on="1"/>
        <pt x="785" y="1066" on="0"/>
        <pt x="772" y="1137" on="0"/>
        <pt x="765" y="1179" on="1"/>
        <pt x="749" y="1137" on="0"/>
        <pt x="718" y="1065" on="0"/>
        <pt x="704" y="1038" on="1"/>
      </contour>
    </TTGlyph>
    <TTGlyph name="E" xMin="70" yMin="0" xMax="1091" yMax="1446">
      <contour>
        <pt x="1091" y="1446" on="1"/>
        <pt x="1065" y="1239" on="1"/>
        <pt x="483" y="1239" on="1"/>
        <pt x="433" y="828" on="1"/>
        <pt x="890" y="828" on="1"/>
        <pt x="865" y="629" on="1"/>
        <pt x="408" y="629" on="1"/>
        <pt x="356" y="207" on="1"/>
        <pt x="940" y="207" on="1"/>
        <pt x="914" y="0" on="1"/>
        <pt x="70" y="0" on="1"/>
        <pt x="248" y="1446" on="1"/>
      </contour>
    </TTGlyph>
    <TTGlyph name="Eacute" xMin="70" yMin="0" xMax="1095" yMax="1789">
      <component glyphName="E" x="0" y="0" flags="0x204"/>
      <component glyphName="acute.case" x="263" y="0" flags="0x4"/>
    </TTGlyph>
    <TTGlyph name="Ecircumflex" xMin="70" yMin="0" xMax="1091" yMax="1767">
      <component glyphName="E" x="0" y="0" flags="0x204"/>
      <component glyphName="circumflex.case" x="263" y="0" flags="0x4"/>
    </TTGlyph>
    <TTGlyph name="Edieresis" xMin="70" yMin="0" xMax="1091" yMax="1788">
      <component glyphName="E" x="0" y="0" flags="0x204"/>
      <component glyphName="dieresis.case" x="263" y="0" flags="0x4"/>
    </TTGlyph>
    <TTGlyph name="Egrave" xMin="70" yMin="0" xMax="1091" yMax="1789">
      <component glyphName="E" x="0" y="0" flags="0x204"/>
      <component glyphName="grave.case" x="263" y="0" flags="0x4"/>
    </TTGlyph>
    <TTGlyph name="Eogonek" xMin="70" yMin="-345" xMax="1091" yMax="1446">
      <contour>
        <pt x="823" y="-190" on="1"/>
        <pt x="841" y="-190" on="0"/>
        <pt x="844" y="-206" on="1"/>
        <pt x="868" y="-294" on="1"/>
        <pt x="836" y="-316" on="0"/>
        <pt x="740" y="-345" on="0"/>
        <pt x="689" y="-345" on="1"/>
        <pt x="604" y="-345" on="0"/>
        <pt x="516" y="-271" on="0"/>
        <pt x="516" y="-214" on="1"/>
        <pt x="516" y="-154" on="0"/>
        <pt x="596" y="-45" on="0"/>
        <pt x="671" y="0" on="1"/>
        <pt x="70" y="0" on="1"/>
        <pt x="248" y="1446" on="1"/>
        <pt x="1091" y="1446" on="1"/>
        <pt x="1065" y="1239" on="1"/>
        <pt x="483" y="1239" on="1"/>
        <pt x="433" y="828" on="1"/>
        <pt x="890" y="828" on="1"/>
        <pt x="865" y="629" on="1"/>
        <pt x="408" y="629" on="1"/>
        <pt x="356" y="207" on="1"/>
        <pt x="940" y="207" on="1"/>
        <pt x="914" y="0" on="1"/>
        <pt x="813" y="0" on="1"/>
        <pt x="792" y="-11" on="0"/>
        <pt x="751" y="-42" on="0"/>
        <pt x="720" y="-80" on="0"/>
        <pt x="700" y="-124" on="0"/>
        <pt x="700" y="-148" on="1"/>
        <pt x="700" y="-174" on="0"/>
        <pt x="729" y="-206" on="0"/>
        <pt x="755" y="-206" on="1"/>
        <pt x="772" y="-206" on="0"/>
        <pt x="794" y="-201" on="0"/>
        <pt x="809" y="-195" on="0"/>
        <pt x="818" y="-190" on="0"/>
      </contour>
    </TTGlyph>
    <TTGlyph name="Eth" xMin="68" yMin="0" xMax="1435" yMax="1446">
      <contour>
        <pt x="88" y="801" on="1"/>
        <pt x="250" y="801" on="1"/>
        <pt x="329" y="1446" on="1"/>
        <pt x="839" y="1446" on="1"/>
        <pt x="977" y="1446" on="0"/>
        <pt x="1198" y="1352" on="0"/>
        <pt x="1353" y="1186" on="0"/>
        <pt x="1435" y="956" on="0"/>
        <pt x="1435" y="820" on="1"/>
        <pt x="1435" y="640" on="0"/>
        <pt x="1319" y="338" on="0"/>
        <pt x="1113" y="121" on="0"/>
        <pt x="830" y="0" on="0"/>
        <pt x="663" y="0" on="1"/>
        <pt x="153" y="0" on="1"/>
        <pt x="232" y="653" on="1"/>
        <pt x="68" y="653" on="1"/>
      </contour>
      <contour>
        <pt x="1169" y="814" on="1"/>
        <pt x="1169" y="911" on="0"/>
        <pt x="1121" y="1069" on="0"/>
        <pt x="1030" y="1180" on="0"/>
        <pt x="898" y="1240" on="0"/>
        <pt x="814" y="1240" on="1"/>
        <pt x="565" y="1240" on="1"/>
        <pt x="511" y="801" on="1"/>
        <pt x="840" y="801" on="1"/>
        <pt x="823" y="653" on="1"/>
        <pt x="493" y="653" on="1"/>
        <pt x="439" y="207" on="1"/>
        <pt x="688" y="207" on="1"/>
        <pt x="797" y="207" on="0"/>
        <pt x="975" y="291" on="0"/>
        <pt x="1101" y="448" on="0"/>
        <pt x="1169" y="673" on="0"/>
      </contour>
    </TTGlyph>
    <TTGlyph name="Euro" xMin="43" yMin="-14" xMax="1224" yMax="1459">
      <contour>
        <pt x="90" y="925" on="1"/>
        <pt x="219" y="925" on="1"/>
        <pt x="255" y="1049" on="0"/>
        <pt x="378" y="1247" on="0"/>
        <pt x="540" y="1385" on="0"/>
        <pt x="736" y="1459" on="0"/>
        <pt x="846" y="1459" on="1"/>
        <pt x="984" y="1459" on="0"/>
        <pt x="1168" y="1352" on="0"/>
        <pt x="1224" y="1263" on="1"/>
        <pt x="1129" y="1172" on="1"/>
        <pt x="1118" y="1161" on="0"/>
        <pt x="1096" y="1145" on="0"/>
        <pt x="1076" y="1145" on="1"/>
        <pt x="1056" y="1145" on="0"/>
        <pt x="1025" y="1179" on="0"/>
        <pt x="976" y="1220" on="0"/>
        <pt x="897" y="1254" on="0"/>
        <pt x="830" y="1254" on="1"/>
        <pt x="703" y="1254" on="0"/>
        <pt x="511" y="1086" on="0"/>
        <pt x="462" y="925" on="1"/>
        <pt x="978" y="925" on="1"/>
        <pt x="970" y="850" on="1"/>
        <pt x="968" y="829" on="0"/>
        <pt x="927" y="792" on="0"/>
        <pt x="895" y="792" on="1"/>
        <pt x="432" y="792" on="1"/>
        <pt x="423" y="735" on="0"/>
        <pt x="420" y="673" on="1"/>
        <pt x="854" y="673" on="1"/>
        <pt x="845" y="601" on="1"/>
        <pt x="842" y="578" on="0"/>
        <pt x="800" y="541" on="0"/>
        <pt x="771" y="541" on="1"/>
        <pt x="419" y="541" on="1"/>
        <pt x="430" y="369" on="0"/>
        <pt x="571" y="191" on="0"/>
        <pt x="689" y="191" on="1"/>
        <pt x="738" y="191" on="0"/>
        <pt x="812" y="210" on="0"/>
        <pt x="867" y="238" on="0"/>
        <pt x="908" y="271" on="0"/>
        <pt x="940" y="299" on="0"/>
        <pt x="968" y="318" on="0"/>
        <pt x="982" y="318" on="1"/>
        <pt x="993" y="318" on="0"/>
        <pt x="1006" y="311" on="0"/>
        <pt x="1015" y="302" on="1"/>
        <pt x="1106" y="207" on="1"/>
        <pt x="1023" y="101" on="0"/>
        <pt x="794" y="-14" on="0"/>
        <pt x="652" y="-14" on="1"/>
        <pt x="538" y="-14" on="0"/>
        <pt x="363" y="67" on="0"/>
        <pt x="244" y="214" on="0"/>
        <pt x="179" y="418" on="0"/>
        <pt x="174" y="541" on="1"/>
        <pt x="43" y="541" on="1"/>
        <pt x="59" y="673" on="1"/>
        <pt x="176" y="673" on="1"/>
        <pt x="178" y="704" on="0"/>
        <pt x="184" y="763" on="0"/>
        <pt x="189" y="792" on="1"/>
        <pt x="74" y="792" on="1"/>
      </contour>
    </TTGlyph>
    <TTGlyph name="F" xMin="70" yMin="0" xMax="1091" yMax="1446">
      <contour>
        <pt x="1065" y="1239" on="1"/>
        <pt x="483" y="1239" on="1"/>
        <pt x="429" y="799" on="1"/>
        <pt x="920" y="799" on="1"/>
        <pt x="893" y="592" on="1"/>
        <pt x="404" y="592" on="1"/>
        <pt x="331" y="0" on="1"/>
        <pt x="70" y="0" on="1"/>
        <pt x="248" y="1446" on="1"/>
        <pt x="1091" y="1446" on="1"/>
      </contour>
    </TTGlyph>
    <TTGlyph name="G" xMin="74" yMin="-16" xMax="1325" yMax="1462">
      <contour>
        <pt x="707" y="191" on="1"/>
        <pt x="788" y="191" on="0"/>
        <pt x="912" y="222" on="0"/>
        <pt x="969" y="250" on="1"/>
        <pt x="1003" y="526" on="1"/>
        <pt x="843" y="526" on="1"/>
        <pt x="820" y="526" on="0"/>
        <pt x="795" y="549" on="0"/>
        <pt x="795" y="567" on="1"/>
        <pt x="812" y="721" on="1"/>
        <pt x="1262" y="721" on="1"/>
        <pt x="1190" y="140" on="1"/>
        <pt x="1080" y="60" on="0"/>
        <pt x="826" y="-16" on="0"/>
        <pt x="663" y="-16" on="1"/>
        <pt x="530" y="-16" on="0"/>
        <pt x="313" y="80" on="0"/>
        <pt x="158" y="251" on="0"/>
        <pt x="74" y="486" on="0"/>
        <pt x="74" y="625" on="1"/>
        <pt x="74" y="747" on="0"/>
        <pt x="128" y="966" on="0"/>
        <pt x="227" y="1152" on="0"/>
        <pt x="366" y="1301" on="0"/>
        <pt x="539" y="1406" on="0"/>
        <pt x="739" y="1462" on="0"/>
        <pt x="849" y="1462" on="1"/>
        <pt x="937" y="1462" on="0"/>
        <pt x="1081" y="1431" on="0"/>
        <pt x="1197" y="1377" on="0"/>
        <pt x="1289" y="1305" on="0"/>
        <pt x="1325" y="1265" on="1"/>
        <pt x="1241" y="1157" on="1"/>
        <pt x="1214" y="1122" on="0"/>
        <pt x="1177" y="1122" on="1"/>
        <pt x="1154" y="1122" on="0"/>
        <pt x="1133" y="1136" on="1"/>
        <pt x="1100" y="1158" on="0"/>
        <pt x="1038" y="1196" on="0"/>
        <pt x="968" y="1224" on="0"/>
        <pt x="885" y="1240" on="0"/>
        <pt x="830" y="1240" on="1"/>
        <pt x="722" y="1240" on="0"/>
        <pt x="542" y="1153" on="0"/>
        <pt x="412" y="994" on="0"/>
        <pt x="340" y="771" on="0"/>
        <pt x="340" y="634" on="1"/>
        <pt x="340" y="530" on="0"/>
        <pt x="393" y="366" on="0"/>
        <pt x="489" y="252" on="0"/>
        <pt x="624" y="191" on="0"/>
      </contour>
    </TTGlyph>
    <TTGlyph name="H" xMin="70" yMin="0" xMax="1379" yMax="1446">
      <contour>
        <pt x="1200" y="0" on="1"/>
        <pt x="939" y="0" on="1"/>
        <pt x="1017" y="635" on="1"/>
        <pt x="409" y="635" on="1"/>
        <pt x="331" y="0" on="1"/>
        <pt x="70" y="0" on="1"/>
        <pt x="248" y="1446" on="1"/>
        <pt x="509" y="1446" on="1"/>
        <pt x="431" y="819" on="1"/>
        <pt x="1040" y="819" on="1"/>
        <pt x="1118" y="1446" on="1"/>
        <pt x="1379" y="1446" on="1"/>
      </contour>
    </TTGlyph>
    <TTGlyph name="I" xMin="99" yMin="0" xMax="537" yMax="1446">
      <contour>
        <pt x="360" y="0" on="1"/>
        <pt x="99" y="0" on="1"/>
        <pt x="276" y="1446" on="1"/>
        <pt x="537" y="1446" on="1"/>
      </contour>
    </TTGlyph>
    <TTGlyph name="Iacute" xMin="99" yMin="0" xMax="831" yMax="1789">
      <component glyphName="I" x="0" y="0" flags="0x204"/>
      <component glyphName="acute.case" x="-1" y="0" flags="0x4"/>
    </TTGlyph>
    <TTGlyph name="Icircumflex" xMin="78" yMin="0" xMax="761" yMax="1767">
      <component glyphName="I" x="0" y="0" flags="0x204"/>
      <component glyphName="circumflex.case" x="-1" y="0" flags="0x4"/>
    </TTGlyph>
    <TTGlyph name="Idieresis" xMin="99" yMin="0" xMax="709" yMax="1788">
      <component glyphName="I" x="0" y="0" flags="0x204"/>
      <component glyphName="dieresis.case" x="-1" y="0" flags="0x4"/>
    </TTGlyph>
    <TTGlyph name="Igrave" xMin="52" yMin="0" xMax="563" yMax="1789">
      <component glyphName="I" x="0" y="0" flags="0x204"/>
      <component glyphName="grave.case" x="-1" y="0" flags="0x4"/>
    </TTGlyph>
    <TTGlyph name="J" xMin="-27" yMin="-16" xMax="789" yMax="1446">
      <contour>
        <pt x="673" y="501" on="1"/>
        <pt x="658" y="381" on="0"/>
        <pt x="580" y="189" on="0"/>
        <pt x="455" y="56" on="0"/>
        <pt x="283" y="-16" on="0"/>
        <pt x="174" y="-16" on="1"/>
        <pt x="121" y="-16" on="0"/>
        <pt x="24" y="-3" on="0"/>
        <pt x="-27" y="11" on="1"/>
        <pt x="-8" y="163" on="1"/>
        <pt x="-6" y="184" on="0"/>
        <pt x="19" y="212" on="0"/>
        <pt x="45" y="212" on="1"/>
        <pt x="68" y="212" on="0"/>
        <pt x="128" y="198" on="0"/>
        <pt x="175" y="198" on="1"/>
        <pt x="221" y="198" on="0"/>
        <pt x="299" y="230" on="0"/>
        <pt x="361" y="301" on="0"/>
        <pt x="403" y="414" on="0"/>
        <pt x="413" y="495" on="1"/>
        <pt x="529" y="1446" on="1"/>
        <pt x="789" y="1446" on="1"/>
      </contour>
    </TTGlyph>
    <TTGlyph name="K" xMin="77" yMin="0" xMax="1362" yMax="1447">
      <contour>
        <pt x="438" y="835" on="1"/>
        <pt x="494" y="835" on="1"/>
        <pt x="529" y="835" on="0"/>
        <pt x="578" y="856" on="0"/>
        <pt x="598" y="880" on="1"/>
        <pt x="1016" y="1390" on="1"/>
        <pt x="1042" y="1422" on="0"/>
        <pt x="1100" y="1446" on="0"/>
        <pt x="1139" y="1446" on="1"/>
        <pt x="1362" y="1446" on="1"/>
        <pt x="850" y="841" on="1"/>
        <pt x="827" y="814" on="0"/>
        <pt x="784" y="776" on="0"/>
        <pt x="760" y="765" on="1"/>
        <pt x="790" y="753" on="0"/>
        <pt x="833" y="711" on="0"/>
        <pt x="851" y="677" on="1"/>
        <pt x="1218" y="0" on="1"/>
        <pt x="990" y="0" on="1"/>
        <pt x="967" y="0" on="0"/>
        <pt x="935" y="7" on="0"/>
        <pt x="912" y="20" on="0"/>
        <pt x="897" y="39" on="0"/>
        <pt x="891" y="51" on="1"/>
        <pt x="593" y="590" on="1"/>
        <pt x="579" y="616" on="0"/>
        <pt x="535" y="639" on="0"/>
        <pt x="492" y="639" on="1"/>
        <pt x="414" y="639" on="1"/>
        <pt x="335" y="0" on="1"/>
        <pt x="77" y="0" on="1"/>
        <pt x="254" y="1447" on="1"/>
        <pt x="514" y="1447" on="1"/>
      </contour>
    </TTGlyph>
    <TTGlyph name="L" xMin="70" yMin="0" xMax="881" yMax="1446">
      <contour>
        <pt x="355" y="215" on="1"/>
        <pt x="881" y="215" on="1"/>
        <pt x="856" y="0" on="1"/>
        <pt x="70" y="0" on="1"/>
        <pt x="248" y="1446" on="1"/>
        <pt x="507" y="1446" on="1"/>
      </contour>
    </TTGlyph>
    <TTGlyph name="Lslash" xMin="11" yMin="0" xMax="945" yMax="1446">
      <contour>
        <pt x="500" y="872" on="1"/>
        <pt x="835" y="1043" on="1"/>
        <pt x="813" y="869" on="1"/>
        <pt x="811" y="850" on="0"/>
        <pt x="791" y="825" on="0"/>
        <pt x="775" y="817" on="1"/>
        <pt x="473" y="656" on="1"/>
        <pt x="419" y="215" on="1"/>
        <pt x="945" y="215" on="1"/>
        <pt x="920" y="0" on="1"/>
        <pt x="134" y="0" on="1"/>
        <pt x="199" y="533" on="1"/>
        <pt x="11" y="441" on="1"/>
        <pt x="34" y="618" on="1"/>
        <pt x="38" y="651" on="0"/>
        <pt x="68" y="666" on="1"/>
        <pt x="225" y="746" on="1"/>
        <pt x="312" y="1446" on="1"/>
        <pt x="571" y="1446" on="1"/>
      </contour>
    </TTGlyph>
    <TTGlyph name="M" xMin="70" yMin="0" xMax="1702" yMax="1446">
      <contour>
        <pt x="825" y="578" on="1"/>
        <pt x="834" y="552" on="0"/>
        <pt x="848" y="498" on="0"/>
        <pt x="855" y="470" on="1"/>
        <pt x="867" y="498" on="0"/>
        <pt x="895" y="552" on="0"/>
        <pt x="911" y="578" on="1"/>
        <pt x="1413" y="1404" on="1"/>
        <pt x="1422" y="1419" on="0"/>
        <pt x="1441" y="1436" on="0"/>
        <pt x="1462" y="1444" on="0"/>
        <pt x="1488" y="1446" on="0"/>
        <pt x="1505" y="1446" on="1"/>
        <pt x="1702" y="1446" on="1"/>
        <pt x="1524" y="0" on="1"/>
        <pt x="1296" y="0" on="1"/>
        <pt x="1412" y="942" on="1"/>
        <pt x="1415" y="968" on="0"/>
        <pt x="1427" y="1030" on="0"/>
        <pt x="1434" y="1062" on="1"/>
        <pt x="937" y="236" on="1"/>
        <pt x="920" y="208" on="0"/>
        <pt x="869" y="180" on="0"/>
        <pt x="839" y="180" on="1"/>
        <pt x="803" y="180" on="1"/>
        <pt x="773" y="180" on="0"/>
        <pt x="728" y="208" on="0"/>
        <pt x="718" y="236" on="1"/>
        <pt x="420" y="1059" on="1"/>
        <pt x="419" y="1028" on="0"/>
        <pt x="416" y="970" on="0"/>
        <pt x="413" y="946" on="1"/>
        <pt x="299" y="0" on="1"/>
        <pt x="70" y="0" on="1"/>
        <pt x="248" y="1446" on="1"/>
        <pt x="443" y="1446" on="1"/>
        <pt x="460" y="1446" on="0"/>
        <pt x="486" y="1444" on="0"/>
        <pt x="506" y="1436" on="0"/>
        <pt x="520" y="1419" on="0"/>
        <pt x="526" y="1404" on="1"/>
        <pt x="825" y="578" on="1"/>
      </contour>
    </TTGlyph>
    <TTGlyph name="N" xMin="70" yMin="0" xMax="1379" yMax="1446">
      <contour>
        <pt x="384" y="1446" on="1"/>
        <pt x="401" y="1446" on="0"/>
        <pt x="424" y="1443" on="0"/>
        <pt x="442" y="1434" on="0"/>
        <pt x="456" y="1418" on="0"/>
        <pt x="464" y="1404" on="1"/>
        <pt x="1027" y="417" on="1"/>
        <pt x="1029" y="446" on="0"/>
        <pt x="1034" y="501" on="0"/>
        <pt x="1037" y="525" on="1"/>
        <pt x="1150" y="1446" on="1"/>
        <pt x="1379" y="1446" on="1"/>
        <pt x="1200" y="0" on="1"/>
        <pt x="1067" y="0" on="1"/>
        <pt x="1037" y="0" on="0"/>
        <pt x="995" y="19" on="0"/>
        <pt x="981" y="45" on="1"/>
        <pt x="421" y="1032" on="1"/>
        <pt x="419" y="1008" on="0"/>
        <pt x="415" y="963" on="0"/>
        <pt x="413" y="943" on="1"/>
        <pt x="299" y="0" on="1"/>
        <pt x="70" y="0" on="1"/>
        <pt x="248" y="1446" on="1"/>
        <pt x="384" y="1446" on="1"/>
      </contour>
    </TTGlyph>
    <TTGlyph name="Nacute" xMin="70" yMin="0" xMax="1379" yMax="1789">
      <component glyphName="N" x="0" y="0" flags="0x204"/>
      <component glyphName="acute.case" x="396" y="0" flags="0x4"/>
    </TTGlyph>
    <TTGlyph name="Ntilde" xMin="70" yMin="0" xMax="1379" yMax="1766">
      <component glyphName="N" x="0" y="0" flags="0x204"/>
      <component glyphName="tilde.case" x="396" y="0" flags="0x4"/>
    </TTGlyph>
    <TTGlyph name="O" xMin="74" yMin="-16" xMax="1446" yMax="1462">
      <contour>
        <pt x="1446" y="820" on="1"/>
        <pt x="1446" y="700" on="0"/>
        <pt x="1393" y="483" on="0"/>
        <pt x="1294" y="297" on="0"/>
        <pt x="1155" y="147" on="0"/>
        <pt x="982" y="41" on="0"/>
        <pt x="780" y="-16" on="0"/>
        <pt x="669" y="-16" on="1"/>
        <pt x="531" y="-16" on="0"/>
        <pt x="311" y="82" on="0"/>
        <pt x="156" y="254" on="0"/>
        <pt x="74" y="488" on="0"/>
        <pt x="74" y="625" on="1"/>
        <pt x="74" y="745" on="0"/>
        <pt x="127" y="962" on="0"/>
        <pt x="226" y="1148" on="0"/>
        <pt x="365" y="1298" on="0"/>
        <pt x="538" y="1405" on="0"/>
        <pt x="740" y="1462" on="0"/>
        <pt x="852" y="1462" on="1"/>
        <pt x="990" y="1462" on="0"/>
        <pt x="1210" y="1364" on="0"/>
        <pt x="1364" y="1192" on="0"/>
        <pt x="1446" y="957" on="0"/>
      </contour>
      <contour>
        <pt x="1180" y="814" on="1"/>
        <pt x="1180" y="912" on="0"/>
        <pt x="1131" y="1072" on="0"/>
        <pt x="1038" y="1186" on="0"/>
        <pt x="904" y="1248" on="0"/>
        <pt x="820" y="1248" on="1"/>
        <pt x="712" y="1248" on="0"/>
        <pt x="535" y="1160" on="0"/>
        <pt x="409" y="998" on="0"/>
        <pt x="340" y="770" on="0"/>
        <pt x="340" y="631" on="1"/>
        <pt x="340" y="533" on="0"/>
        <pt x="388" y="373" on="0"/>
        <pt x="480" y="260" on="0"/>
        <pt x="613" y="199" on="0"/>
        <pt x="698" y="199" on="1"/>
        <pt x="807" y="199" on="0"/>
        <pt x="985" y="287" on="0"/>
        <pt x="1111" y="447" on="0"/>
        <pt x="1180" y="674" on="0"/>
      </contour>
    </TTGlyph>
    <TTGlyph name="OE" xMin="74" yMin="-15" xMax="2020" yMax="1462">
      <contour>
        <pt x="2020" y="1446" on="1"/>
        <pt x="1994" y="1239" on="1"/>
        <pt x="1413" y="1239" on="1"/>
        <pt x="1362" y="827" on="1"/>
        <pt x="1818" y="827" on="1"/>
        <pt x="1794" y="628" on="1"/>
        <pt x="1338" y="628" on="1"/>
        <pt x="1287" y="207" on="1"/>
        <pt x="1867" y="207" on="1"/>
        <pt x="1842" y="0" on="1"/>
        <pt x="1030" y="0" on="1"/>
        <pt x="1051" y="173" on="1"/>
        <pt x="963" y="83" on="0"/>
        <pt x="736" y="-15" on="0"/>
        <pt x="602" y="-15" on="1"/>
        <pt x="479" y="-15" on="0"/>
        <pt x="283" y="81" on="0"/>
        <pt x="147" y="249" on="0"/>
        <pt x="74" y="480" on="0"/>
        <pt x="74" y="615" on="1"/>
        <pt x="74" y="736" on="0"/>
        <pt x="123" y="956" on="0"/>
        <pt x="212" y="1144" on="0"/>
        <pt x="340" y="1296" on="0"/>
        <pt x="497" y="1404" on="0"/>
        <pt x="681" y="1462" on="0"/>
        <pt x="782" y="1462" on="1"/>
        <pt x="917" y="1462" on="0"/>
        <pt x="1118" y="1347" on="0"/>
        <pt x="1183" y="1247" on="1"/>
        <pt x="1208" y="1446" on="1"/>
      </contour>
      <contour>
        <pt x="1095" y="824" on="1"/>
        <pt x="1095" y="920" on="0"/>
        <pt x="1054" y="1079" on="0"/>
        <pt x="975" y="1193" on="0"/>
        <pt x="859" y="1256" on="0"/>
        <pt x="784" y="1256" on="1"/>
        <pt x="683" y="1256" on="0"/>
        <pt x="520" y="1163" on="0"/>
        <pt x="403" y="996" on="0"/>
        <pt x="340" y="762" on="0"/>
        <pt x="340" y="621" on="1"/>
        <pt x="340" y="525" on="0"/>
        <pt x="381" y="367" on="0"/>
        <pt x="460" y="253" on="0"/>
        <pt x="577" y="191" on="0"/>
        <pt x="653" y="191" on="1"/>
        <pt x="753" y="191" on="0"/>
        <pt x="916" y="283" on="0"/>
        <pt x="1032" y="450" on="0"/>
        <pt x="1095" y="683" on="0"/>
      </contour>
    </TTGlyph>
    <TTGlyph name="Oacute" xMin="74" yMin="-16" xMax="1446" yMax="1789">
      <component glyphName="O" x="0" y="0" flags="0x204"/>
      <component glyphName="acute.case" x="435" y="0" flags="0x4"/>
    </TTGlyph>
    <TTGlyph name="Ocircumflex" xMin="74" yMin="-16" xMax="1446" yMax="1767">
      <component glyphName="O" x="0" y="0" flags="0x204"/>
      <component glyphName="circumflex.case" x="435" y="0" flags="0x4"/>
    </TTGlyph>
    <TTGlyph name="Odieresis" xMin="74" yMin="-16" xMax="1446" yMax="1788">
      <component glyphName="O" x="0" y="0" flags="0x204"/>
      <component glyphName="dieresis.case" x="435" y="0" flags="0x4"/>
    </TTGlyph>
    <TTGlyph name="Ograve" xMin="74" yMin="-16" xMax="1446" yMax="1789">
      <component glyphName="O" x="0" y="0" flags="0x204"/>
      <component glyphName="grave.case" x="435" y="0" flags="0x4"/>
    </TTGlyph>
    <TTGlyph name="Omega" xMin="14" yMin="0" xMax="1350" yMax="1461">
      <contour>
        <pt x="682" y="0" on="1"/>
        <pt x="743" y="489" on="1"/>
        <pt x="813" y="502" on="0"/>
        <pt x="937" y="566" on="0"/>
        <pt x="1029" y="672" on="0"/>
        <pt x="1082" y="827" on="0"/>
        <pt x="1082" y="932" on="1"/>
        <pt x="1082" y="1008" on="0"/>
        <pt x="1040" y="1128" on="0"/>
        <pt x="960" y="1211" on="0"/>
        <pt x="846" y="1254" on="0"/>
        <pt x="773" y="1254" on="1"/>
        <pt x="680" y="1254" on="0"/>
        <pt x="531" y="1194" on="0"/>
        <pt x="426" y="1078" on="0"/>
        <pt x="369" y="911" on="0"/>
        <pt x="369" y="805" on="1"/>
        <pt x="369" y="734" on="0"/>
        <pt x="406" y="626" on="0"/>
        <pt x="472" y="548" on="0"/>
        <pt x="563" y="500" on="0"/>
        <pt x="617" y="489" on="1"/>
        <pt x="557" y="0" on="1"/>
        <pt x="90" y="0" on="1"/>
        <pt x="53" y="0" on="0"/>
        <pt x="14" y="39" on="0"/>
        <pt x="14" y="70" on="1"/>
        <pt x="14" y="71" on="0"/>
        <pt x="15" y="78" on="0"/>
        <pt x="18" y="106" on="0"/>
        <pt x="24" y="163" on="0"/>
        <pt x="30" y="214" on="1"/>
        <pt x="384" y="214" on="1"/>
        <pt x="402" y="359" on="1"/>
        <pt x="329" y="382" on="0"/>
        <pt x="218" y="467" on="0"/>
        <pt x="143" y="583" on="0"/>
        <pt x="105" y="725" on="0"/>
        <pt x="105" y="804" on="1"/>
        <pt x="105" y="943" on="0"/>
        <pt x="209" y="1183" on="0"/>
        <pt x="394" y="1360" on="0"/>
        <pt x="648" y="1461" on="0"/>
        <pt x="798" y="1461" on="1"/>
        <pt x="926" y="1461" on="0"/>
        <pt x="1130" y="1380" on="0"/>
        <pt x="1273" y="1240" on="0"/>
        <pt x="1350" y="1051" on="0"/>
        <pt x="1350" y="943" on="1"/>
        <pt x="1350" y="838" on="0"/>
        <pt x="1292" y="648" on="0"/>
        <pt x="1182" y="495" on="0"/>
        <pt x="1025" y="384" on="0"/>
        <pt x="925" y="357" on="1"/>
        <pt x="908" y="214" on="1"/>
        <pt x="1262" y="214" on="1"/>
        <pt x="1246" y="81" on="1"/>
        <pt x="1241" y="46" on="0"/>
        <pt x="1189" y="1" on="0"/>
        <pt x="1150" y="0" on="1"/>
      </contour>
    </TTGlyph>
    <TTGlyph name="Oslash" xMin="22" yMin="-111" xMax="1501" yMax="1510">
      <contour>
        <pt x="1446" y="820" on="1"/>
        <pt x="1446" y="700" on="0"/>
        <pt x="1393" y="483" on="0"/>
        <pt x="1294" y="297" on="0"/>
        <pt x="1155" y="147" on="0"/>
        <pt x="982" y="41" on="0"/>
        <pt x="780" y="-16" on="0"/>
        <pt x="669" y="-16" on="1"/>
        <pt x="578" y="-16" on="0"/>
        <pt x="424" y="26" on="0"/>
        <pt x="358" y="64" on="1"/>
        <pt x="275" y="-41" on="1"/>
        <pt x="243" y="-81" on="0"/>
        <pt x="161" y="-111" on="0"/>
        <pt x="124" y="-111" on="1"/>
        <pt x="22" y="-111" on="1"/>
        <pt x="238" y="162" on="1"/>
        <pt x="158" y="249" on="0"/>
        <pt x="74" y="485" on="0"/>
        <pt x="74" y="625" on="1"/>
        <pt x="74" y="745" on="0"/>
        <pt x="127" y="962" on="0"/>
        <pt x="226" y="1148" on="0"/>
        <pt x="365" y="1298" on="0"/>
        <pt x="538" y="1405" on="0"/>
        <pt x="740" y="1462" on="0"/>
        <pt x="852" y="1462" on="1"/>
        <pt x="951" y="1462" on="0"/>
        <pt x="1119" y="1411" on="0"/>
        <pt x="1188" y="1364" on="1"/>
        <pt x="1253" y="1446" on="1"/>
        <pt x="1267" y="1464" on="0"/>
        <pt x="1291" y="1488" on="0"/>
        <pt x="1316" y="1503" on="0"/>
        <pt x="1347" y="1510" on="0"/>
        <pt x="1368" y="1510" on="1"/>
        <pt x="1501" y="1510" on="1"/>
        <pt x="1302" y="1259" on="1"/>
        <pt x="1372" y="1173" on="0"/>
        <pt x="1446" y="950" on="0"/>
      </contour>
      <contour>
        <pt x="340" y="631" on="1"/>
        <pt x="340" y="552" on="0"/>
        <pt x="371" y="420" on="0"/>
        <pt x="400" y="367" on="1"/>
        <pt x="1039" y="1175" on="1"/>
        <pt x="995" y="1210" on="0"/>
        <pt x="886" y="1248" on="0"/>
        <pt x="820" y="1248" on="1"/>
        <pt x="712" y="1248" on="0"/>
        <pt x="535" y="1160" on="0"/>
        <pt x="409" y="998" on="0"/>
        <pt x="340" y="770" on="0"/>
      </contour>
      <contour>
        <pt x="1180" y="814" on="1"/>
        <pt x="1180" y="881" on="0"/>
        <pt x="1157" y="998" on="0"/>
        <pt x="1135" y="1047" on="1"/>
        <pt x="506" y="251" on="1"/>
        <pt x="587" y="199" on="0"/>
        <pt x="698" y="199" on="1"/>
        <pt x="807" y="199" on="0"/>
        <pt x="985" y="287" on="0"/>
        <pt x="1111" y="447" on="0"/>
        <pt x="1180" y="674" on="0"/>
      </contour>
    </TTGlyph>
    <TTGlyph name="Otilde" xMin="74" yMin="-16" xMax="1446" yMax="1766">
      <component glyphName="O" x="0" y="0" flags="0x204"/>
      <component glyphName="tilde.case" x="435" y="0" flags="0x4"/>
    </TTGlyph>
    <TTGlyph name="P" xMin="77" yMin="0" xMax="1163" yMax="1446">
      <contour>
        <pt x="398" y="512" on="1"/>
        <pt x="335" y="0" on="1"/>
        <pt x="77" y="0" on="1"/>
        <pt x="254" y="1446" on="1"/>
        <pt x="694" y="1446" on="1"/>
        <pt x="817" y="1446" on="0"/>
        <pt x="994" y="1387" on="0"/>
        <pt x="1108" y="1281" on="0"/>
        <pt x="1163" y="1136" on="0"/>
        <pt x="1163" y="1049" on="1"/>
        <pt x="1163" y="933" on="0"/>
        <pt x="1090" y="736" on="0"/>
        <pt x="944" y="593" on="0"/>
        <pt x="725" y="512" on="0"/>
        <pt x="579" y="512" on="1"/>
      </contour>
      <contour>
        <pt x="489" y="1246" on="1"/>
        <pt x="423" y="714" on="1"/>
        <pt x="605" y="714" on="1"/>
        <pt x="681" y="714" on="0"/>
        <pt x="793" y="760" on="0"/>
        <pt x="867" y="843" on="0"/>
        <pt x="902" y="957" on="0"/>
        <pt x="902" y="1026" on="1"/>
        <pt x="902" y="1075" on="0"/>
        <pt x="874" y="1157" on="0"/>
        <pt x="816" y="1214" on="0"/>
        <pt x="729" y="1246" on="0"/>
        <pt x="669" y="1246" on="1"/>
      </contour>
    </TTGlyph>
    <TTGlyph name="Q" xMin="74" yMin="-284" xMax="1446" yMax="1462">
      <contour>
        <pt x="1446" y="820" on="1"/>
        <pt x="1446" y="705" on="0"/>
        <pt x="1397" y="495" on="0"/>
        <pt x="1305" y="314" on="0"/>
        <pt x="1176" y="165" on="0"/>
        <pt x="1095" y="111" on="1"/>
        <pt x="1384" y="-284" on="1"/>
        <pt x="1172" y="-284" on="1"/>
        <pt x="1125" y="-284" on="0"/>
        <pt x="1054" y="-260" on="0"/>
        <pt x="1029" y="-225" on="1"/>
        <pt x="863" y="8" on="1"/>
        <pt x="817" y="-3" on="0"/>
        <pt x="720" y="-16" on="0"/>
        <pt x="669" y="-16" on="1"/>
        <pt x="531" y="-16" on="0"/>
        <pt x="311" y="82" on="0"/>
        <pt x="156" y="254" on="0"/>
        <pt x="74" y="488" on="0"/>
        <pt x="74" y="625" on="1"/>
        <pt x="74" y="745" on="0"/>
        <pt x="127" y="962" on="0"/>
        <pt x="226" y="1148" on="0"/>
        <pt x="365" y="1298" on="0"/>
        <pt x="538" y="1405" on="0"/>
        <pt x="740" y="1462" on="0"/>
        <pt x="852" y="1462" on="1"/>
        <pt x="990" y="1462" on="0"/>
        <pt x="1210" y="1364" on="0"/>
        <pt x="1364" y="1192" on="0"/>
        <pt x="1446" y="957" on="0"/>
      </contour>
      <contour>
        <pt x="1180" y="814" on="1"/>
        <pt x="1180" y="912" on="0"/>
        <pt x="1131" y="1072" on="0"/>
        <pt x="1038" y="1186" on="0"/>
        <pt x="904" y="1248" on="0"/>
        <pt x="820" y="1248" on="1"/>
        <pt x="712" y="1248" on="0"/>
        <pt x="535" y="1160" on="0"/>
        <pt x="409" y="998" on="0"/>
        <pt x="340" y="770" on="0"/>
        <pt x="340" y="631" on="1"/>
        <pt x="340" y="533" on="0"/>
        <pt x="388" y="373" on="0"/>
        <pt x="480" y="260" on="0"/>
        <pt x="613" y="199" on="0"/>
        <pt x="698" y="199" on="1"/>
        <pt x="807" y="199" on="0"/>
        <pt x="985" y="287" on="0"/>
        <pt x="1111" y="447" on="0"/>
        <pt x="1180" y="674" on="0"/>
      </contour>
    </TTGlyph>
    <TTGlyph name="R" xMin="77" yMin="0" xMax="1136" yMax="1446">
      <contour>
        <pt x="405" y="570" on="1"/>
        <pt x="335" y="0" on="1"/>
        <pt x="77" y="0" on="1"/>
        <pt x="254" y="1446" on="1"/>
        <pt x="665" y="1446" on="1"/>
        <pt x="790" y="1446" on="0"/>
        <pt x="968" y="1393" on="0"/>
        <pt x="1082" y="1298" on="0"/>
        <pt x="1136" y="1166" on="0"/>
        <pt x="1136" y="1087" on="1"/>
        <pt x="1136" y="1003" on="0"/>
        <pt x="1089" y="856" on="0"/>
        <pt x="1001" y="736" on="0"/>
        <pt x="873" y="646" on="0"/>
        <pt x="792" y="621" on="1"/>
        <pt x="815" y="607" on="0"/>
        <pt x="853" y="567" on="0"/>
        <pt x="867" y="539" on="1"/>
        <pt x="1125" y="0" on="1"/>
        <pt x="892" y="0" on="1"/>
        <pt x="859" y="0" on="0"/>
        <pt x="814" y="27" on="0"/>
        <pt x="803" y="52" on="1"/>
        <pt x="591" y="521" on="1"/>
        <pt x="579" y="547" on="0"/>
        <pt x="544" y="570" on="0"/>
        <pt x="507" y="570" on="1"/>
      </contour>
      <contour>
        <pt x="489" y="1246" on="1"/>
        <pt x="428" y="755" on="1"/>
        <pt x="578" y="755" on="1"/>
        <pt x="656" y="755" on="0"/>
        <pt x="769" y="800" on="0"/>
        <pt x="842" y="879" on="0"/>
        <pt x="878" y="985" on="0"/>
        <pt x="878" y="1046" on="1"/>
        <pt x="878" y="1140" on="0"/>
        <pt x="762" y="1246" on="0"/>
        <pt x="641" y="1246" on="1"/>
      </contour>
    </TTGlyph>
    <TTGlyph name="S" xMin="-10" yMin="-16" xMax="1012" yMax="1461">
      <contour>
        <pt x="935" y="1186" on="1"/>
        <pt x="921" y="1166" on="0"/>
        <pt x="893" y="1147" on="0"/>
        <pt x="873" y="1147" on="1"/>
        <pt x="853" y="1147" on="0"/>
        <pt x="811" y="1179" on="0"/>
        <pt x="753" y="1218" on="0"/>
        <pt x="674" y="1250" on="0"/>
        <pt x="618" y="1250" on="1"/>
        <pt x="563" y="1250" on="0"/>
        <pt x="479" y="1218" on="0"/>
        <pt x="422" y="1162" on="0"/>
        <pt x="393" y="1086" on="0"/>
        <pt x="393" y="1042" on="1"/>
        <pt x="393" y="996" on="0"/>
        <pt x="440" y="935" on="0"/>
        <pt x="516" y="889" on="0"/>
        <pt x="614" y="853" on="0"/>
        <pt x="715" y="813" on="0"/>
        <pt x="813" y="761" on="0"/>
        <pt x="889" y="685" on="0"/>
        <pt x="936" y="578" on="0"/>
        <pt x="936" y="502" on="1"/>
        <pt x="936" y="396" on="0"/>
        <pt x="863" y="208" on="0"/>
        <pt x="726" y="67" on="0"/>
        <pt x="531" y="-16" on="0"/>
        <pt x="409" y="-16" on="1"/>
        <pt x="346" y="-16" on="0"/>
        <pt x="224" y="11" on="0"/>
        <pt x="116" y="61" on="0"/>
        <pt x="24" y="131" on="0"/>
        <pt x="-10" y="174" on="1"/>
        <pt x="82" y="298" on="1"/>
        <pt x="93" y="312" on="0"/>
        <pt x="127" y="330" on="0"/>
        <pt x="144" y="330" on="1"/>
        <pt x="160" y="330" on="0"/>
        <pt x="191" y="310" on="0"/>
        <pt x="228" y="281" on="0"/>
        <pt x="271" y="246" on="0"/>
        <pt x="327" y="217" on="0"/>
        <pt x="397" y="197" on="0"/>
        <pt x="443" y="197" on="1"/>
        <pt x="556" y="197" on="0"/>
        <pt x="684" y="325" on="0"/>
        <pt x="684" y="438" on="1"/>
        <pt x="684" y="488" on="0"/>
        <pt x="638" y="552" on="0"/>
        <pt x="562" y="596" on="0"/>
        <pt x="466" y="629" on="0"/>
        <pt x="365" y="666" on="0"/>
        <pt x="269" y="715" on="0"/>
        <pt x="193" y="792" on="0"/>
        <pt x="147" y="904" on="0"/>
        <pt x="147" y="986" on="1"/>
        <pt x="147" y="1079" on="0"/>
        <pt x="216" y="1251" on="0"/>
        <pt x="344" y="1382" on="0"/>
        <pt x="527" y="1461" on="0"/>
        <pt x="642" y="1461" on="1"/>
        <pt x="701" y="1461" on="0"/>
        <pt x="810" y="1437" on="0"/>
        <pt x="904" y="1393" on="0"/>
        <pt x="983" y="1332" on="0"/>
        <pt x="1012" y="1295" on="1"/>
      </contour>
    </TTGlyph>
    <TTGlyph name="Sacute" xMin="-10" yMin="-16" xMax="1077" yMax="1789">
      <component glyphName="S" x="0" y="0" flags="0x204"/>
      <component glyphName="acute.case" x="245" y="0" flags="0x4"/>
    </TTGlyph>
    <TTGlyph name="Scaron" xMin="-10" yMin="-16" xMax="1027" yMax="1767">
      <component glyphName="S" x="0" y="0" flags="0x204"/>
      <component glyphName="caron.case" x="234" y="0" flags="0x4"/>
    </TTGlyph>
    <TTGlyph name="T" xMin="113" yMin="0" xMax="1192" yMax="1446">
      <contour>
        <pt x="1192" y="1446" on="1"/>
        <pt x="1165" y="1233" on="1"/>
        <pt x="769" y="1233" on="1"/>
        <pt x="617" y="0" on="1"/>
        <pt x="359" y="0" on="1"/>
        <pt x="510" y="1233" on="1"/>
        <pt x="113" y="1233" on="1"/>
        <pt x="139" y="1446" on="1"/>
      </contour>
    </TTGlyph>
    <TTGlyph name="Thorn" xMin="137" yMin="0" xMax="1193" yMax="1446">
      <contour>
        <pt x="543" y="1194" on="1"/>
        <pt x="725" y="1194" on="1"/>
        <pt x="846" y="1194" on="0"/>
        <pt x="1023" y="1135" on="0"/>
        <pt x="1138" y="1030" on="0"/>
        <pt x="1193" y="885" on="0"/>
        <pt x="1193" y="799" on="1"/>
        <pt x="1193" y="682" on="0"/>
        <pt x="1120" y="486" on="0"/>
        <pt x="973" y="343" on="0"/>
        <pt x="754" y="263" on="0"/>
        <pt x="609" y="263" on="1"/>
        <pt x="427" y="263" on="1"/>
        <pt x="395" y="0" on="1"/>
        <pt x="137" y="0" on="1"/>
        <pt x="314" y="1446" on="1"/>
        <pt x="574" y="1446" on="1"/>
      </contour>
      <contour>
        <pt x="518" y="993" on="1"/>
        <pt x="452" y="464" on="1"/>
        <pt x="635" y="464" on="1"/>
        <pt x="712" y="464" on="0"/>
        <pt x="824" y="510" on="0"/>
        <pt x="897" y="593" on="0"/>
        <pt x="932" y="708" on="0"/>
        <pt x="932" y="777" on="1"/>
        <pt x="932" y="826" on="0"/>
        <pt x="904" y="906" on="0"/>
        <pt x="846" y="962" on="0"/>
        <pt x="759" y="993" on="0"/>
        <pt x="699" y="993" on="1"/>
      </contour>
    </TTGlyph>
    <TTGlyph name="U" xMin="119" yMin="-16" xMax="1343" yMax="1446">
      <contour>
        <pt x="635" y="208" on="1"/>
        <pt x="705" y="208" on="0"/>
        <pt x="822" y="261" on="0"/>
        <pt x="910" y="358" on="0"/>
        <pt x="967" y="494" on="0"/>
        <pt x="977" y="577" on="1"/>
        <pt x="1084" y="1446" on="1"/>
        <pt x="1343" y="1446" on="1"/>
        <pt x="1237" y="577" on="1"/>
        <pt x="1221" y="449" on="0"/>
        <pt x="1117" y="231" on="0"/>
        <pt x="954" y="73" on="0"/>
        <pt x="737" y="-16" on="0"/>
        <pt x="608" y="-16" on="1"/>
        <pt x="491" y="-16" on="0"/>
        <pt x="309" y="57" on="0"/>
        <pt x="184" y="189" on="0"/>
        <pt x="119" y="372" on="0"/>
        <pt x="119" y="482" on="1"/>
        <pt x="119" y="527" on="0"/>
        <pt x="125" y="577" on="1"/>
        <pt x="230" y="1446" on="1"/>
        <pt x="490" y="1446" on="1"/>
        <pt x="383" y="578" on="1"/>
        <pt x="381" y="559" on="0"/>
        <pt x="379" y="523" on="0"/>
        <pt x="379" y="506" on="1"/>
        <pt x="379" y="438" on="0"/>
        <pt x="412" y="328" on="0"/>
        <pt x="477" y="250" on="0"/>
        <pt x="573" y="208" on="0"/>
      </contour>
    </TTGlyph>
    <TTGlyph name="Uacute" xMin="119" yMin="-16" xMax="1343" yMax="1788">
      <component glyphName="U" x="0" y="0" flags="0x204"/>
      <component glyphName="acute.case" x="376" y="-1" flags="0x4"/>
    </TTGlyph>
    <TTGlyph name="Ucircumflex" xMin="119" yMin="-16" xMax="1343" yMax="1766">
      <component glyphName="U" x="0" y="0" flags="0x204"/>
      <component glyphName="circumflex.case" x="376" y="-1" flags="0x4"/>
    </TTGlyph>
    <TTGlyph name="Udieresis" xMin="119" yMin="-16" xMax="1343" yMax="1787">
      <component glyphName="U" x="0" y="0" flags="0x204"/>
      <component glyphName="dieresis.case" x="376" y="-1" flags="0x4"/>
    </TTGlyph>
    <TTGlyph name="Ugrave" xMin="119" yMin="-16" xMax="1343" yMax="1788">
      <component glyphName="U" x="0" y="0" flags="0x204"/>
      <component glyphName="grave.case" x="376" y="-1" flags="0x4"/>
    </TTGlyph>
    <TTGlyph name="V" xMin="121" yMin="0" xMax="1430" yMax="1446">
      <contour>
        <pt x="121" y="1446" on="1"/>
        <pt x="329" y="1446" on="1"/>
        <pt x="363" y="1446" on="0"/>
        <pt x="403" y="1413" on="0"/>
        <pt x="408" y="1387" on="1"/>
        <pt x="601" y="486" on="1"/>
        <pt x="611" y="439" on="0"/>
        <pt x="629" y="344" on="0"/>
        <pt x="637" y="290" on="1"/>
        <pt x="654" y="344" on="0"/>
        <pt x="696" y="443" on="0"/>
        <pt x="716" y="486" on="1"/>
        <pt x="1127" y="1387" on="1"/>
        <pt x="1137" y="1409" on="0"/>
        <pt x="1188" y="1446" on="0"/>
        <pt x="1220" y="1446" on="1"/>
        <pt x="1430" y="1446" on="1"/>
        <pt x="716" y="0" on="1"/>
        <pt x="480" y="0" on="1"/>
      </contour>
    </TTGlyph>
    <TTGlyph name="W" xMin="128" yMin="0" xMax="2041" yMax="1446">
      <contour>
        <pt x="128" y="1446" on="1"/>
        <pt x="332" y="1446" on="1"/>
        <pt x="366" y="1446" on="0"/>
        <pt x="407" y="1413" on="0"/>
        <pt x="411" y="1387" on="1"/>
        <pt x="538" y="500" on="1"/>
        <pt x="543" y="468" on="0"/>
        <pt x="546" y="394" on="0"/>
        <pt x="548" y="353" on="1"/>
        <pt x="574" y="435" on="0"/>
        <pt x="601" y="500" on="1"/>
        <pt x="961" y="1387" on="1"/>
        <pt x="970" y="1409" on="0"/>
        <pt x="1021" y="1446" on="0"/>
        <pt x="1053" y="1446" on="1"/>
        <pt x="1113" y="1446" on="1"/>
        <pt x="1147" y="1446" on="0"/>
        <pt x="1189" y="1413" on="0"/>
        <pt x="1194" y="1387" on="1"/>
        <pt x="1338" y="500" on="1"/>
        <pt x="1343" y="468" on="0"/>
        <pt x="1352" y="396" on="0"/>
        <pt x="1354" y="357" on="1"/>
        <pt x="1365" y="396" on="0"/>
        <pt x="1387" y="469" on="0"/>
        <pt x="1399" y="500" on="1"/>
        <pt x="1742" y="1387" on="1"/>
        <pt x="1751" y="1410" on="0"/>
        <pt x="1804" y="1446" on="0"/>
        <pt x="1836" y="1446" on="1"/>
        <pt x="2041" y="1446" on="1"/>
        <pt x="1450" y="0" on="1"/>
        <pt x="1215" y="0" on="1"/>
        <pt x="1052" y="1002" on="1"/>
        <pt x="1049" y="1021" on="0"/>
        <pt x="1042" y="1066" on="0"/>
        <pt x="1040" y="1091" on="1"/>
        <pt x="1032" y="1066" on="0"/>
        <pt x="1015" y="1021" on="0"/>
        <pt x="1007" y="1002" on="1"/>
        <pt x="598" y="0" on="1"/>
        <pt x="364" y="0" on="1"/>
      </contour>
    </TTGlyph>
    <TTGlyph name="X" xMin="-73" yMin="0" xMax="1335" yMax="1446">
      <contour>
        <pt x="485" y="772" on="1"/>
        <pt x="160" y="1446" on="1"/>
        <pt x="395" y="1446" on="1"/>
        <pt x="421" y="1446" on="0"/>
        <pt x="444" y="1431" on="0"/>
        <pt x="452" y="1413" on="1"/>
        <pt x="674" y="914" on="1"/>
        <pt x="684" y="935" on="0"/>
        <pt x="698" y="956" on="1"/>
        <pt x="1005" y="1410" on="1"/>
        <pt x="1029" y="1446" on="0"/>
        <pt x="1064" y="1446" on="1"/>
        <pt x="1335" y="1446" on="1"/>
        <pt x="843" y="784" on="1"/>
        <pt x="1206" y="0" on="1"/>
        <pt x="974" y="0" on="1"/>
        <pt x="948" y="0" on="0"/>
        <pt x="919" y="28" on="0"/>
        <pt x="911" y="45" on="1"/>
        <pt x="660" y="624" on="1"/>
        <pt x="655" y="616" on="0"/>
        <pt x="646" y="600" on="0"/>
        <pt x="641" y="592" on="1"/>
        <pt x="267" y="45" on="1"/>
        <pt x="250" y="20" on="0"/>
        <pt x="210" y="0" on="0"/>
        <pt x="186" y="0" on="1"/>
        <pt x="-73" y="0" on="1"/>
      </contour>
    </TTGlyph>
    <TTGlyph name="Y" xMin="109" yMin="0" xMax="1338" yMax="1446">
      <contour>
        <pt x="745" y="563" on="1"/>
        <pt x="675" y="0" on="1"/>
        <pt x="415" y="0" on="1"/>
        <pt x="485" y="564" on="1"/>
        <pt x="109" y="1446" on="1"/>
        <pt x="340" y="1446" on="1"/>
        <pt x="374" y="1446" on="0"/>
        <pt x="410" y="1413" on="0"/>
        <pt x="420" y="1387" on="1"/>
        <pt x="607" y="887" on="1"/>
        <pt x="621" y="851" on="0"/>
        <pt x="638" y="782" on="0"/>
        <pt x="644" y="749" on="1"/>
        <pt x="660" y="782" on="0"/>
        <pt x="697" y="850" on="0"/>
        <pt x="720" y="887" on="1"/>
        <pt x="1031" y="1387" on="1"/>
        <pt x="1045" y="1410" on="0"/>
        <pt x="1090" y="1446" on="0"/>
        <pt x="1123" y="1446" on="1"/>
        <pt x="1338" y="1446" on="1"/>
      </contour>
    </TTGlyph>
    <TTGlyph name="Yacute" xMin="109" yMin="0" xMax="1338" yMax="1787">
      <component glyphName="Y" x="0" y="0" flags="0x204"/>
      <component glyphName="acute.case" x="334" y="-2" flags="0x4"/>
    </TTGlyph>
    <TTGlyph name="Ydieresis" xMin="109" yMin="0" xMax="1338" yMax="1786">
      <component glyphName="Y" x="0" y="0" flags="0x204"/>
      <component glyphName="dieresis.case" x="334" y="-2" flags="0x4"/>
    </TTGlyph>
    <TTGlyph name="Z" xMin="-7" yMin="0" xMax="1204" yMax="1446">
      <contour>
        <pt x="1204" y="1446" on="1"/>
        <pt x="1193" y="1365" on="1"/>
        <pt x="1191" y="1348" on="0"/>
        <pt x="1175" y="1318" on="0"/>
        <pt x="1164" y="1303" on="1"/>
        <pt x="365" y="207" on="1"/>
        <pt x="1035" y="207" on="1"/>
        <pt x="1009" y="0" on="1"/>
        <pt x="-7" y="0" on="1"/>
        <pt x="3" y="79" on="1"/>
        <pt x="5" y="96" on="0"/>
        <pt x="20" y="127" on="0"/>
        <pt x="31" y="141" on="1"/>
        <pt x="832" y="1239" on="1"/>
        <pt x="190" y="1239" on="1"/>
        <pt x="215" y="1446" on="1"/>
      </contour>
    </TTGlyph>
    <TTGlyph name="Zacute" xMin="-7" yMin="0" xMax="1204" yMax="1788">
      <component glyphName="Z" x="0" y="0" flags="0x204"/>
      <component glyphName="acute.case" x="301" y="-1" flags="0x4"/>
    </TTGlyph>
    <TTGlyph name="Zcaron" xMin="-7" yMin="0" xMax="1204" yMax="1766">
      <component glyphName="Z" x="0" y="0" flags="0x204"/>
      <component glyphName="caron.case" x="301" y="-1" flags="0x4"/>
    </TTGlyph>
    <TTGlyph name="Zdotaccent" xMin="-7" yMin="0" xMax="1204" yMax="1846">
      <component glyphName="Z" x="0" y="0" flags="0x204"/>
      <component glyphName="dotaccent.case" x="301" y="-1" flags="0x4"/>
    </TTGlyph>
    <TTGlyph name="a" xMin="38" yMin="-15" xMax="982" yMax="1041">
      <contour>
        <pt x="858" y="0" on="1"/>
        <pt x="728" y="0" on="1"/>
        <pt x="683" y="0" on="0"/>
        <pt x="647" y="42" on="0"/>
        <pt x="647" y="74" on="1"/>
        <pt x="655" y="214" on="1"/>
        <pt x="587" y="108" on="0"/>
        <pt x="417" y="-15" on="0"/>
        <pt x="315" y="-15" on="1"/>
        <pt x="257" y="-15" on="0"/>
        <pt x="156" y="31" on="0"/>
        <pt x="81" y="122" on="0"/>
        <pt x="38" y="259" on="0"/>
        <pt x="38" y="351" on="1"/>
        <pt x="38" y="443" on="0"/>
        <pt x="84" y="617" on="0"/>
        <pt x="169" y="770" on="0"/>
        <pt x="289" y="898" on="0"/>
        <pt x="438" y="990" on="0"/>
        <pt x="611" y="1041" on="0"/>
        <pt x="707" y="1041" on="1"/>
        <pt x="776" y="1041" on="0"/>
        <pt x="915" y="1021" on="0"/>
        <pt x="982" y="995" on="1"/>
      </contour>
      <contour>
        <pt x="412" y="187" on="1"/>
        <pt x="453" y="187" on="0"/>
        <pt x="532" y="243" on="0"/>
        <pt x="602" y="342" on="0"/>
        <pt x="662" y="476" on="0"/>
        <pt x="684" y="553" on="1"/>
        <pt x="723" y="863" on="1"/>
        <pt x="696" y="866" on="0"/>
        <pt x="673" y="866" on="1"/>
        <pt x="590" y="866" on="0"/>
        <pt x="448" y="790" on="0"/>
        <pt x="344" y="661" on="0"/>
        <pt x="285" y="490" on="0"/>
        <pt x="285" y="395" on="1"/>
        <pt x="285" y="287" on="0"/>
        <pt x="353" y="187" on="0"/>
      </contour>
    </TTGlyph>
    <TTGlyph name="aacute" xMin="38" yMin="-15" xMax="1040" yMax="1461">
      <component glyphName="a" x="0" y="0" flags="0x204"/>
      <component glyphName="acute" x="298" y="0" flags="0x4"/>
    </TTGlyph>
    <TTGlyph name="acircumflex" xMin="38" yMin="-15" xMax="996" yMax="1445">
      <component glyphName="a" x="0" y="0" flags="0x204"/>
      <component glyphName="circumflex" x="294" y="0" flags="0x4"/>
    </TTGlyph>
    <TTGlyph name="acute" xMin="255" yMin="1166" xMax="742" yMax="1461">
      <contour>
        <pt x="742" y="1461" on="1"/>
        <pt x="480" y="1200" on="1"/>
        <pt x="460" y="1180" on="0"/>
        <pt x="424" y="1166" on="0"/>
        <pt x="397" y="1166" on="1"/>
        <pt x="255" y="1166" on="1"/>
        <pt x="415" y="1409" on="1"/>
        <pt x="432" y="1435" on="0"/>
        <pt x="473" y="1461" on="0"/>
        <pt x="511" y="1461" on="1"/>
      </contour>
    </TTGlyph>
    <TTGlyph name="acute.case" xMin="262" yMin="1549" xMax="832" yMax="1789">
      <contour>
        <pt x="832" y="1789" on="1"/>
        <pt x="548" y="1583" on="1"/>
        <pt x="525" y="1566" on="0"/>
        <pt x="481" y="1549" on="0"/>
        <pt x="455" y="1549" on="1"/>
        <pt x="262" y="1549" on="1"/>
        <pt x="466" y="1751" on="1"/>
        <pt x="478" y="1763" on="0"/>
        <pt x="499" y="1778" on="0"/>
        <pt x="522" y="1786" on="0"/>
        <pt x="549" y="1789" on="0"/>
        <pt x="569" y="1789" on="1"/>
      </contour>
    </TTGlyph>
    <TTGlyph name="adieresis" xMin="38" yMin="-15" xMax="1016" yMax="1454">
      <component glyphName="a" x="0" y="0" flags="0x204"/>
      <component glyphName="dieresis" x="294" y="0" flags="0x4"/>
    </TTGlyph>
    <TTGlyph name="ae" xMin="15" yMin="-16" xMax="1434" yMax="1044">
      <contour>
        <pt x="1119" y="1041" on="1"/>
        <pt x="1183" y="1041" on="0"/>
        <pt x="1293" y="1000" on="0"/>
        <pt x="1374" y="928" on="0"/>
        <pt x="1420" y="832" on="0"/>
        <pt x="1420" y="778" on="1"/>
        <pt x="1420" y="741" on="0"/>
        <pt x="1399" y="666" on="0"/>
        <pt x="1348" y="597" on="0"/>
        <pt x="1262" y="536" on="0"/>
        <pt x="1131" y="489" on="0"/>
        <pt x="949" y="459" on="0"/>
        <pt x="829" y="456" on="1"/>
        <pt x="829" y="310" on="0"/>
        <pt x="937" y="176" on="0"/>
        <pt x="1034" y="176" on="1"/>
        <pt x="1101" y="176" on="0"/>
        <pt x="1187" y="211" on="0"/>
        <pt x="1249" y="253" on="0"/>
        <pt x="1298" y="288" on="0"/>
        <pt x="1327" y="288" on="1"/>
        <pt x="1339" y="288" on="0"/>
        <pt x="1363" y="277" on="0"/>
        <pt x="1371" y="266" on="1"/>
        <pt x="1434" y="190" on="1"/>
        <pt x="1381" y="137" on="0"/>
        <pt x="1280" y="59" on="0"/>
        <pt x="1173" y="9" on="0"/>
        <pt x="1055" y="-15" on="0"/>
        <pt x="985" y="-15" on="1"/>
        <pt x="888" y="-15" on="0"/>
        <pt x="728" y="83" on="0"/>
        <pt x="682" y="185" on="1"/>
        <pt x="648" y="132" on="0"/>
        <pt x="561" y="56" on="0"/>
        <pt x="464" y="7" on="0"/>
        <pt x="361" y="-16" on="0"/>
        <pt x="312" y="-16" on="1"/>
        <pt x="164" y="-16" on="0"/>
        <pt x="15" y="111" on="0"/>
        <pt x="15" y="231" on="1"/>
        <pt x="15" y="298" on="0"/>
        <pt x="73" y="428" on="0"/>
        <pt x="213" y="533" on="0"/>
        <pt x="447" y="602" on="0"/>
        <pt x="622" y="607" on="1"/>
        <pt x="627" y="652" on="0"/>
        <pt x="630" y="689" on="0"/>
        <pt x="630" y="701" on="1"/>
        <pt x="630" y="779" on="0"/>
        <pt x="564" y="854" on="0"/>
        <pt x="500" y="854" on="1"/>
        <pt x="446" y="854" on="0"/>
        <pt x="371" y="825" on="0"/>
        <pt x="312" y="791" on="0"/>
        <pt x="263" y="762" on="0"/>
        <pt x="234" y="762" on="1"/>
        <pt x="210" y="762" on="0"/>
        <pt x="178" y="786" on="0"/>
        <pt x="170" y="805" on="1"/>
        <pt x="137" y="882" on="1"/>
        <pt x="228" y="963" on="0"/>
        <pt x="418" y="1044" on="0"/>
        <pt x="527" y="1044" on="1"/>
        <pt x="632" y="1044" on="0"/>
        <pt x="757" y="961" on="0"/>
        <pt x="785" y="888" on="1"/>
        <pt x="847" y="960" on="0"/>
        <pt x="1014" y="1041" on="0"/>
      </contour>
      <contour>
        <pt x="603" y="461" on="1"/>
        <pt x="498" y="456" on="0"/>
        <pt x="360" y="423" on="0"/>
        <pt x="278" y="370" on="0"/>
        <pt x="245" y="301" on="0"/>
        <pt x="245" y="261" on="1"/>
        <pt x="245" y="204" on="0"/>
        <pt x="304" y="147" on="0"/>
        <pt x="358" y="147" on="1"/>
        <pt x="402" y="147" on="0"/>
        <pt x="482" y="178" on="0"/>
        <pt x="545" y="244" on="0"/>
        <pt x="589" y="345" on="0"/>
        <pt x="598" y="415" on="1"/>
      </contour>
      <contour>
        <pt x="1088" y="869" on="1"/>
        <pt x="1036" y="869" on="0"/>
        <pt x="954" y="830" on="0"/>
        <pt x="892" y="759" on="0"/>
        <pt x="851" y="659" on="0"/>
        <pt x="840" y="597" on="1"/>
        <pt x="952" y="606" on="0"/>
        <pt x="1094" y="639" on="0"/>
        <pt x="1175" y="683" on="0"/>
        <pt x="1205" y="737" on="0"/>
        <pt x="1205" y="766" on="1"/>
        <pt x="1205" y="811" on="0"/>
        <pt x="1148" y="869" on="0"/>
      </contour>
    </TTGlyph>
    <TTGlyph name="agrave" xMin="38" yMin="-15" xMax="982" yMax="1461">
      <component glyphName="a" x="0" y="0" flags="0x204"/>
      <component glyphName="grave" x="379" y="0" flags="0x4"/>
    </TTGlyph>
    <TTGlyph name="ampersand" xMin="41" yMin="-16" xMax="1263" yMax="1461">
      <contour>
        <pt x="728" y="1461" on="1"/>
        <pt x="804" y="1461" on="0"/>
        <pt x="928" y="1415" on="0"/>
        <pt x="1015" y="1331" on="0"/>
        <pt x="1063" y="1213" on="0"/>
        <pt x="1063" y="1140" on="1"/>
        <pt x="921" y="1112" on="1"/>
        <pt x="907" y="1109" on="0"/>
        <pt x="897" y="1109" on="1"/>
        <pt x="861" y="1109" on="0"/>
        <pt x="851" y="1149" on="1"/>
        <pt x="844" y="1177" on="0"/>
        <pt x="820" y="1224" on="0"/>
        <pt x="784" y="1259" on="0"/>
        <pt x="737" y="1279" on="0"/>
        <pt x="706" y="1279" on="1"/>
        <pt x="664" y="1279" on="0"/>
        <pt x="597" y="1245" on="0"/>
        <pt x="550" y="1186" on="0"/>
        <pt x="525" y="1107" on="0"/>
        <pt x="525" y="1062" on="1"/>
        <pt x="525" y="1014" on="0"/>
        <pt x="560" y="911" on="0"/>
        <pt x="603" y="855" on="1"/>
        <pt x="899" y="471" on="1"/>
        <pt x="932" y="531" on="0"/>
        <pt x="979" y="661" on="0"/>
        <pt x="992" y="730" on="1"/>
        <pt x="997" y="753" on="0"/>
        <pt x="1020" y="781" on="0"/>
        <pt x="1045" y="781" on="1"/>
        <pt x="1212" y="781" on="1"/>
        <pt x="1195" y="648" on="0"/>
        <pt x="1098" y="408" on="0"/>
        <pt x="1025" y="308" on="1"/>
        <pt x="1263" y="0" on="1"/>
        <pt x="1056" y="0" on="1"/>
        <pt x="1027" y="0" on="0"/>
        <pt x="986" y="7" on="0"/>
        <pt x="953" y="24" on="0"/>
        <pt x="926" y="50" on="0"/>
        <pt x="911" y="69" on="1"/>
        <pt x="859" y="137" on="1"/>
        <pt x="766" y="65" on="0"/>
        <pt x="552" y="-16" on="0"/>
        <pt x="435" y="-16" on="1"/>
        <pt x="343" y="-16" on="0"/>
        <pt x="197" y="35" on="0"/>
        <pt x="95" y="130" on="0"/>
        <pt x="41" y="265" on="0"/>
        <pt x="41" y="349" on="1"/>
        <pt x="41" y="426" on="0"/>
        <pt x="90" y="563" on="0"/>
        <pt x="177" y="678" on="0"/>
        <pt x="296" y="770" on="0"/>
        <pt x="365" y="802" on="1"/>
        <pt x="333" y="865" on="0"/>
        <pt x="303" y="989" on="0"/>
        <pt x="303" y="1046" on="1"/>
        <pt x="303" y="1131" on="0"/>
        <pt x="363" y="1282" on="0"/>
        <pt x="473" y="1395" on="0"/>
        <pt x="630" y="1461" on="0"/>
      </contour>
      <contour>
        <pt x="286" y="381" on="1"/>
        <pt x="286" y="284" on="0"/>
        <pt x="389" y="174" on="0"/>
        <pt x="486" y="174" on="1"/>
        <pt x="558" y="174" on="0"/>
        <pt x="690" y="231" on="0"/>
        <pt x="748" y="282" on="1"/>
        <pt x="452" y="673" on="1"/>
        <pt x="363" y="615" on="0"/>
        <pt x="286" y="466" on="0"/>
      </contour>
    </TTGlyph>
    <TTGlyph name="aogonek" xMin="38" yMin="-345" xMax="982" yMax="1041">
      <contour>
        <pt x="845" y="-190" on="1"/>
        <pt x="863" y="-190" on="0"/>
        <pt x="866" y="-206" on="1"/>
        <pt x="890" y="-294" on="1"/>
        <pt x="858" y="-316" on="0"/>
        <pt x="762" y="-345" on="0"/>
        <pt x="711" y="-345" on="1"/>
        <pt x="626" y="-345" on="0"/>
        <pt x="538" y="-271" on="0"/>
        <pt x="538" y="-214" on="1"/>
        <pt x="538" y="-154" on="0"/>
        <pt x="620" y="-42" on="0"/>
        <pt x="698" y="3" on="1"/>
        <pt x="669" y="11" on="0"/>
        <pt x="647" y="53" on="0"/>
        <pt x="647" y="82" on="1"/>
        <pt x="655" y="214" on="1"/>
        <pt x="587" y="108" on="0"/>
        <pt x="417" y="-15" on="0"/>
        <pt x="315" y="-15" on="1"/>
        <pt x="257" y="-15" on="0"/>
        <pt x="156" y="31" on="0"/>
        <pt x="81" y="122" on="0"/>
        <pt x="38" y="259" on="0"/>
        <pt x="38" y="351" on="1"/>
        <pt x="38" y="443" on="0"/>
        <pt x="84" y="617" on="0"/>
        <pt x="169" y="770" on="0"/>
        <pt x="289" y="898" on="0"/>
        <pt x="438" y="990" on="0"/>
        <pt x="611" y="1041" on="0"/>
        <pt x="707" y="1041" on="1"/>
        <pt x="776" y="1041" on="0"/>
        <pt x="915" y="1021" on="0"/>
        <pt x="982" y="995" on="1"/>
        <pt x="858" y="0" on="1"/>
        <pt x="835" y="0" on="1"/>
        <pt x="814" y="-11" on="0"/>
        <pt x="773" y="-42" on="0"/>
        <pt x="742" y="-80" on="0"/>
        <pt x="722" y="-124" on="0"/>
        <pt x="722" y="-148" on="1"/>
        <pt x="722" y="-174" on="0"/>
        <pt x="751" y="-206" on="0"/>
        <pt x="777" y="-206" on="1"/>
        <pt x="794" y="-206" on="0"/>
        <pt x="816" y="-201" on="0"/>
        <pt x="831" y="-195" on="0"/>
        <pt x="840" y="-190" on="0"/>
      </contour>
      <contour>
        <pt x="412" y="187" on="1"/>
        <pt x="453" y="187" on="0"/>
        <pt x="532" y="243" on="0"/>
        <pt x="602" y="342" on="0"/>
        <pt x="662" y="476" on="0"/>
        <pt x="684" y="553" on="1"/>
        <pt x="723" y="863" on="1"/>
        <pt x="696" y="866" on="0"/>
        <pt x="673" y="866" on="1"/>
        <pt x="590" y="866" on="0"/>
        <pt x="448" y="790" on="0"/>
        <pt x="344" y="661" on="0"/>
        <pt x="285" y="490" on="0"/>
        <pt x="285" y="395" on="1"/>
        <pt x="285" y="287" on="0"/>
        <pt x="353" y="187" on="0"/>
      </contour>
    </TTGlyph>
    <TTGlyph name="approxequal" xMin="165" yMin="358" xMax="1040" yMax="991">
      <contour>
        <pt x="841" y="891" on="1"/>
        <pt x="872" y="891" on="0"/>
        <pt x="932" y="905" on="0"/>
        <pt x="983" y="926" on="0"/>
        <pt x="1021" y="949" on="0"/>
        <pt x="1030" y="958" on="1"/>
        <pt x="1040" y="808" on="1"/>
        <pt x="995" y="757" on="0"/>
        <pt x="869" y="711" on="0"/>
        <pt x="803" y="711" on="1"/>
        <pt x="750" y="711" on="0"/>
        <pt x="649" y="743" on="0"/>
        <pt x="553" y="780" on="0"/>
        <pt x="461" y="812" on="0"/>
        <pt x="418" y="812" on="1"/>
        <pt x="386" y="812" on="0"/>
        <pt x="324" y="797" on="0"/>
        <pt x="273" y="776" on="0"/>
        <pt x="235" y="750" on="0"/>
        <pt x="226" y="740" on="1"/>
        <pt x="208" y="886" on="1"/>
        <pt x="253" y="940" on="0"/>
        <pt x="385" y="991" on="0"/>
        <pt x="456" y="991" on="1"/>
        <pt x="508" y="991" on="0"/>
        <pt x="609" y="960" on="0"/>
        <pt x="706" y="922" on="0"/>
        <pt x="797" y="891" on="0"/>
      </contour>
      <contour>
        <pt x="797" y="537" on="1"/>
        <pt x="828" y="537" on="0"/>
        <pt x="889" y="551" on="0"/>
        <pt x="940" y="572" on="0"/>
        <pt x="978" y="595" on="0"/>
        <pt x="986" y="604" on="1"/>
        <pt x="996" y="453" on="1"/>
        <pt x="952" y="403" on="0"/>
        <pt x="825" y="358" on="0"/>
        <pt x="760" y="358" on="1"/>
        <pt x="707" y="358" on="0"/>
        <pt x="606" y="389" on="0"/>
        <pt x="510" y="426" on="0"/>
        <pt x="418" y="457" on="0"/>
        <pt x="374" y="457" on="1"/>
        <pt x="342" y="457" on="0"/>
        <pt x="280" y="443" on="0"/>
        <pt x="229" y="422" on="0"/>
        <pt x="191" y="397" on="0"/>
        <pt x="183" y="387" on="1"/>
        <pt x="165" y="532" on="1"/>
        <pt x="210" y="587" on="0"/>
        <pt x="341" y="638" on="0"/>
        <pt x="412" y="638" on="1"/>
        <pt x="465" y="638" on="0"/>
        <pt x="567" y="606" on="0"/>
        <pt x="663" y="569" on="0"/>
        <pt x="754" y="537" on="0"/>
      </contour>
    </TTGlyph>
    <TTGlyph name="aring" xMin="38" yMin="-15" xMax="982" yMax="1531">
      <component glyphName="a" x="0" y="0" flags="0x204"/>
      <component glyphName="ring" x="314" y="0" flags="0x4"/>
    </TTGlyph>
    <TTGlyph name="asciicircum" xMin="176" yMin="777" xMax="1082" yMax="1446">
      <contour>
        <pt x="1082" y="777" on="1"/>
        <pt x="901" y="777" on="1"/>
        <pt x="878" y="777" on="0"/>
        <pt x="849" y="801" on="0"/>
        <pt x="839" y="818" on="1"/>
        <pt x="681" y="1107" on="1"/>
        <pt x="666" y="1135" on="0"/>
        <pt x="641" y="1186" on="0"/>
        <pt x="632" y="1211" on="1"/>
        <pt x="624" y="1185" on="0"/>
        <pt x="602" y="1134" on="0"/>
        <pt x="587" y="1107" on="1"/>
        <pt x="432" y="818" on="1"/>
        <pt x="423" y="801" on="0"/>
        <pt x="392" y="777" on="0"/>
        <pt x="366" y="777" on="1"/>
        <pt x="176" y="777" on="1"/>
        <pt x="549" y="1446" on="1"/>
        <pt x="709" y="1446" on="1"/>
      </contour>
    </TTGlyph>
    <TTGlyph name="asciitilde" xMin="38" yMin="398" xMax="1002" yMax="785">
      <contour>
        <pt x="685" y="648" on="1"/>
        <pt x="741" y="648" on="0"/>
        <pt x="803" y="720" on="0"/>
        <pt x="803" y="785" on="1"/>
        <pt x="1002" y="785" on="1"/>
        <pt x="1002" y="708" on="0"/>
        <pt x="961" y="583" on="0"/>
        <pt x="884" y="494" on="0"/>
        <pt x="772" y="446" on="0"/>
        <pt x="700" y="446" on="1"/>
        <pt x="647" y="446" on="0"/>
        <pt x="550" y="474" on="0"/>
        <pt x="463" y="507" on="0"/>
        <pt x="387" y="535" on="0"/>
        <pt x="355" y="535" on="1"/>
        <pt x="299" y="535" on="0"/>
        <pt x="237" y="463" on="0"/>
        <pt x="237" y="398" on="1"/>
        <pt x="38" y="398" on="1"/>
        <pt x="38" y="475" on="0"/>
        <pt x="79" y="600" on="0"/>
        <pt x="156" y="689" on="0"/>
        <pt x="268" y="737" on="0"/>
        <pt x="340" y="737" on="1"/>
        <pt x="393" y="737" on="0"/>
        <pt x="490" y="709" on="0"/>
        <pt x="577" y="676" on="0"/>
        <pt x="653" y="648" on="0"/>
      </contour>
    </TTGlyph>
    <TTGlyph name="asterisk" xMin="131" yMin="840" xMax="762" yMax="1514">
      <contour>
        <pt x="348" y="840" on="1"/>
        <pt x="371" y="1024" on="1"/>
        <pt x="373" y="1044" on="0"/>
        <pt x="382" y="1079" on="0"/>
        <pt x="390" y="1096" on="1"/>
        <pt x="377" y="1083" on="0"/>
        <pt x="347" y="1064" on="0"/>
        <pt x="330" y="1053" on="1"/>
        <pt x="175" y="959" on="1"/>
        <pt x="131" y="1056" on="1"/>
        <pt x="286" y="1149" on="1"/>
        <pt x="305" y="1160" on="0"/>
        <pt x="342" y="1175" on="0"/>
        <pt x="361" y="1177" on="1"/>
        <pt x="323" y="1183" on="0"/>
        <pt x="293" y="1205" on="1"/>
        <pt x="160" y="1299" on="1"/>
        <pt x="228" y="1396" on="1"/>
        <pt x="361" y="1301" on="1"/>
        <pt x="375" y="1290" on="0"/>
        <pt x="402" y="1269" on="0"/>
        <pt x="411" y="1255" on="1"/>
        <pt x="408" y="1265" on="0"/>
        <pt x="406" y="1285" on="0"/>
        <pt x="406" y="1296" on="1"/>
        <pt x="406" y="1304" on="0"/>
        <pt x="407" y="1320" on="0"/>
        <pt x="408" y="1328" on="1"/>
        <pt x="431" y="1514" on="1"/>
        <pt x="545" y="1514" on="1"/>
        <pt x="522" y="1330" on="1"/>
        <pt x="520" y="1310" on="0"/>
        <pt x="510" y="1274" on="0"/>
        <pt x="502" y="1258" on="1"/>
        <pt x="513" y="1269" on="0"/>
        <pt x="541" y="1288" on="0"/>
        <pt x="556" y="1297" on="1"/>
        <pt x="718" y="1395" on="1"/>
        <pt x="762" y="1298" on="1"/>
        <pt x="607" y="1205" on="1"/>
        <pt x="571" y="1183" on="0"/>
        <pt x="534" y="1177" on="1"/>
        <pt x="551" y="1174" on="0"/>
        <pt x="584" y="1160" on="0"/>
        <pt x="600" y="1149" on="1"/>
        <pt x="732" y="1055" on="1"/>
        <pt x="665" y="959" on="1"/>
        <pt x="532" y="1053" on="1"/>
        <pt x="518" y="1064" on="0"/>
        <pt x="491" y="1084" on="0"/>
        <pt x="482" y="1096" on="1"/>
        <pt x="487" y="1074" on="0"/>
        <pt x="487" y="1054" on="1"/>
        <pt x="487" y="1047" on="0"/>
        <pt x="486" y="1033" on="0"/>
        <pt x="485" y="1026" on="1"/>
        <pt x="461" y="840" on="1"/>
      </contour>
    </TTGlyph>
    <TTGlyph name="at" xMin="61" yMin="-241" xMax="1470" yMax="1378">
      <contour>
        <pt x="1021" y="184" on="1"/>
        <pt x="958" y="184" on="0"/>
        <pt x="868" y="247" on="0"/>
        <pt x="857" y="318" on="1"/>
        <pt x="794" y="246" on="0"/>
        <pt x="664" y="185" on="0"/>
        <pt x="593" y="185" on="1"/>
        <pt x="542" y="185" on="0"/>
        <pt x="468" y="221" on="0"/>
        <pt x="418" y="285" on="0"/>
        <pt x="394" y="372" on="0"/>
        <pt x="394" y="422" on="1"/>
        <pt x="394" y="483" on="0"/>
        <pt x="426" y="610" on="0"/>
        <pt x="489" y="730" on="0"/>
        <pt x="582" y="835" on="0"/>
        <pt x="704" y="914" on="0"/>
        <pt x="855" y="960" on="0"/>
        <pt x="944" y="960" on="1"/>
        <pt x="981" y="960" on="0"/>
        <pt x="1041" y="954" on="0"/>
        <pt x="1093" y="943" on="0"/>
        <pt x="1139" y="927" on="0"/>
        <pt x="1162" y="916" on="1"/>
        <pt x="1027" y="546" on="1"/>
        <pt x="1010" y="501" on="0"/>
        <pt x="998" y="434" on="0"/>
        <pt x="998" y="410" on="1"/>
        <pt x="998" y="365" on="0"/>
        <pt x="1040" y="332" on="0"/>
        <pt x="1073" y="332" on="1"/>
        <pt x="1118" y="332" on="0"/>
        <pt x="1200" y="400" on="0"/>
        <pt x="1263" y="520" on="0"/>
        <pt x="1301" y="684" on="0"/>
        <pt x="1301" y="780" on="1"/>
        <pt x="1301" y="888" on="0"/>
        <pt x="1240" y="1055" on="0"/>
        <pt x="1127" y="1168" on="0"/>
        <pt x="966" y="1226" on="0"/>
        <pt x="867" y="1226" on="1"/>
        <pt x="779" y="1226" on="0"/>
        <pt x="616" y="1174" on="0"/>
        <pt x="476" y="1078" on="0"/>
        <pt x="361" y="943" on="0"/>
        <pt x="279" y="775" on="0"/>
        <pt x="234" y="580" on="0"/>
        <pt x="234" y="472" on="1"/>
        <pt x="234" y="336" on="0"/>
        <pt x="309" y="128" on="0"/>
        <pt x="445" y="-13" on="0"/>
        <pt x="635" y="-86" on="0"/>
        <pt x="750" y="-86" on="1"/>
        <pt x="821" y="-86" on="0"/>
        <pt x="944" y="-70" on="0"/>
        <pt x="1045" y="-43" on="0"/>
        <pt x="1124" y="-9" on="0"/>
        <pt x="1153" y="8" on="1"/>
        <pt x="1167" y="16" on="0"/>
        <pt x="1191" y="22" on="0"/>
        <pt x="1201" y="22" on="1"/>
        <pt x="1222" y="22" on="0"/>
        <pt x="1244" y="-2" on="0"/>
        <pt x="1249" y="-19" on="1"/>
        <pt x="1267" y="-87" on="1"/>
        <pt x="1163" y="-155" on="0"/>
        <pt x="897" y="-241" on="0"/>
        <pt x="732" y="-241" on="1"/>
        <pt x="580" y="-241" on="0"/>
        <pt x="333" y="-142" on="0"/>
        <pt x="157" y="41" on="0"/>
        <pt x="61" y="301" on="0"/>
        <pt x="61" y="463" on="1"/>
        <pt x="61" y="588" on="0"/>
        <pt x="121" y="821" on="0"/>
        <pt x="229" y="1025" on="0"/>
        <pt x="381" y="1192" on="0"/>
        <pt x="564" y="1312" on="0"/>
        <pt x="774" y="1378" on="0"/>
        <pt x="886" y="1378" on="1"/>
        <pt x="1007" y="1378" on="0"/>
        <pt x="1219" y="1295" on="0"/>
        <pt x="1378" y="1140" on="0"/>
        <pt x="1470" y="918" on="0"/>
        <pt x="1470" y="780" on="1"/>
        <pt x="1470" y="654" on="0"/>
        <pt x="1399" y="437" on="0"/>
        <pt x="1277" y="276" on="0"/>
        <pt x="1114" y="184" on="0"/>
      </contour>
      <contour>
        <pt x="660" y="339" on="1"/>
        <pt x="683" y="339" on="0"/>
        <pt x="731" y="356" on="0"/>
        <pt x="778" y="398" on="0"/>
        <pt x="822" y="469" on="0"/>
        <pt x="842" y="522" on="1"/>
        <pt x="945" y="806" on="1"/>
        <pt x="918" y="812" on="0"/>
        <pt x="887" y="812" on="1"/>
        <pt x="827" y="812" on="0"/>
        <pt x="716" y="750" on="0"/>
        <pt x="631" y="648" on="0"/>
        <pt x="580" y="517" on="0"/>
        <pt x="580" y="448" on="1"/>
        <pt x="580" y="397" on="0"/>
        <pt x="620" y="339" on="0"/>
      </contour>
    </TTGlyph>
    <TTGlyph name="atilde" xMin="38" yMin="-15" xMax="1007" yMax="1438">
      <component glyphName="a" x="0" y="0" flags="0x204"/>
      <component glyphName="tilde" x="294" y="0" flags="0x4"/>
    </TTGlyph>
    <TTGlyph name="b" xMin="60" yMin="-15" xMax="1033" yMax="1486">
      <contour>
        <pt x="60" y="0" on="1"/>
        <pt x="241" y="1486" on="1"/>
        <pt x="482" y="1486" on="1"/>
        <pt x="401" y="823" on="1"/>
        <pt x="473" y="924" on="0"/>
        <pt x="650" y="1042" on="0"/>
        <pt x="750" y="1042" on="1"/>
        <pt x="814" y="1042" on="0"/>
        <pt x="919" y="995" on="0"/>
        <pt x="993" y="901" on="0"/>
        <pt x="1033" y="757" on="0"/>
        <pt x="1033" y="660" on="1"/>
        <pt x="1033" y="573" on="0"/>
        <pt x="997" y="405" on="0"/>
        <pt x="931" y="255" on="0"/>
        <pt x="840" y="129" on="0"/>
        <pt x="728" y="37" on="0"/>
        <pt x="601" y="-15" on="0"/>
        <pt x="533" y="-15" on="1"/>
        <pt x="454" y="-15" on="0"/>
        <pt x="331" y="48" on="0"/>
        <pt x="289" y="102" on="1"/>
        <pt x="281" y="68" on="1"/>
        <pt x="273" y="32" on="0"/>
        <pt x="235" y="0" on="0"/>
        <pt x="194" y="0" on="1"/>
      </contour>
      <contour>
        <pt x="654" y="848" on="1"/>
        <pt x="613" y="848" on="0"/>
        <pt x="529" y="792" on="0"/>
        <pt x="450" y="694" on="0"/>
        <pt x="383" y="561" on="0"/>
        <pt x="359" y="485" on="1"/>
        <pt x="329" y="240" on="1"/>
        <pt x="363" y="203" on="0"/>
        <pt x="451" y="173" on="0"/>
        <pt x="494" y="173" on="1"/>
        <pt x="560" y="173" on="0"/>
        <pt x="668" y="255" on="0"/>
        <pt x="745" y="387" on="0"/>
        <pt x="787" y="552" on="0"/>
        <pt x="787" y="635" on="1"/>
        <pt x="787" y="743" on="0"/>
        <pt x="717" y="848" on="0"/>
      </contour>
    </TTGlyph>
    <TTGlyph name="backslash" xMin="104" yMin="-97" xMax="658" yMax="1455">
      <contour>
        <pt x="104" y="1455" on="1"/>
        <pt x="204" y="1455" on="1"/>
        <pt x="247" y="1455" on="0"/>
        <pt x="307" y="1411" on="0"/>
        <pt x="316" y="1371" on="1"/>
        <pt x="658" y="-97" on="1"/>
        <pt x="558" y="-97" on="1"/>
        <pt x="520" y="-97" on="0"/>
        <pt x="453" y="-51" on="0"/>
        <pt x="442" y="-7" on="1"/>
      </contour>
    </TTGlyph>
    <TTGlyph name="bar" xMin="144" yMin="-335" xMax="336" yMax="1547">
      <contour>
        <pt x="144" y="1547" on="1"/>
        <pt x="336" y="1547" on="1"/>
        <pt x="336" y="-335" on="1"/>
        <pt x="144" y="-335" on="1"/>
      </contour>
    </TTGlyph>
    <TTGlyph name="braceleft" xMin="31" yMin="-305" xMax="616" yMax="1545">
      <contour>
        <pt x="125" y="441" on="1"/>
        <pt x="125" y="489" on="0"/>
        <pt x="80" y="551" on="0"/>
        <pt x="31" y="551" on="1"/>
        <pt x="48" y="689" on="1"/>
        <pt x="122" y="689" on="0"/>
        <pt x="180" y="812" on="0"/>
        <pt x="180" y="939" on="1"/>
        <pt x="180" y="955" on="0"/>
        <pt x="178" y="997" on="0"/>
        <pt x="177" y="1042" on="0"/>
        <pt x="175" y="1085" on="0"/>
        <pt x="175" y="1102" on="1"/>
        <pt x="175" y="1208" on="0"/>
        <pt x="223" y="1373" on="0"/>
        <pt x="320" y="1486" on="0"/>
        <pt x="468" y="1545" on="0"/>
        <pt x="569" y="1545" on="1"/>
        <pt x="616" y="1545" on="1"/>
        <pt x="603" y="1438" on="1"/>
        <pt x="601" y="1426" on="0"/>
        <pt x="589" y="1408" on="0"/>
        <pt x="572" y="1396" on="0"/>
        <pt x="554" y="1391" on="0"/>
        <pt x="547" y="1391" on="1"/>
        <pt x="540" y="1391" on="1"/>
        <pt x="474" y="1391" on="0"/>
        <pt x="398" y="1296" on="0"/>
        <pt x="390" y="1208" on="1"/>
        <pt x="385" y="1157" on="0"/>
        <pt x="383" y="1063" on="0"/>
        <pt x="383" y="974" on="0"/>
        <pt x="381" y="889" on="0"/>
        <pt x="377" y="846" on="1"/>
        <pt x="373" y="804" on="0"/>
        <pt x="346" y="731" on="0"/>
        <pt x="301" y="672" on="0"/>
        <pt x="241" y="629" on="0"/>
        <pt x="205" y="619" on="1"/>
        <pt x="263" y="599" on="0"/>
        <pt x="325" y="500" on="0"/>
        <pt x="325" y="437" on="1"/>
        <pt x="325" y="379" on="0"/>
        <pt x="299" y="268" on="0"/>
        <pt x="267" y="157" on="0"/>
        <pt x="241" y="44" on="0"/>
        <pt x="241" y="-17" on="1"/>
        <pt x="241" y="-77" on="0"/>
        <pt x="296" y="-152" on="0"/>
        <pt x="350" y="-152" on="1"/>
        <pt x="358" y="-152" on="1"/>
        <pt x="372" y="-152" on="0"/>
        <pt x="402" y="-171" on="0"/>
        <pt x="402" y="-194" on="1"/>
        <pt x="402" y="-195" on="0"/>
        <pt x="402" y="-200" on="0"/>
        <pt x="399" y="-221" on="0"/>
        <pt x="394" y="-265" on="0"/>
        <pt x="389" y="-305" on="1"/>
        <pt x="341" y="-305" on="1"/>
        <pt x="261" y="-305" on="0"/>
        <pt x="145" y="-263" on="0"/>
        <pt x="70" y="-188" on="0"/>
        <pt x="33" y="-84" on="0"/>
        <pt x="33" y="-21" on="1"/>
        <pt x="33" y="44" on="0"/>
        <pt x="62" y="162" on="0"/>
        <pt x="96" y="274" on="0"/>
        <pt x="125" y="384" on="0"/>
      </contour>
    </TTGlyph>
    <TTGlyph name="braceright" xMin="-33" yMin="-305" xMax="552" yMax="1545">
      <contour>
        <pt x="458" y="799" on="1"/>
        <pt x="458" y="751" on="0"/>
        <pt x="503" y="689" on="0"/>
        <pt x="552" y="689" on="1"/>
        <pt x="535" y="551" on="1"/>
        <pt x="461" y="551" on="0"/>
        <pt x="403" y="428" on="0"/>
        <pt x="403" y="301" on="1"/>
        <pt x="403" y="285" on="0"/>
        <pt x="405" y="243" on="0"/>
        <pt x="406" y="198" on="0"/>
        <pt x="408" y="154" on="0"/>
        <pt x="408" y="138" on="1"/>
        <pt x="408" y="32" on="0"/>
        <pt x="360" y="-133" on="0"/>
        <pt x="263" y="-246" on="0"/>
        <pt x="114" y="-305" on="0"/>
        <pt x="14" y="-305" on="1"/>
        <pt x="-33" y="-305" on="1"/>
        <pt x="-20" y="-198" on="1"/>
        <pt x="-19" y="-186" on="0"/>
        <pt x="-6" y="-168" on="0"/>
        <pt x="11" y="-156" on="0"/>
        <pt x="29" y="-151" on="0"/>
        <pt x="36" y="-151" on="1"/>
        <pt x="43" y="-151" on="1"/>
        <pt x="109" y="-151" on="0"/>
        <pt x="185" y="-56" on="0"/>
        <pt x="193" y="32" on="1"/>
        <pt x="198" y="83" on="0"/>
        <pt x="200" y="177" on="0"/>
        <pt x="200" y="266" on="0"/>
        <pt x="202" y="351" on="0"/>
        <pt x="206" y="394" on="1"/>
        <pt x="210" y="436" on="0"/>
        <pt x="237" y="509" on="0"/>
        <pt x="282" y="568" on="0"/>
        <pt x="342" y="610" on="0"/>
        <pt x="378" y="621" on="1"/>
        <pt x="320" y="641" on="0"/>
        <pt x="258" y="740" on="0"/>
        <pt x="258" y="803" on="1"/>
        <pt x="258" y="861" on="0"/>
        <pt x="284" y="972" on="0"/>
        <pt x="316" y="1083" on="0"/>
        <pt x="342" y="1196" on="0"/>
        <pt x="342" y="1257" on="1"/>
        <pt x="342" y="1317" on="0"/>
        <pt x="287" y="1392" on="0"/>
        <pt x="233" y="1392" on="1"/>
        <pt x="225" y="1392" on="1"/>
        <pt x="211" y="1392" on="0"/>
        <pt x="181" y="1411" on="0"/>
        <pt x="181" y="1434" on="1"/>
        <pt x="181" y="1435" on="0"/>
        <pt x="181" y="1440" on="0"/>
        <pt x="184" y="1461" on="0"/>
        <pt x="189" y="1505" on="0"/>
        <pt x="194" y="1545" on="1"/>
        <pt x="242" y="1545" on="1"/>
        <pt x="321" y="1545" on="0"/>
        <pt x="438" y="1503" on="0"/>
        <pt x="513" y="1428" on="0"/>
        <pt x="550" y="1324" on="0"/>
        <pt x="550" y="1261" on="1"/>
        <pt x="550" y="1196" on="0"/>
        <pt x="521" y="1078" on="0"/>
        <pt x="487" y="966" on="0"/>
        <pt x="458" y="856" on="0"/>
      </contour>
    </TTGlyph>
    <TTGlyph name="bracketleft" xMin="4" yMin="-305" xMax="614" yMax="1545">
      <contour>
        <pt x="4" y="-305" on="1"/>
        <pt x="231" y="1545" on="1"/>
        <pt x="614" y="1545" on="1"/>
        <pt x="603" y="1451" on="1"/>
        <pt x="600" y="1427" on="0"/>
        <pt x="560" y="1391" on="0"/>
        <pt x="533" y="1391" on="1"/>
        <pt x="412" y="1391" on="1"/>
        <pt x="221" y="-152" on="1"/>
        <pt x="345" y="-152" on="1"/>
        <pt x="367" y="-152" on="0"/>
        <pt x="399" y="-177" on="0"/>
        <pt x="399" y="-199" on="1"/>
        <pt x="387" y="-305" on="1"/>
      </contour>
    </TTGlyph>
    <TTGlyph name="bracketright" xMin="-31" yMin="-305" xMax="580" yMax="1545">
      <contour>
        <pt x="-31" y="-305" on="1"/>
        <pt x="-19" y="-213" on="1"/>
        <pt x="-16" y="-187" on="0"/>
        <pt x="23" y="-152" on="0"/>
        <pt x="50" y="-152" on="1"/>
        <pt x="173" y="-152" on="1"/>
        <pt x="363" y="1391" on="1"/>
        <pt x="240" y="1391" on="1"/>
        <pt x="215" y="1391" on="0"/>
        <pt x="185" y="1422" on="0"/>
        <pt x="185" y="1444" on="1"/>
        <pt x="197" y="1545" on="1"/>
        <pt x="580" y="1545" on="1"/>
        <pt x="352" y="-305" on="1"/>
      </contour>
    </TTGlyph>
    <TTGlyph name="breve" xMin="129" yMin="1161" xMax="697" yMax="1445">
      <contour>
        <pt x="380" y="1161" on="1"/>
        <pt x="310" y="1161" on="0"/>
        <pt x="214" y="1196" on="0"/>
        <pt x="155" y="1258" on="0"/>
        <pt x="129" y="1342" on="0"/>
        <pt x="129" y="1390" on="1"/>
        <pt x="129" y="1404" on="0"/>
        <pt x="131" y="1431" on="0"/>
        <pt x="133" y="1445" on="1"/>
        <pt x="300" y="1445" on="1"/>
        <pt x="297" y="1424" on="0"/>
        <pt x="297" y="1406" on="1"/>
        <pt x="297" y="1361" on="0"/>
        <pt x="341" y="1312" on="0"/>
        <pt x="399" y="1312" on="1"/>
        <pt x="434" y="1312" on="0"/>
        <pt x="481" y="1330" on="0"/>
        <pt x="512" y="1365" on="0"/>
        <pt x="528" y="1414" on="0"/>
        <pt x="531" y="1445" on="1"/>
        <pt x="697" y="1445" on="1"/>
        <pt x="690" y="1387" on="0"/>
        <pt x="649" y="1284" on="0"/>
        <pt x="574" y="1206" on="0"/>
        <pt x="460" y="1161" on="0"/>
      </contour>
    </TTGlyph>
    <TTGlyph name="breve.case" xMin="160" yMin="1528" xMax="742" yMax="1768">
      <contour>
        <pt x="423" y="1528" on="1"/>
        <pt x="297" y="1528" on="0"/>
        <pt x="160" y="1627" on="0"/>
        <pt x="160" y="1727" on="1"/>
        <pt x="160" y="1747" on="0"/>
        <pt x="163" y="1768" on="1"/>
        <pt x="314" y="1768" on="1"/>
        <pt x="313" y="1763" on="0"/>
        <pt x="313" y="1755" on="0"/>
        <pt x="313" y="1750" on="1"/>
        <pt x="313" y="1670" on="0"/>
        <pt x="441" y="1670" on="1"/>
        <pt x="510" y="1670" on="0"/>
        <pt x="584" y="1717" on="0"/>
        <pt x="590" y="1768" on="1"/>
        <pt x="742" y="1768" on="1"/>
        <pt x="735" y="1714" on="0"/>
        <pt x="685" y="1625" on="0"/>
        <pt x="603" y="1562" on="0"/>
        <pt x="492" y="1528" on="0"/>
      </contour>
    </TTGlyph>
    <TTGlyph name="brokenbar" xMin="144" yMin="-335" xMax="336" yMax="1547">
      <contour>
        <pt x="144" y="1547" on="1"/>
        <pt x="336" y="1547" on="1"/>
        <pt x="336" y="738" on="1"/>
        <pt x="144" y="738" on="1"/>
      </contour>
      <contour>
        <pt x="144" y="473" on="1"/>
        <pt x="336" y="473" on="1"/>
        <pt x="336" y="-335" on="1"/>
        <pt x="144" y="-335" on="1"/>
      </contour>
    </TTGlyph>
    <TTGlyph name="bullet" xMin="162" yMin="161" xMax="1034" yMax="1028">
      <contour>
        <pt x="162" y="593" on="1"/>
        <pt x="162" y="683" on="0"/>
        <pt x="231" y="841" on="0"/>
        <pt x="349" y="960" on="0"/>
        <pt x="507" y="1028" on="0"/>
        <pt x="597" y="1028" on="1"/>
        <pt x="688" y="1028" on="0"/>
        <pt x="847" y="960" on="0"/>
        <pt x="965" y="841" on="0"/>
        <pt x="1034" y="683" on="0"/>
        <pt x="1034" y="593" on="1"/>
        <pt x="1034" y="504" on="0"/>
        <pt x="965" y="347" on="0"/>
        <pt x="847" y="229" on="0"/>
        <pt x="688" y="161" on="0"/>
        <pt x="597" y="161" on="1"/>
        <pt x="507" y="161" on="0"/>
        <pt x="349" y="229" on="0"/>
        <pt x="231" y="347" on="0"/>
        <pt x="162" y="504" on="0"/>
      </contour>
    </TTGlyph>
    <TTGlyph name="c" xMin="50" yMin="-15" xMax="890" yMax="1041">
      <contour>
        <pt x="838" y="182" on="1"/>
        <pt x="787" y="126" on="0"/>
        <pt x="694" y="50" on="0"/>
        <pt x="598" y="4" on="0"/>
        <pt x="492" y="-15" on="0"/>
        <pt x="429" y="-15" on="1"/>
        <pt x="340" y="-15" on="0"/>
        <pt x="199" y="46" on="0"/>
        <pt x="101" y="158" on="0"/>
        <pt x="50" y="316" on="0"/>
        <pt x="50" y="413" on="1"/>
        <pt x="50" y="538" on="0"/>
        <pt x="130" y="765" on="0"/>
        <pt x="274" y="938" on="0"/>
        <pt x="472" y="1041" on="0"/>
        <pt x="589" y="1041" on="1"/>
        <pt x="691" y="1041" on="0"/>
        <pt x="834" y="969" on="0"/>
        <pt x="890" y="897" on="1"/>
        <pt x="811" y="803" on="1"/>
        <pt x="802" y="794" on="0"/>
        <pt x="779" y="779" on="0"/>
        <pt x="765" y="779" on="1"/>
        <pt x="748" y="779" on="0"/>
        <pt x="720" y="800" on="0"/>
        <pt x="683" y="824" on="0"/>
        <pt x="628" y="845" on="0"/>
        <pt x="584" y="845" on="1"/>
        <pt x="527" y="845" on="0"/>
        <pt x="423" y="783" on="0"/>
        <pt x="344" y="669" on="0"/>
        <pt x="297" y="509" on="0"/>
        <pt x="297" y="412" on="1"/>
        <pt x="297" y="299" on="0"/>
        <pt x="397" y="176" on="0"/>
        <pt x="482" y="176" on="1"/>
        <pt x="539" y="176" on="0"/>
        <pt x="614" y="209" on="0"/>
        <pt x="666" y="248" on="0"/>
        <pt x="707" y="281" on="0"/>
        <pt x="731" y="281" on="1"/>
        <pt x="743" y="281" on="0"/>
        <pt x="766" y="268" on="0"/>
        <pt x="775" y="258" on="1"/>
        <pt x="838" y="182" on="1"/>
      </contour>
    </TTGlyph>
    <TTGlyph name="cacute" xMin="50" yMin="-15" xMax="934" yMax="1463">
      <component glyphName="c" x="0" y="0" flags="0x204"/>
      <component glyphName="acute" x="192" y="2" flags="0x4"/>
    </TTGlyph>
    <TTGlyph name="caron" xMin="90" yMin="1168" xMax="736" yMax="1445">
      <contour>
        <pt x="490" y="1168" on="1"/>
        <pt x="267" y="1168" on="1"/>
        <pt x="90" y="1445" on="1"/>
        <pt x="254" y="1445" on="1"/>
        <pt x="268" y="1445" on="0"/>
        <pt x="293" y="1434" on="0"/>
        <pt x="299" y="1427" on="1"/>
        <pt x="381" y="1327" on="1"/>
        <pt x="389" y="1317" on="0"/>
        <pt x="398" y="1304" on="1"/>
        <pt x="404" y="1311" on="0"/>
        <pt x="417" y="1322" on="0"/>
        <pt x="422" y="1327" on="1"/>
        <pt x="528" y="1427" on="1"/>
        <pt x="535" y="1435" on="0"/>
        <pt x="563" y="1445" on="0"/>
        <pt x="578" y="1445" on="1"/>
        <pt x="736" y="1445" on="1"/>
      </contour>
    </TTGlyph>
    <TTGlyph name="caron.case" xMin="109" yMin="1549" xMax="793" yMax="1767">
      <contour>
        <pt x="109" y="1767" on="1"/>
        <pt x="326" y="1767" on="1"/>
        <pt x="439" y="1669" on="1"/>
        <pt x="576" y="1767" on="1"/>
        <pt x="793" y="1767" on="1"/>
        <pt x="543" y="1549" on="1"/>
        <pt x="305" y="1549" on="1"/>
      </contour>
    </TTGlyph>
    <TTGlyph name="caron.salt" xMin="251" yMin="1143" xMax="546" yMax="1487">
      <contour>
        <pt x="511" y="1487" on="1"/>
        <pt x="533" y="1487" on="0"/>
        <pt x="546" y="1467" on="0"/>
        <pt x="546" y="1457" on="1"/>
        <pt x="546" y="1448" on="0"/>
        <pt x="539" y="1421" on="0"/>
        <pt x="514" y="1364" on="0"/>
        <pt x="465" y="1266" on="0"/>
        <pt x="423" y="1187" on="1"/>
        <pt x="407" y="1158" on="0"/>
        <pt x="366" y="1143" on="0"/>
        <pt x="335" y="1143" on="1"/>
        <pt x="251" y="1143" on="1"/>
        <pt x="351" y="1487" on="1"/>
      </contour>
    </TTGlyph>
    <TTGlyph name="ccedilla" xMin="50" yMin="-349" xMax="890" yMax="1041">
      <contour>
        <pt x="287" y="-230" on="1"/>
        <pt x="294" y="-230" on="0"/>
        <pt x="307" y="-235" on="0"/>
        <pt x="323" y="-241" on="0"/>
        <pt x="343" y="-246" on="0"/>
        <pt x="357" y="-246" on="1"/>
        <pt x="388" y="-246" on="0"/>
        <pt x="420" y="-215" on="0"/>
        <pt x="420" y="-194" on="1"/>
        <pt x="420" y="-168" on="0"/>
        <pt x="360" y="-143" on="0"/>
        <pt x="295" y="-134" on="1"/>
        <pt x="345" y="-7" on="1"/>
        <pt x="275" y="6" on="0"/>
        <pt x="165" y="77" on="0"/>
        <pt x="90" y="185" on="0"/>
        <pt x="50" y="328" on="0"/>
        <pt x="50" y="413" on="1"/>
        <pt x="50" y="538" on="0"/>
        <pt x="130" y="765" on="0"/>
        <pt x="274" y="938" on="0"/>
        <pt x="472" y="1041" on="0"/>
        <pt x="589" y="1041" on="1"/>
        <pt x="691" y="1041" on="0"/>
        <pt x="834" y="969" on="0"/>
        <pt x="890" y="897" on="1"/>
        <pt x="811" y="803" on="1"/>
        <pt x="803" y="793" on="0"/>
        <pt x="779" y="779" on="0"/>
        <pt x="765" y="779" on="1"/>
        <pt x="748" y="779" on="0"/>
        <pt x="720" y="800" on="0"/>
        <pt x="683" y="824" on="0"/>
        <pt x="628" y="845" on="0"/>
        <pt x="584" y="845" on="1"/>
        <pt x="527" y="845" on="0"/>
        <pt x="423" y="783" on="0"/>
        <pt x="344" y="669" on="0"/>
        <pt x="297" y="509" on="0"/>
        <pt x="297" y="412" on="1"/>
        <pt x="297" y="299" on="0"/>
        <pt x="397" y="176" on="0"/>
        <pt x="482" y="176" on="1"/>
        <pt x="539" y="176" on="0"/>
        <pt x="614" y="209" on="0"/>
        <pt x="666" y="248" on="0"/>
        <pt x="707" y="281" on="0"/>
        <pt x="731" y="281" on="1"/>
        <pt x="757" y="281" on="0"/>
        <pt x="775" y="258" on="1"/>
        <pt x="838" y="182" on="1"/>
        <pt x="794" y="133" on="0"/>
        <pt x="713" y="64" on="0"/>
        <pt x="630" y="18" on="0"/>
        <pt x="543" y="-8" on="0"/>
        <pt x="493" y="-12" on="1"/>
        <pt x="475" y="-58" on="1"/>
        <pt x="548" y="-77" on="0"/>
        <pt x="608" y="-144" on="0"/>
        <pt x="608" y="-187" on="1"/>
        <pt x="608" y="-225" on="0"/>
        <pt x="571" y="-285" on="0"/>
        <pt x="505" y="-327" on="0"/>
        <pt x="414" y="-349" on="0"/>
        <pt x="360" y="-349" on="1"/>
        <pt x="322" y="-349" on="0"/>
        <pt x="258" y="-337" on="0"/>
        <pt x="226" y="-325" on="1"/>
        <pt x="259" y="-251" on="1"/>
        <pt x="267" y="-230" on="0"/>
      </contour>
    </TTGlyph>
    <TTGlyph name="cedilla" xMin="22" yMin="-349" xMax="404" yMax="14">
      <contour>
        <pt x="83" y="-230" on="1"/>
        <pt x="90" y="-230" on="0"/>
        <pt x="103" y="-235" on="0"/>
        <pt x="119" y="-241" on="0"/>
        <pt x="139" y="-246" on="0"/>
        <pt x="153" y="-246" on="1"/>
        <pt x="184" y="-246" on="0"/>
        <pt x="216" y="-215" on="0"/>
        <pt x="216" y="-194" on="1"/>
        <pt x="216" y="-168" on="0"/>
        <pt x="156" y="-143" on="0"/>
        <pt x="91" y="-134" on="1"/>
        <pt x="150" y="14" on="1"/>
        <pt x="299" y="14" on="1"/>
        <pt x="271" y="-58" on="1"/>
        <pt x="344" y="-77" on="0"/>
        <pt x="404" y="-144" on="0"/>
        <pt x="404" y="-187" on="1"/>
        <pt x="404" y="-225" on="0"/>
        <pt x="367" y="-285" on="0"/>
        <pt x="301" y="-327" on="0"/>
        <pt x="210" y="-349" on="0"/>
        <pt x="156" y="-349" on="1"/>
        <pt x="118" y="-349" on="0"/>
        <pt x="54" y="-337" on="0"/>
        <pt x="22" y="-325" on="1"/>
        <pt x="55" y="-251" on="1"/>
        <pt x="63" y="-230" on="0"/>
      </contour>
    </TTGlyph>
    <TTGlyph name="cent" xMin="123" yMin="-223" xMax="1089" yMax="1259">
      <contour>
        <pt x="481" y="-9" on="1"/>
        <pt x="402" y="3" on="0"/>
        <pt x="270" y="75" on="0"/>
        <pt x="176" y="190" on="0"/>
        <pt x="123" y="344" on="0"/>
        <pt x="123" y="439" on="1"/>
        <pt x="123" y="563" on="0"/>
        <pt x="201" y="778" on="0"/>
        <pt x="348" y="938" on="0"/>
        <pt x="562" y="1033" on="0"/>
        <pt x="697" y="1038" on="1"/>
        <pt x="730" y="1198" on="1"/>
        <pt x="735" y="1221" on="0"/>
        <pt x="775" y="1259" on="0"/>
        <pt x="802" y="1259" on="1"/>
        <pt x="890" y="1259" on="1"/>
        <pt x="842" y="1029" on="1"/>
        <pt x="920" y="1015" on="0"/>
        <pt x="1041" y="949" on="0"/>
        <pt x="1089" y="899" on="1"/>
        <pt x="1017" y="816" on="1"/>
        <pt x="1005" y="802" on="0"/>
        <pt x="984" y="788" on="0"/>
        <pt x="965" y="788" on="1"/>
        <pt x="951" y="788" on="0"/>
        <pt x="923" y="802" on="0"/>
        <pt x="886" y="821" on="0"/>
        <pt x="838" y="842" on="0"/>
        <pt x="806" y="850" on="1"/>
        <pt x="665" y="166" on="1"/>
        <pt x="720" y="171" on="0"/>
        <pt x="796" y="200" on="0"/>
        <pt x="851" y="230" on="0"/>
        <pt x="892" y="254" on="0"/>
        <pt x="912" y="254" on="1"/>
        <pt x="942" y="254" on="0"/>
        <pt x="954" y="234" on="1"/>
        <pt x="1009" y="150" on="1"/>
        <pt x="970" y="110" on="0"/>
        <pt x="880" y="52" on="0"/>
        <pt x="783" y="13" on="0"/>
        <pt x="680" y="-8" on="0"/>
        <pt x="628" y="-12" on="1"/>
        <pt x="597" y="-163" on="1"/>
        <pt x="592" y="-186" on="0"/>
        <pt x="552" y="-223" on="0"/>
        <pt x="525" y="-223" on="1"/>
        <pt x="437" y="-223" on="1"/>
      </contour>
      <contour>
        <pt x="358" y="451" on="1"/>
        <pt x="358" y="344" on="0"/>
        <pt x="441" y="205" on="0"/>
        <pt x="519" y="179" on="1"/>
        <pt x="659" y="857" on="1"/>
        <pt x="583" y="849" on="0"/>
        <pt x="470" y="784" on="0"/>
        <pt x="395" y="679" on="0"/>
        <pt x="358" y="537" on="0"/>
      </contour>
    </TTGlyph>
    <TTGlyph name="circumflex" xMin="55" yMin="1168" xMax="702" yMax="1445">
      <contour>
        <pt x="702" y="1168" on="1"/>
        <pt x="544" y="1168" on="1"/>
        <pt x="530" y="1168" on="0"/>
        <pt x="504" y="1179" on="0"/>
        <pt x="498" y="1186" on="1"/>
        <pt x="417" y="1285" on="1"/>
        <pt x="409" y="1293" on="0"/>
        <pt x="400" y="1305" on="1"/>
        <pt x="394" y="1299" on="0"/>
        <pt x="383" y="1289" on="0"/>
        <pt x="378" y="1285" on="1"/>
        <pt x="270" y="1186" on="1"/>
        <pt x="262" y="1179" on="0"/>
        <pt x="235" y="1168" on="0"/>
        <pt x="220" y="1168" on="1"/>
        <pt x="55" y="1168" on="1"/>
        <pt x="301" y="1445" on="1"/>
        <pt x="525" y="1445" on="1"/>
      </contour>
    </TTGlyph>
    <TTGlyph name="circumflex.case" xMin="79" yMin="1549" xMax="762" yMax="1767">
      <contour>
        <pt x="762" y="1549" on="1"/>
        <pt x="581" y="1549" on="1"/>
        <pt x="567" y="1549" on="0"/>
        <pt x="536" y="1559" on="0"/>
        <pt x="525" y="1565" on="1"/>
        <pt x="446" y="1635" on="1"/>
        <pt x="443" y="1638" on="0"/>
        <pt x="435" y="1645" on="0"/>
        <pt x="432" y="1649" on="1"/>
        <pt x="416" y="1635" on="1"/>
        <pt x="319" y="1565" on="1"/>
        <pt x="308" y="1557" on="0"/>
        <pt x="273" y="1549" on="0"/>
        <pt x="258" y="1549" on="1"/>
        <pt x="79" y="1549" on="1"/>
        <pt x="328" y="1767" on="1"/>
        <pt x="566" y="1767" on="1"/>
      </contour>
    </TTGlyph>
    <TTGlyph name="colon" xMin="34" yMin="-14" xMax="435" yMax="1000">
      <contour>
        <pt x="34" y="136" on="1"/>
        <pt x="34" y="167" on="0"/>
        <pt x="57" y="223" on="0"/>
        <pt x="98" y="263" on="0"/>
        <pt x="153" y="287" on="0"/>
        <pt x="185" y="287" on="1"/>
        <pt x="217" y="287" on="0"/>
        <pt x="272" y="263" on="0"/>
        <pt x="313" y="223" on="0"/>
        <pt x="337" y="167" on="0"/>
        <pt x="337" y="136" on="1"/>
        <pt x="337" y="104" on="0"/>
        <pt x="313" y="49" on="0"/>
        <pt x="272" y="9" on="0"/>
        <pt x="217" y="-14" on="0"/>
        <pt x="185" y="-14" on="1"/>
        <pt x="153" y="-14" on="0"/>
        <pt x="98" y="9" on="0"/>
        <pt x="57" y="49" on="0"/>
        <pt x="34" y="104" on="0"/>
      </contour>
      <contour>
        <pt x="132" y="849" on="1"/>
        <pt x="132" y="880" on="0"/>
        <pt x="155" y="936" on="0"/>
        <pt x="196" y="976" on="0"/>
        <pt x="251" y="1000" on="0"/>
        <pt x="283" y="1000" on="1"/>
        <pt x="315" y="1000" on="0"/>
        <pt x="370" y="976" on="0"/>
        <pt x="411" y="936" on="0"/>
        <pt x="435" y="880" on="0"/>
        <pt x="435" y="849" on="1"/>
        <pt x="435" y="817" on="0"/>
        <pt x="411" y="762" on="0"/>
        <pt x="370" y="722" on="0"/>
        <pt x="315" y="699" on="0"/>
        <pt x="283" y="699" on="1"/>
        <pt x="251" y="699" on="0"/>
        <pt x="196" y="722" on="0"/>
        <pt x="155" y="762" on="0"/>
        <pt x="132" y="817" on="0"/>
      </contour>
    </TTGlyph>
    <TTGlyph name="comma" xMin="40" yMin="-284" xMax="335" yMax="287">
      <contour>
        <pt x="40" y="152" on="1"/>
        <pt x="40" y="180" on="0"/>
        <pt x="61" y="229" on="0"/>
        <pt x="99" y="266" on="0"/>
        <pt x="152" y="287" on="0"/>
        <pt x="184" y="287" on="1"/>
        <pt x="222" y="287" on="0"/>
        <pt x="279" y="260" on="0"/>
        <pt x="316" y="213" on="0"/>
        <pt x="335" y="152" on="0"/>
        <pt x="335" y="118" on="1"/>
        <pt x="335" y="70" on="0"/>
        <pt x="306" y="-36" on="0"/>
        <pt x="250" y="-142" on="0"/>
        <pt x="168" y="-242" on="0"/>
        <pt x="114" y="-284" on="1"/>
        <pt x="71" y="-245" on="1"/>
        <pt x="53" y="-230" on="0"/>
        <pt x="53" y="-209" on="1"/>
        <pt x="53" y="-194" on="0"/>
        <pt x="87" y="-155" on="0"/>
        <pt x="130" y="-104" on="0"/>
        <pt x="172" y="-38" on="0"/>
        <pt x="181" y="3" on="1"/>
        <pt x="149" y="3" on="0"/>
        <pt x="98" y="26" on="0"/>
        <pt x="60" y="66" on="0"/>
        <pt x="40" y="120" on="0"/>
      </contour>
    </TTGlyph>
    <TTGlyph name="copyright" xMin="81" yMin="-14" xMax="1557" yMax="1462">
      <contour>
        <pt x="1045" y="512" on="1"/>
        <pt x="1056" y="512" on="0"/>
        <pt x="1074" y="503" on="0"/>
        <pt x="1080" y="495" on="1"/>
        <pt x="1162" y="408" on="1"/>
        <pt x="1106" y="337" on="0"/>
        <pt x="936" y="262" on="0"/>
        <pt x="821" y="262" on="1"/>
        <pt x="721" y="262" on="0"/>
        <pt x="559" y="333" on="0"/>
        <pt x="444" y="458" on="0"/>
        <pt x="382" y="627" on="0"/>
        <pt x="382" y="726" on="1"/>
        <pt x="382" y="828" on="0"/>
        <pt x="452" y="998" on="0"/>
        <pt x="576" y="1121" on="0"/>
        <pt x="743" y="1189" on="0"/>
        <pt x="841" y="1189" on="1"/>
        <pt x="952" y="1189" on="0"/>
        <pt x="1112" y="1114" on="0"/>
        <pt x="1166" y="1056" on="1"/>
        <pt x="1101" y="967" on="1"/>
        <pt x="1095" y="959" on="0"/>
        <pt x="1074" y="943" on="0"/>
        <pt x="1058" y="943" on="1"/>
        <pt x="1041" y="943" on="0"/>
        <pt x="1011" y="963" on="0"/>
        <pt x="969" y="987" on="0"/>
        <pt x="904" y="1007" on="0"/>
        <pt x="853" y="1007" on="1"/>
        <pt x="793" y="1007" on="0"/>
        <pt x="700" y="968" on="0"/>
        <pt x="635" y="895" on="0"/>
        <pt x="601" y="791" on="0"/>
        <pt x="601" y="726" on="1"/>
        <pt x="601" y="658" on="0"/>
        <pt x="636" y="554" on="0"/>
        <pt x="697" y="483" on="0"/>
        <pt x="782" y="446" on="0"/>
        <pt x="833" y="446" on="1"/>
        <pt x="882" y="446" on="0"/>
        <pt x="945" y="462" on="0"/>
        <pt x="989" y="484" on="0"/>
        <pt x="1023" y="506" on="0"/>
      </contour>
      <contour>
        <pt x="81" y="723" on="1"/>
        <pt x="81" y="825" on="0"/>
        <pt x="134" y="1014" on="0"/>
        <pt x="230" y="1178" on="0"/>
        <pt x="365" y="1313" on="0"/>
        <pt x="528" y="1409" on="0"/>
        <pt x="716" y="1462" on="0"/>
        <pt x="818" y="1462" on="1"/>
        <pt x="920" y="1462" on="0"/>
        <pt x="1109" y="1409" on="0"/>
        <pt x="1273" y="1313" on="0"/>
        <pt x="1408" y="1178" on="0"/>
        <pt x="1504" y="1014" on="0"/>
        <pt x="1557" y="825" on="0"/>
        <pt x="1557" y="723" on="1"/>
        <pt x="1557" y="622" on="0"/>
        <pt x="1504" y="433" on="0"/>
        <pt x="1408" y="270" on="0"/>
        <pt x="1273" y="135" on="0"/>
        <pt x="1109" y="39" on="0"/>
        <pt x="920" y="-14" on="0"/>
        <pt x="818" y="-14" on="1"/>
        <pt x="717" y="-14" on="0"/>
        <pt x="528" y="39" on="0"/>
        <pt x="365" y="135" on="0"/>
        <pt x="230" y="270" on="0"/>
        <pt x="134" y="433" on="0"/>
        <pt x="81" y="621" on="0"/>
      </contour>
      <contour>
        <pt x="216" y="723" on="1"/>
        <pt x="216" y="593" on="0"/>
        <pt x="309" y="367" on="0"/>
        <pt x="471" y="200" on="0"/>
        <pt x="691" y="104" on="0"/>
        <pt x="818" y="104" on="1"/>
        <pt x="903" y="104" on="0"/>
        <pt x="1059" y="148" on="0"/>
        <pt x="1194" y="228" on="0"/>
        <pt x="1305" y="340" on="0"/>
        <pt x="1383" y="478" on="0"/>
        <pt x="1426" y="636" on="0"/>
        <pt x="1426" y="723" on="1"/>
        <pt x="1426" y="810" on="0"/>
        <pt x="1383" y="970" on="0"/>
        <pt x="1305" y="1109" on="0"/>
        <pt x="1194" y="1222" on="0"/>
        <pt x="1059" y="1303" on="0"/>
        <pt x="903" y="1347" on="0"/>
        <pt x="818" y="1347" on="1"/>
        <pt x="734" y="1347" on="0"/>
        <pt x="579" y="1303" on="0"/>
        <pt x="445" y="1222" on="0"/>
        <pt x="336" y="1109" on="0"/>
        <pt x="258" y="970" on="0"/>
        <pt x="216" y="810" on="0"/>
      </contour>
    </TTGlyph>
    <TTGlyph name="currency" xMin="149" yMin="204" xMax="1088" yMax="1142">
      <contour>
        <pt x="249" y="673" on="1"/>
        <pt x="249" y="726" on="0"/>
        <pt x="276" y="821" on="0"/>
        <pt x="301" y="863" on="1"/>
        <pt x="149" y="1015" on="1"/>
        <pt x="273" y="1137" on="1"/>
        <pt x="424" y="987" on="1"/>
        <pt x="466" y="1013" on="0"/>
        <pt x="564" y="1042" on="0"/>
        <pt x="618" y="1042" on="1"/>
        <pt x="670" y="1042" on="0"/>
        <pt x="766" y="1015" on="0"/>
        <pt x="808" y="990" on="1"/>
        <pt x="960" y="1142" on="1"/>
        <pt x="1084" y="1019" on="1"/>
        <pt x="932" y="868" on="1"/>
        <pt x="958" y="826" on="0"/>
        <pt x="988" y="727" on="0"/>
        <pt x="988" y="673" on="1"/>
        <pt x="988" y="620" on="0"/>
        <pt x="961" y="526" on="0"/>
        <pt x="936" y="484" on="1"/>
        <pt x="1088" y="332" on="1"/>
        <pt x="963" y="209" on="1"/>
        <pt x="812" y="359" on="1"/>
        <pt x="770" y="333" on="0"/>
        <pt x="672" y="305" on="0"/>
        <pt x="618" y="305" on="1"/>
        <pt x="566" y="305" on="0"/>
        <pt x="471" y="331" on="0"/>
        <pt x="429" y="356" on="1"/>
        <pt x="277" y="204" on="1"/>
        <pt x="153" y="328" on="1"/>
        <pt x="304" y="478" on="1"/>
        <pt x="278" y="520" on="0"/>
        <pt x="249" y="619" on="0"/>
      </contour>
      <contour>
        <pt x="432" y="673" on="1"/>
        <pt x="432" y="635" on="0"/>
        <pt x="461" y="566" on="0"/>
        <pt x="512" y="515" on="0"/>
        <pt x="580" y="485" on="0"/>
        <pt x="618" y="485" on="1"/>
        <pt x="657" y="485" on="0"/>
        <pt x="726" y="515" on="0"/>
        <pt x="777" y="566" on="0"/>
        <pt x="807" y="635" on="0"/>
        <pt x="807" y="673" on="1"/>
        <pt x="807" y="713" on="0"/>
        <pt x="777" y="782" on="0"/>
        <pt x="726" y="833" on="0"/>
        <pt x="657" y="863" on="0"/>
        <pt x="618" y="863" on="1"/>
        <pt x="580" y="863" on="0"/>
        <pt x="512" y="833" on="0"/>
        <pt x="461" y="782" on="0"/>
        <pt x="432" y="713" on="0"/>
      </contour>
    </TTGlyph>
    <TTGlyph name="d" xMin="43" yMin="-15" xMax="1075" yMax="1486">
      <contour>
        <pt x="761" y="0" on="1"/>
        <pt x="716" y="0" on="0"/>
        <pt x="680" y="42" on="0"/>
        <pt x="680" y="74" on="1"/>
        <pt x="688" y="224" on="1"/>
        <pt x="614" y="114" on="0"/>
        <pt x="430" y="-15" on="0"/>
        <pt x="326" y="-15" on="1"/>
        <pt x="262" y="-15" on="0"/>
        <pt x="157" y="32" on="0"/>
        <pt x="83" y="126" on="0"/>
        <pt x="43" y="270" on="0"/>
        <pt x="43" y="368" on="1"/>
        <pt x="43" y="455" on="0"/>
        <pt x="79" y="622" on="0"/>
        <pt x="145" y="772" on="0"/>
        <pt x="236" y="898" on="0"/>
        <pt x="348" y="990" on="0"/>
        <pt x="475" y="1042" on="0"/>
        <pt x="543" y="1042" on="1"/>
        <pt x="612" y="1042" on="0"/>
        <pt x="724" y="992" on="0"/>
        <pt x="766" y="949" on="1"/>
        <pt x="833" y="1486" on="1"/>
        <pt x="1075" y="1486" on="1"/>
        <pt x="892" y="0" on="1"/>
      </contour>
      <contour>
        <pt x="422" y="179" on="1"/>
        <pt x="462" y="179" on="0"/>
        <pt x="546" y="234" on="0"/>
        <pt x="624" y="331" on="0"/>
        <pt x="691" y="462" on="0"/>
        <pt x="715" y="538" on="1"/>
        <pt x="746" y="787" on="1"/>
        <pt x="712" y="824" on="0"/>
        <pt x="624" y="854" on="0"/>
        <pt x="582" y="854" on="1"/>
        <pt x="516" y="854" on="0"/>
        <pt x="408" y="772" on="0"/>
        <pt x="331" y="640" on="0"/>
        <pt x="289" y="475" on="0"/>
        <pt x="289" y="392" on="1"/>
        <pt x="289" y="284" on="0"/>
        <pt x="359" y="179" on="0"/>
      </contour>
    </TTGlyph>
    <TTGlyph name="dagger" xMin="118" yMin="-355" xMax="1057" yMax="1494">
      <contour>
        <pt x="128" y="944" on="1"/>
        <pt x="130" y="963" on="0"/>
        <pt x="148" y="1000" on="0"/>
        <pt x="179" y="1029" on="0"/>
        <pt x="223" y="1046" on="0"/>
        <pt x="252" y="1046" on="1"/>
        <pt x="280" y="1046" on="0"/>
        <pt x="341" y="1037" on="0"/>
        <pt x="406" y="1024" on="0"/>
        <pt x="474" y="1009" on="0"/>
        <pt x="507" y="1004" on="1"/>
        <pt x="533" y="1464" on="1"/>
        <pt x="559" y="1478" on="0"/>
        <pt x="625" y="1494" on="0"/>
        <pt x="660" y="1494" on="1"/>
        <pt x="731" y="1494" on="0"/>
        <pt x="778" y="1464" on="1"/>
        <pt x="692" y="1004" on="1"/>
        <pt x="726" y="1009" on="0"/>
        <pt x="797" y="1024" on="0"/>
        <pt x="865" y="1037" on="0"/>
        <pt x="929" y="1046" on="0"/>
        <pt x="958" y="1046" on="1"/>
        <pt x="1011" y="1046" on="0"/>
        <pt x="1057" y="993" on="0"/>
        <pt x="1057" y="958" on="1"/>
        <pt x="1057" y="956" on="0"/>
        <pt x="1057" y="950" on="0"/>
        <pt x="1055" y="932" on="0"/>
        <pt x="1050" y="896" on="0"/>
        <pt x="1046" y="865" on="1"/>
        <pt x="675" y="865" on="1"/>
        <pt x="627" y="472" on="1"/>
        <pt x="560" y="-325" on="1"/>
        <pt x="532" y="-340" on="0"/>
        <pt x="467" y="-355" on="0"/>
        <pt x="432" y="-355" on="1"/>
        <pt x="397" y="-355" on="0"/>
        <pt x="337" y="-340" on="0"/>
        <pt x="314" y="-325" on="1"/>
        <pt x="442" y="472" on="1"/>
        <pt x="489" y="865" on="1"/>
        <pt x="118" y="865" on="1"/>
      </contour>
    </TTGlyph>
    <TTGlyph name="daggerdbl" xMin="35" yMin="-355" xMax="1057" yMax="1494">
      <contour>
        <pt x="417" y="274" on="1"/>
        <pt x="490" y="865" on="1"/>
        <pt x="118" y="865" on="1"/>
        <pt x="128" y="944" on="1"/>
        <pt x="130" y="963" on="0"/>
        <pt x="148" y="1000" on="0"/>
        <pt x="179" y="1029" on="0"/>
        <pt x="223" y="1046" on="0"/>
        <pt x="252" y="1046" on="1"/>
        <pt x="280" y="1046" on="0"/>
        <pt x="341" y="1037" on="0"/>
        <pt x="406" y="1024" on="0"/>
        <pt x="474" y="1009" on="0"/>
        <pt x="507" y="1004" on="1"/>
        <pt x="533" y="1464" on="1"/>
        <pt x="559" y="1478" on="0"/>
        <pt x="625" y="1494" on="0"/>
        <pt x="660" y="1494" on="1"/>
        <pt x="731" y="1494" on="0"/>
        <pt x="778" y="1464" on="1"/>
        <pt x="692" y="1004" on="1"/>
        <pt x="726" y="1009" on="0"/>
        <pt x="797" y="1024" on="0"/>
        <pt x="865" y="1037" on="0"/>
        <pt x="929" y="1046" on="0"/>
        <pt x="958" y="1046" on="1"/>
        <pt x="1011" y="1046" on="0"/>
        <pt x="1057" y="993" on="0"/>
        <pt x="1057" y="958" on="1"/>
        <pt x="1057" y="949" on="0"/>
        <pt x="1056" y="944" on="1"/>
        <pt x="1046" y="865" on="1"/>
        <pt x="674" y="865" on="1"/>
        <pt x="600" y="274" on="1"/>
        <pt x="973" y="274" on="1"/>
        <pt x="964" y="195" on="1"/>
        <pt x="961" y="175" on="0"/>
        <pt x="944" y="137" on="0"/>
        <pt x="913" y="108" on="0"/>
        <pt x="869" y="91" on="0"/>
        <pt x="840" y="91" on="1"/>
        <pt x="812" y="91" on="0"/>
        <pt x="750" y="100" on="0"/>
        <pt x="684" y="113" on="0"/>
        <pt x="616" y="128" on="0"/>
        <pt x="583" y="133" on="1"/>
        <pt x="560" y="-325" on="1"/>
        <pt x="532" y="-340" on="0"/>
        <pt x="467" y="-355" on="0"/>
        <pt x="432" y="-355" on="1"/>
        <pt x="397" y="-355" on="0"/>
        <pt x="337" y="-340" on="0"/>
        <pt x="314" y="-325" on="1"/>
        <pt x="399" y="133" on="1"/>
        <pt x="364" y="128" on="0"/>
        <pt x="294" y="113" on="0"/>
        <pt x="226" y="100" on="0"/>
        <pt x="162" y="91" on="0"/>
        <pt x="134" y="91" on="1"/>
        <pt x="82" y="91" on="0"/>
        <pt x="35" y="143" on="0"/>
        <pt x="35" y="179" on="1"/>
        <pt x="35" y="181" on="0"/>
        <pt x="35" y="187" on="0"/>
        <pt x="37" y="206" on="0"/>
        <pt x="42" y="242" on="0"/>
        <pt x="46" y="274" on="1"/>
      </contour>
    </TTGlyph>
    <TTGlyph name="degree" xMin="127" yMin="783" xMax="819" yMax="1464">
      <contour>
        <pt x="127" y="1123" on="1"/>
        <pt x="127" y="1194" on="0"/>
        <pt x="180" y="1319" on="0"/>
        <pt x="273" y="1411" on="0"/>
        <pt x="399" y="1464" on="0"/>
        <pt x="472" y="1464" on="1"/>
        <pt x="545" y="1464" on="0"/>
        <pt x="672" y="1411" on="0"/>
        <pt x="765" y="1319" on="0"/>
        <pt x="819" y="1194" on="0"/>
        <pt x="819" y="1123" on="1"/>
        <pt x="819" y="1054" on="0"/>
        <pt x="765" y="930" on="0"/>
        <pt x="672" y="837" on="0"/>
        <pt x="545" y="783" on="0"/>
        <pt x="472" y="783" on="1"/>
        <pt x="399" y="783" on="0"/>
        <pt x="273" y="837" on="0"/>
        <pt x="180" y="930" on="0"/>
        <pt x="127" y="1054" on="0"/>
      </contour>
      <contour>
        <pt x="298" y="1121" on="1"/>
        <pt x="298" y="1084" on="0"/>
        <pt x="324" y="1020" on="0"/>
        <pt x="371" y="973" on="0"/>
        <pt x="434" y="946" on="0"/>
        <pt x="472" y="946" on="1"/>
        <pt x="509" y="946" on="0"/>
        <pt x="572" y="973" on="0"/>
        <pt x="619" y="1020" on="0"/>
        <pt x="645" y="1084" on="0"/>
        <pt x="645" y="1121" on="1"/>
        <pt x="645" y="1159" on="0"/>
        <pt x="619" y="1224" on="0"/>
        <pt x="572" y="1272" on="0"/>
        <pt x="509" y="1300" on="0"/>
        <pt x="472" y="1300" on="1"/>
        <pt x="434" y="1300" on="0"/>
        <pt x="371" y="1272" on="0"/>
        <pt x="324" y="1224" on="0"/>
        <pt x="298" y="1159" on="0"/>
      </contour>
    </TTGlyph>
    <TTGlyph name="dieresis" xMin="73" yMin="1180" xMax="722" yMax="1454">
      <contour>
        <pt x="349" y="1314" on="1"/>
        <pt x="349" y="1286" on="0"/>
        <pt x="327" y="1237" on="0"/>
        <pt x="288" y="1201" on="0"/>
        <pt x="237" y="1180" on="0"/>
        <pt x="208" y="1180" on="1"/>
        <pt x="181" y="1180" on="0"/>
        <pt x="132" y="1201" on="0"/>
        <pt x="95" y="1237" on="0"/>
        <pt x="73" y="1286" on="0"/>
        <pt x="73" y="1314" on="1"/>
        <pt x="73" y="1343" on="0"/>
        <pt x="95" y="1394" on="0"/>
        <pt x="132" y="1432" on="0"/>
        <pt x="181" y="1454" on="0"/>
        <pt x="208" y="1454" on="1"/>
        <pt x="237" y="1454" on="0"/>
        <pt x="288" y="1432" on="0"/>
        <pt x="327" y="1394" on="0"/>
        <pt x="349" y="1343" on="0"/>
      </contour>
      <contour>
        <pt x="722" y="1314" on="1"/>
        <pt x="722" y="1286" on="0"/>
        <pt x="700" y="1237" on="0"/>
        <pt x="663" y="1201" on="0"/>
        <pt x="612" y="1180" on="0"/>
        <pt x="583" y="1180" on="1"/>
        <pt x="555" y="1180" on="0"/>
        <pt x="505" y="1201" on="0"/>
        <pt x="468" y="1237" on="0"/>
        <pt x="446" y="1286" on="0"/>
        <pt x="446" y="1314" on="1"/>
        <pt x="446" y="1343" on="0"/>
        <pt x="468" y="1394" on="0"/>
        <pt x="505" y="1432" on="0"/>
        <pt x="555" y="1454" on="0"/>
        <pt x="583" y="1454" on="1"/>
        <pt x="612" y="1454" on="0"/>
        <pt x="663" y="1432" on="0"/>
        <pt x="700" y="1394" on="0"/>
        <pt x="722" y="1343" on="0"/>
      </contour>
    </TTGlyph>
    <TTGlyph name="dieresis.case" xMin="117" yMin="1548" xMax="710" yMax="1788">
      <contour>
        <pt x="359" y="1666" on="1"/>
        <pt x="359" y="1642" on="0"/>
        <pt x="339" y="1599" on="0"/>
        <pt x="306" y="1567" on="0"/>
        <pt x="261" y="1548" on="0"/>
        <pt x="236" y="1548" on="1"/>
        <pt x="212" y="1548" on="0"/>
        <pt x="169" y="1567" on="0"/>
        <pt x="136" y="1599" on="0"/>
        <pt x="117" y="1642" on="0"/>
        <pt x="117" y="1666" on="1"/>
        <pt x="117" y="1691" on="0"/>
        <pt x="136" y="1736" on="0"/>
        <pt x="169" y="1769" on="0"/>
        <pt x="212" y="1788" on="0"/>
        <pt x="236" y="1788" on="1"/>
        <pt x="261" y="1788" on="0"/>
        <pt x="306" y="1769" on="0"/>
        <pt x="339" y="1736" on="0"/>
        <pt x="359" y="1691" on="0"/>
      </contour>
      <contour>
        <pt x="710" y="1666" on="1"/>
        <pt x="710" y="1642" on="0"/>
        <pt x="691" y="1599" on="0"/>
        <pt x="658" y="1567" on="0"/>
        <pt x="614" y="1548" on="0"/>
        <pt x="589" y="1548" on="1"/>
        <pt x="564" y="1548" on="0"/>
        <pt x="521" y="1567" on="0"/>
        <pt x="488" y="1599" on="0"/>
        <pt x="469" y="1642" on="0"/>
        <pt x="469" y="1666" on="1"/>
        <pt x="469" y="1691" on="0"/>
        <pt x="488" y="1736" on="0"/>
        <pt x="521" y="1769" on="0"/>
        <pt x="564" y="1788" on="0"/>
        <pt x="589" y="1788" on="1"/>
        <pt x="614" y="1788" on="0"/>
        <pt x="658" y="1769" on="0"/>
        <pt x="691" y="1736" on="0"/>
        <pt x="710" y="1691" on="0"/>
      </contour>
    </TTGlyph>
    <TTGlyph name="divide" xMin="104" yMin="168" xMax="1100" yMax="1175">
      <contour>
        <pt x="126" y="760" on="1"/>
        <pt x="1100" y="760" on="1"/>
        <pt x="1078" y="583" on="1"/>
        <pt x="104" y="583" on="1"/>
      </contour>
      <contour>
        <pt x="496" y="1010" on="1"/>
        <pt x="496" y="1044" on="0"/>
        <pt x="523" y="1104" on="0"/>
        <pt x="568" y="1149" on="0"/>
        <pt x="629" y="1175" on="0"/>
        <pt x="663" y="1175" on="1"/>
        <pt x="691" y="1175" on="0"/>
        <pt x="740" y="1154" on="0"/>
        <pt x="774" y="1118" on="0"/>
        <pt x="794" y="1070" on="0"/>
        <pt x="794" y="1042" on="1"/>
        <pt x="794" y="1007" on="0"/>
        <pt x="767" y="948" on="0"/>
        <pt x="720" y="905" on="0"/>
        <pt x="660" y="880" on="0"/>
        <pt x="627" y="880" on="1"/>
        <pt x="598" y="880" on="0"/>
        <pt x="549" y="900" on="0"/>
        <pt x="515" y="935" on="0"/>
        <pt x="496" y="983" on="0"/>
      </contour>
      <contour>
        <pt x="408" y="298" on="1"/>
        <pt x="408" y="332" on="0"/>
        <pt x="435" y="392" on="0"/>
        <pt x="480" y="437" on="0"/>
        <pt x="541" y="463" on="0"/>
        <pt x="575" y="463" on="1"/>
        <pt x="603" y="463" on="0"/>
        <pt x="652" y="442" on="0"/>
        <pt x="686" y="406" on="0"/>
        <pt x="706" y="358" on="0"/>
        <pt x="706" y="330" on="1"/>
        <pt x="706" y="295" on="0"/>
        <pt x="679" y="236" on="0"/>
        <pt x="632" y="193" on="0"/>
        <pt x="572" y="168" on="0"/>
        <pt x="539" y="168" on="1"/>
        <pt x="510" y="168" on="0"/>
        <pt x="461" y="188" on="0"/>
        <pt x="427" y="223" on="0"/>
        <pt x="408" y="271" on="0"/>
      </contour>
    </TTGlyph>
    <TTGlyph name="dollar" xMin="35" yMin="-225" xMax="1149" yMax="1646">
      <contour>
        <pt x="406" y="-9" on="1"/>
        <pt x="291" y="6" on="0"/>
        <pt x="98" y="102" on="0"/>
        <pt x="35" y="174" on="1"/>
        <pt x="122" y="283" on="1"/>
        <pt x="133" y="297" on="0"/>
        <pt x="167" y="315" on="0"/>
        <pt x="186" y="315" on="1"/>
        <pt x="207" y="315" on="0"/>
        <pt x="252" y="283" on="0"/>
        <pt x="311" y="241" on="0"/>
        <pt x="390" y="198" on="0"/>
        <pt x="446" y="188" on="1"/>
        <pt x="540" y="647" on="1"/>
        <pt x="477" y="666" on="0"/>
        <pt x="355" y="715" on="0"/>
        <pt x="259" y="793" on="0"/>
        <pt x="199" y="910" on="0"/>
        <pt x="199" y="996" on="1"/>
        <pt x="199" y="1083" on="0"/>
        <pt x="269" y="1245" on="0"/>
        <pt x="401" y="1372" on="0"/>
        <pt x="589" y="1453" on="0"/>
        <pt x="707" y="1458" on="1"/>
        <pt x="733" y="1585" on="1"/>
        <pt x="738" y="1609" on="0"/>
        <pt x="778" y="1646" on="0"/>
        <pt x="805" y="1646" on="1"/>
        <pt x="893" y="1646" on="1"/>
        <pt x="853" y="1450" on="1"/>
        <pt x="957" y="1433" on="0"/>
        <pt x="1100" y="1348" on="0"/>
        <pt x="1149" y="1293" on="1"/>
        <pt x="1081" y="1206" on="1"/>
        <pt x="1066" y="1186" on="0"/>
        <pt x="1037" y="1167" on="0"/>
        <pt x="1017" y="1167" on="1"/>
        <pt x="1002" y="1167" on="0"/>
        <pt x="963" y="1187" on="0"/>
        <pt x="914" y="1215" on="0"/>
        <pt x="851" y="1243" on="0"/>
        <pt x="812" y="1252" on="1"/>
        <pt x="725" y="828" on="1"/>
        <pt x="768" y="814" on="0"/>
        <pt x="854" y="784" on="0"/>
        <pt x="933" y="745" on="0"/>
        <pt x="1000" y="696" on="0"/>
        <pt x="1050" y="630" on="0"/>
        <pt x="1079" y="546" on="0"/>
        <pt x="1079" y="492" on="1"/>
        <pt x="1079" y="394" on="0"/>
        <pt x="1006" y="217" on="0"/>
        <pt x="870" y="81" on="0"/>
        <pt x="675" y="-6" on="0"/>
        <pt x="553" y="-14" on="1"/>
        <pt x="522" y="-165" on="1"/>
        <pt x="517" y="-188" on="0"/>
        <pt x="477" y="-225" on="0"/>
        <pt x="450" y="-225" on="1"/>
        <pt x="362" y="-225" on="1"/>
      </contour>
      <contour>
        <pt x="846" y="434" on="1"/>
        <pt x="846" y="468" on="0"/>
        <pt x="821" y="520" on="0"/>
        <pt x="776" y="560" on="0"/>
        <pt x="715" y="590" on="0"/>
        <pt x="679" y="603" on="1"/>
        <pt x="594" y="185" on="1"/>
        <pt x="716" y="199" on="0"/>
        <pt x="846" y="332" on="0"/>
      </contour>
      <contour>
        <pt x="428" y="1049" on="1"/>
        <pt x="428" y="1015" on="0"/>
        <pt x="452" y="963" on="0"/>
        <pt x="494" y="921" on="0"/>
        <pt x="552" y="889" on="0"/>
        <pt x="587" y="875" on="1"/>
        <pt x="665" y="1256" on="1"/>
        <pt x="602" y="1249" on="0"/>
        <pt x="512" y="1211" on="0"/>
        <pt x="455" y="1156" on="0"/>
        <pt x="428" y="1087" on="0"/>
      </contour>
    </TTGlyph>
    <TTGlyph name="dotaccent" xMin="248" yMin="1173" xMax="565" yMax="1487">
      <contour>
        <pt x="565" y="1329" on="1"/>
        <pt x="565" y="1297" on="0"/>
        <pt x="539" y="1240" on="0"/>
        <pt x="495" y="1198" on="0"/>
        <pt x="437" y="1173" on="0"/>
        <pt x="404" y="1173" on="1"/>
        <pt x="372" y="1173" on="0"/>
        <pt x="315" y="1198" on="0"/>
        <pt x="273" y="1240" on="0"/>
        <pt x="248" y="1297" on="0"/>
        <pt x="248" y="1329" on="1"/>
        <pt x="248" y="1362" on="0"/>
        <pt x="273" y="1419" on="0"/>
        <pt x="315" y="1462" on="0"/>
        <pt x="372" y="1487" on="0"/>
        <pt x="404" y="1487" on="1"/>
        <pt x="437" y="1487" on="0"/>
        <pt x="495" y="1462" on="0"/>
        <pt x="539" y="1419" on="0"/>
        <pt x="565" y="1362" on="0"/>
      </contour>
    </TTGlyph>
    <TTGlyph name="dotaccent.case" xMin="279" yMin="1548" xMax="581" yMax="1847">
      <contour>
        <pt x="581" y="1696" on="1"/>
        <pt x="581" y="1666" on="0"/>
        <pt x="556" y="1613" on="0"/>
        <pt x="514" y="1572" on="0"/>
        <pt x="458" y="1548" on="0"/>
        <pt x="427" y="1548" on="1"/>
        <pt x="398" y="1548" on="0"/>
        <pt x="344" y="1572" on="0"/>
        <pt x="303" y="1613" on="0"/>
        <pt x="279" y="1666" on="0"/>
        <pt x="279" y="1696" on="1"/>
        <pt x="279" y="1727" on="0"/>
        <pt x="303" y="1782" on="0"/>
        <pt x="344" y="1823" on="0"/>
        <pt x="398" y="1847" on="0"/>
        <pt x="427" y="1847" on="1"/>
        <pt x="458" y="1847" on="0"/>
        <pt x="514" y="1823" on="0"/>
        <pt x="556" y="1782" on="0"/>
        <pt x="581" y="1727" on="0"/>
      </contour>
    </TTGlyph>
    <TTGlyph name="dotlessi" xMin="74" yMin="0" xMax="441" yMax="1026">
      <contour>
        <pt x="441" y="1026" on="1"/>
        <pt x="318" y="0" on="1"/>
        <pt x="74" y="0" on="1"/>
        <pt x="197" y="1026" on="1"/>
      </contour>
    </TTGlyph>
    <TTGlyph name="e" xMin="49" yMin="-15" xMax="918" yMax="1040">
      <contour>
        <pt x="918" y="788" on="1"/>
        <pt x="918" y="719" on="0"/>
        <pt x="863" y="605" on="0"/>
        <pt x="721" y="515" on="0"/>
        <pt x="478" y="450" on="0"/>
        <pt x="290" y="431" on="1"/>
        <pt x="290" y="418" on="1"/>
        <pt x="290" y="176" on="0"/>
        <pt x="495" y="176" on="1"/>
        <pt x="539" y="176" on="0"/>
        <pt x="607" y="193" on="0"/>
        <pt x="658" y="217" on="0"/>
        <pt x="699" y="247" on="0"/>
        <pt x="734" y="271" on="0"/>
        <pt x="768" y="288" on="0"/>
        <pt x="788" y="288" on="1"/>
        <pt x="800" y="288" on="0"/>
        <pt x="824" y="277" on="0"/>
        <pt x="832" y="266" on="1"/>
        <pt x="895" y="190" on="1"/>
        <pt x="842" y="137" on="0"/>
        <pt x="740" y="59" on="0"/>
        <pt x="634" y="9" on="0"/>
        <pt x="516" y="-15" on="0"/>
        <pt x="446" y="-15" on="1"/>
        <pt x="356" y="-15" on="0"/>
        <pt x="210" y="46" on="0"/>
        <pt x="106" y="157" on="0"/>
        <pt x="49" y="314" on="0"/>
        <pt x="49" y="411" on="1"/>
        <pt x="49" y="492" on="0"/>
        <pt x="84" y="648" on="0"/>
        <pt x="150" y="788" on="0"/>
        <pt x="246" y="906" on="0"/>
        <pt x="367" y="992" on="0"/>
        <pt x="512" y="1040" on="0"/>
        <pt x="595" y="1040" on="1"/>
        <pt x="676" y="1040" on="0"/>
        <pt x="797" y="994" on="0"/>
        <pt x="878" y="921" on="0"/>
        <pt x="918" y="831" on="0"/>
      </contour>
      <contour>
        <pt x="581" y="868" on="1"/>
        <pt x="531" y="868" on="0"/>
        <pt x="445" y="827" on="0"/>
        <pt x="376" y="753" on="0"/>
        <pt x="325" y="650" on="0"/>
        <pt x="310" y="589" on="1"/>
        <pt x="434" y="606" on="0"/>
        <pt x="585" y="646" on="0"/>
        <pt x="668" y="694" on="0"/>
        <pt x="695" y="748" on="0"/>
        <pt x="695" y="779" on="1"/>
        <pt x="695" y="794" on="0"/>
        <pt x="682" y="826" on="0"/>
        <pt x="655" y="851" on="0"/>
        <pt x="612" y="868" on="0"/>
      </contour>
    </TTGlyph>
    <TTGlyph name="eacute" xMin="49" yMin="-15" xMax="961" yMax="1461">
      <component glyphName="e" x="0" y="0" flags="0x204"/>
      <component glyphName="acute" x="219" y="0" flags="0x4"/>
    </TTGlyph>
    <TTGlyph name="ecircumflex" xMin="49" yMin="-15" xMax="921" yMax="1445">
      <component glyphName="e" x="0" y="0" flags="0x204"/>
      <component glyphName="circumflex" x="219" y="0" flags="0x4"/>
    </TTGlyph>
    <TTGlyph name="edieresis" xMin="49" yMin="-15" xMax="941" yMax="1454">
      <component glyphName="e" x="0" y="0" flags="0x204"/>
      <component glyphName="dieresis" x="219" y="0" flags="0x4"/>
    </TTGlyph>
    <TTGlyph name="egrave" xMin="49" yMin="-15" xMax="918" yMax="1461">
      <component glyphName="e" x="0" y="0" flags="0x204"/>
      <component glyphName="grave" x="264" y="0" flags="0x4"/>
    </TTGlyph>
    <TTGlyph name="eight" xMin="65" yMin="-16" xMax="1106" yMax="1461">
      <contour>
        <pt x="518" y="-16" on="1"/>
        <pt x="415" y="-16" on="0"/>
        <pt x="248" y="37" on="0"/>
        <pt x="129" y="135" on="0"/>
        <pt x="65" y="272" on="0"/>
        <pt x="65" y="356" on="1"/>
        <pt x="65" y="505" on="0"/>
        <pt x="218" y="709" on="0"/>
        <pt x="375" y="754" on="1"/>
        <pt x="286" y="794" on="0"/>
        <pt x="198" y="934" on="0"/>
        <pt x="198" y="1028" on="1"/>
        <pt x="198" y="1120" on="0"/>
        <pt x="274" y="1279" on="0"/>
        <pt x="408" y="1395" on="0"/>
        <pt x="592" y="1461" on="0"/>
        <pt x="699" y="1461" on="1"/>
        <pt x="792" y="1461" on="0"/>
        <pt x="942" y="1407" on="0"/>
        <pt x="1048" y="1313" on="0"/>
        <pt x="1106" y="1187" on="0"/>
        <pt x="1106" y="1114" on="1"/>
        <pt x="1106" y="984" on="0"/>
        <pt x="977" y="799" on="0"/>
        <pt x="851" y="751" on="1"/>
        <pt x="964" y="712" on="0"/>
        <pt x="1074" y="559" on="0"/>
        <pt x="1074" y="452" on="1"/>
        <pt x="1074" y="345" on="0"/>
        <pt x="990" y="172" on="0"/>
        <pt x="842" y="50" on="0"/>
        <pt x="638" y="-16" on="0"/>
      </contour>
      <contour>
        <pt x="540" y="171" on="1"/>
        <pt x="609" y="171" on="0"/>
        <pt x="716" y="212" on="0"/>
        <pt x="790" y="285" on="0"/>
        <pt x="828" y="387" on="0"/>
        <pt x="828" y="448" on="1"/>
        <pt x="828" y="499" on="0"/>
        <pt x="796" y="576" on="0"/>
        <pt x="736" y="628" on="0"/>
        <pt x="652" y="654" on="0"/>
        <pt x="600" y="654" on="1"/>
        <pt x="534" y="654" on="0"/>
        <pt x="429" y="617" on="0"/>
        <pt x="354" y="547" on="0"/>
        <pt x="314" y="443" on="0"/>
        <pt x="314" y="377" on="1"/>
        <pt x="314" y="332" on="0"/>
        <pt x="343" y="257" on="0"/>
        <pt x="400" y="202" on="0"/>
        <pt x="484" y="171" on="0"/>
      </contour>
      <contour>
        <pt x="622" y="840" on="1"/>
        <pt x="695" y="840" on="0"/>
        <pt x="791" y="888" on="0"/>
        <pt x="848" y="963" on="0"/>
        <pt x="871" y="1054" on="0"/>
        <pt x="871" y="1097" on="1"/>
        <pt x="871" y="1134" on="0"/>
        <pt x="849" y="1200" on="0"/>
        <pt x="802" y="1250" on="0"/>
        <pt x="729" y="1280" on="0"/>
        <pt x="678" y="1280" on="1"/>
        <pt x="616" y="1280" on="0"/>
        <pt x="522" y="1240" on="0"/>
        <pt x="460" y="1173" on="0"/>
        <pt x="429" y="1083" on="0"/>
        <pt x="429" y="1032" on="1"/>
        <pt x="429" y="995" on="0"/>
        <pt x="449" y="926" on="0"/>
        <pt x="495" y="872" on="0"/>
        <pt x="569" y="840" on="0"/>
      </contour>
    </TTGlyph>
    <TTGlyph name="ellipsis" xMin="34" yMin="-14" xMax="1405" yMax="287">
      <contour>
        <pt x="34" y="136" on="1"/>
        <pt x="34" y="167" on="0"/>
        <pt x="57" y="223" on="0"/>
        <pt x="98" y="263" on="0"/>
        <pt x="153" y="287" on="0"/>
        <pt x="185" y="287" on="1"/>
        <pt x="217" y="287" on="0"/>
        <pt x="272" y="263" on="0"/>
        <pt x="313" y="223" on="0"/>
        <pt x="337" y="167" on="0"/>
        <pt x="337" y="136" on="1"/>
        <pt x="337" y="104" on="0"/>
        <pt x="313" y="49" on="0"/>
        <pt x="272" y="9" on="0"/>
        <pt x="217" y="-14" on="0"/>
        <pt x="185" y="-14" on="1"/>
        <pt x="153" y="-14" on="0"/>
        <pt x="98" y="9" on="0"/>
        <pt x="57" y="49" on="0"/>
        <pt x="34" y="104" on="0"/>
      </contour>
      <contour>
        <pt x="568" y="136" on="1"/>
        <pt x="568" y="167" on="0"/>
        <pt x="591" y="223" on="0"/>
        <pt x="632" y="263" on="0"/>
        <pt x="687" y="287" on="0"/>
        <pt x="719" y="287" on="1"/>
        <pt x="751" y="287" on="0"/>
        <pt x="806" y="263" on="0"/>
        <pt x="847" y="223" on="0"/>
        <pt x="871" y="167" on="0"/>
        <pt x="871" y="136" on="1"/>
        <pt x="871" y="104" on="0"/>
        <pt x="847" y="49" on="0"/>
        <pt x="806" y="9" on="0"/>
        <pt x="751" y="-14" on="0"/>
        <pt x="719" y="-14" on="1"/>
        <pt x="687" y="-14" on="0"/>
        <pt x="632" y="9" on="0"/>
        <pt x="591" y="49" on="0"/>
        <pt x="568" y="104" on="0"/>
      </contour>
      <contour>
        <pt x="1102" y="136" on="1"/>
        <pt x="1102" y="167" on="0"/>
        <pt x="1125" y="223" on="0"/>
        <pt x="1165" y="263" on="0"/>
        <pt x="1221" y="287" on="0"/>
        <pt x="1253" y="287" on="1"/>
        <pt x="1285" y="287" on="0"/>
        <pt x="1340" y="263" on="0"/>
        <pt x="1381" y="223" on="0"/>
        <pt x="1405" y="167" on="0"/>
        <pt x="1405" y="136" on="1"/>
        <pt x="1405" y="104" on="0"/>
        <pt x="1381" y="49" on="0"/>
        <pt x="1340" y="9" on="0"/>
        <pt x="1285" y="-14" on="0"/>
        <pt x="1253" y="-14" on="1"/>
        <pt x="1221" y="-14" on="0"/>
        <pt x="1165" y="9" on="0"/>
        <pt x="1125" y="49" on="0"/>
        <pt x="1102" y="104" on="0"/>
      </contour>
    </TTGlyph>
    <TTGlyph name="emdash" xMin="155" yMin="513" xMax="1428" yMax="683">
      <contour>
        <pt x="176" y="683" on="1"/>
        <pt x="1428" y="683" on="1"/>
        <pt x="1407" y="513" on="1"/>
        <pt x="155" y="513" on="1"/>
      </contour>
    </TTGlyph>
    <TTGlyph name="endash" xMin="155" yMin="513" xMax="923" yMax="683">
      <contour>
        <pt x="176" y="683" on="1"/>
        <pt x="923" y="683" on="1"/>
        <pt x="902" y="513" on="1"/>
        <pt x="155" y="513" on="1"/>
      </contour>
    </TTGlyph>
    <TTGlyph name="eogonek" xMin="49" yMin="-345" xMax="918" yMax="1040">
      <contour>
        <pt x="590" y="-190" on="1"/>
        <pt x="608" y="-190" on="0"/>
        <pt x="611" y="-206" on="1"/>
        <pt x="635" y="-294" on="1"/>
        <pt x="603" y="-316" on="0"/>
        <pt x="507" y="-345" on="0"/>
        <pt x="456" y="-345" on="1"/>
        <pt x="371" y="-345" on="0"/>
        <pt x="283" y="-271" on="0"/>
        <pt x="283" y="-214" on="1"/>
        <pt x="283" y="-159" on="0"/>
        <pt x="351" y="-57" on="0"/>
        <pt x="416" y="-14" on="1"/>
        <pt x="333" y="-9" on="0"/>
        <pt x="197" y="56" on="0"/>
        <pt x="101" y="166" on="0"/>
        <pt x="49" y="318" on="0"/>
        <pt x="49" y="411" on="1"/>
        <pt x="49" y="492" on="0"/>
        <pt x="84" y="648" on="0"/>
        <pt x="150" y="788" on="0"/>
        <pt x="246" y="906" on="0"/>
        <pt x="367" y="992" on="0"/>
        <pt x="512" y="1040" on="0"/>
        <pt x="595" y="1040" on="1"/>
        <pt x="676" y="1040" on="0"/>
        <pt x="797" y="994" on="0"/>
        <pt x="878" y="921" on="0"/>
        <pt x="918" y="831" on="0"/>
        <pt x="918" y="788" on="1"/>
        <pt x="918" y="719" on="0"/>
        <pt x="863" y="605" on="0"/>
        <pt x="721" y="515" on="0"/>
        <pt x="478" y="450" on="0"/>
        <pt x="290" y="431" on="1"/>
        <pt x="290" y="418" on="1"/>
        <pt x="290" y="176" on="0"/>
        <pt x="495" y="176" on="1"/>
        <pt x="539" y="176" on="0"/>
        <pt x="607" y="193" on="0"/>
        <pt x="658" y="217" on="0"/>
        <pt x="699" y="247" on="0"/>
        <pt x="734" y="271" on="0"/>
        <pt x="768" y="288" on="0"/>
        <pt x="788" y="288" on="1"/>
        <pt x="800" y="288" on="0"/>
        <pt x="823" y="276" on="0"/>
        <pt x="832" y="266" on="1"/>
        <pt x="895" y="190" on="1"/>
        <pt x="815" y="110" on="0"/>
        <pt x="663" y="15" on="0"/>
        <pt x="574" y="-3" on="1"/>
        <pt x="554" y="-14" on="0"/>
        <pt x="515" y="-45" on="0"/>
        <pt x="485" y="-82" on="0"/>
        <pt x="467" y="-124" on="0"/>
        <pt x="467" y="-148" on="1"/>
        <pt x="467" y="-174" on="0"/>
        <pt x="496" y="-206" on="0"/>
        <pt x="522" y="-206" on="1"/>
        <pt x="539" y="-206" on="0"/>
        <pt x="561" y="-201" on="0"/>
        <pt x="576" y="-195" on="0"/>
        <pt x="585" y="-190" on="0"/>
      </contour>
      <contour>
        <pt x="581" y="868" on="1"/>
        <pt x="531" y="868" on="0"/>
        <pt x="445" y="827" on="0"/>
        <pt x="376" y="753" on="0"/>
        <pt x="325" y="650" on="0"/>
        <pt x="310" y="589" on="1"/>
        <pt x="434" y="606" on="0"/>
        <pt x="585" y="646" on="0"/>
        <pt x="668" y="694" on="0"/>
        <pt x="695" y="748" on="0"/>
        <pt x="695" y="779" on="1"/>
        <pt x="695" y="794" on="0"/>
        <pt x="682" y="826" on="0"/>
        <pt x="655" y="851" on="0"/>
        <pt x="612" y="868" on="0"/>
      </contour>
    </TTGlyph>
    <TTGlyph name="equal" xMin="126" yMin="409" xMax="1073" yMax="936">
      <contour>
        <pt x="148" y="586" on="1"/>
        <pt x="1031" y="586" on="1"/>
        <pt x="1009" y="409" on="1"/>
        <pt x="126" y="409" on="1"/>
      </contour>
      <contour>
        <pt x="192" y="936" on="1"/>
        <pt x="1073" y="936" on="1"/>
        <pt x="1053" y="758" on="1"/>
        <pt x="170" y="758" on="1"/>
      </contour>
    </TTGlyph>
    <TTGlyph name="eth" xMin="50" yMin="-15" xMax="1007" yMax="1429">
      <contour>
        <pt x="430" y="1060" on="1"/>
        <pt x="423" y="1071" on="0"/>
        <pt x="423" y="1084" on="1"/>
        <pt x="423" y="1108" on="0"/>
        <pt x="444" y="1121" on="1"/>
        <pt x="560" y="1196" on="1"/>
        <pt x="493" y="1231" on="0"/>
        <pt x="409" y="1256" on="1"/>
        <pt x="360" y="1272" on="0"/>
        <pt x="360" y="1309" on="1"/>
        <pt x="360" y="1329" on="0"/>
        <pt x="372" y="1353" on="1"/>
        <pt x="408" y="1429" on="1"/>
        <pt x="502" y="1412" on="0"/>
        <pt x="672" y="1346" on="0"/>
        <pt x="744" y="1294" on="1"/>
        <pt x="928" y="1408" on="1"/>
        <pt x="968" y="1330" on="1"/>
        <pt x="975" y="1316" on="0"/>
        <pt x="975" y="1304" on="1"/>
        <pt x="975" y="1280" on="0"/>
        <pt x="950" y="1263" on="1"/>
        <pt x="848" y="1198" on="1"/>
        <pt x="923" y="1113" on="0"/>
        <pt x="1007" y="879" on="0"/>
        <pt x="1007" y="726" on="1"/>
        <pt x="1007" y="556" on="0"/>
        <pt x="932" y="282" on="0"/>
        <pt x="789" y="89" on="0"/>
        <pt x="580" y="-15" on="0"/>
        <pt x="447" y="-15" on="1"/>
        <pt x="360" y="-15" on="0"/>
        <pt x="214" y="43" on="0"/>
        <pt x="109" y="152" on="0"/>
        <pt x="50" y="308" on="0"/>
        <pt x="50" y="405" on="1"/>
        <pt x="50" y="512" on="0"/>
        <pt x="123" y="703" on="0"/>
        <pt x="252" y="847" on="0"/>
        <pt x="428" y="931" on="0"/>
        <pt x="532" y="931" on="1"/>
        <pt x="626" y="931" on="0"/>
        <pt x="769" y="855" on="0"/>
        <pt x="817" y="780" on="1"/>
        <pt x="812" y="889" on="0"/>
        <pt x="748" y="1052" on="0"/>
        <pt x="682" y="1114" on="1"/>
        <pt x="475" y="981" on="1"/>
      </contour>
      <contour>
        <pt x="476" y="167" on="1"/>
        <pt x="527" y="167" on="0"/>
        <pt x="620" y="208" on="0"/>
        <pt x="697" y="302" on="0"/>
        <pt x="755" y="454" on="0"/>
        <pt x="771" y="565" on="1"/>
        <pt x="761" y="602" on="0"/>
        <pt x="727" y="670" on="0"/>
        <pt x="676" y="720" on="0"/>
        <pt x="605" y="750" on="0"/>
        <pt x="558" y="750" on="1"/>
        <pt x="495" y="750" on="0"/>
        <pt x="394" y="698" on="0"/>
        <pt x="324" y="608" on="0"/>
        <pt x="287" y="486" on="0"/>
        <pt x="287" y="416" on="1"/>
        <pt x="287" y="357" on="0"/>
        <pt x="315" y="264" on="0"/>
        <pt x="365" y="200" on="0"/>
        <pt x="435" y="167" on="0"/>
      </contour>
    </TTGlyph>
    <TTGlyph name="exclam" xMin="154" yMin="-14" xMax="566" yMax="1446">
      <contour>
        <pt x="566" y="1446" on="1"/>
        <pt x="496" y="873" on="1"/>
        <pt x="485" y="782" on="0"/>
        <pt x="445" y="607" on="0"/>
        <pt x="419" y="508" on="1"/>
        <pt x="258" y="508" on="1"/>
        <pt x="258" y="528" on="0"/>
        <pt x="257" y="567" on="0"/>
        <pt x="257" y="586" on="1"/>
        <pt x="257" y="661" on="0"/>
        <pt x="264" y="801" on="0"/>
        <pt x="273" y="873" on="1"/>
        <pt x="343" y="1446" on="1"/>
      </contour>
      <contour>
        <pt x="154" y="136" on="1"/>
        <pt x="154" y="167" on="0"/>
        <pt x="177" y="223" on="0"/>
        <pt x="217" y="263" on="0"/>
        <pt x="273" y="287" on="0"/>
        <pt x="305" y="287" on="1"/>
        <pt x="337" y="287" on="0"/>
        <pt x="392" y="263" on="0"/>
        <pt x="433" y="223" on="0"/>
        <pt x="457" y="167" on="0"/>
        <pt x="457" y="136" on="1"/>
        <pt x="457" y="104" on="0"/>
        <pt x="433" y="49" on="0"/>
        <pt x="392" y="9" on="0"/>
        <pt x="337" y="-14" on="0"/>
        <pt x="305" y="-14" on="1"/>
        <pt x="273" y="-14" on="0"/>
        <pt x="217" y="9" on="0"/>
        <pt x="177" y="49" on="0"/>
        <pt x="154" y="104" on="0"/>
      </contour>
    </TTGlyph>
    <TTGlyph name="exclamdown" xMin="128" yMin="-337" xMax="535" yMax="1042">
      <contour>
        <pt x="128" y="-337" on="1"/>
        <pt x="194" y="198" on="1"/>
        <pt x="205" y="289" on="0"/>
        <pt x="243" y="463" on="0"/>
        <pt x="268" y="562" on="1"/>
        <pt x="424" y="562" on="1"/>
        <pt x="424" y="545" on="0"/>
        <pt x="425" y="511" on="0"/>
        <pt x="425" y="494" on="1"/>
        <pt x="425" y="416" on="0"/>
        <pt x="417" y="273" on="0"/>
        <pt x="408" y="198" on="1"/>
        <pt x="343" y="-337" on="1"/>
      </contour>
      <contour>
        <pt x="232" y="891" on="1"/>
        <pt x="232" y="922" on="0"/>
        <pt x="255" y="978" on="0"/>
        <pt x="296" y="1018" on="0"/>
        <pt x="351" y="1042" on="0"/>
        <pt x="383" y="1042" on="1"/>
        <pt x="415" y="1042" on="0"/>
        <pt x="470" y="1018" on="0"/>
        <pt x="511" y="978" on="0"/>
        <pt x="535" y="922" on="0"/>
        <pt x="535" y="891" on="1"/>
        <pt x="535" y="859" on="0"/>
        <pt x="511" y="804" on="0"/>
        <pt x="470" y="764" on="0"/>
        <pt x="415" y="741" on="0"/>
        <pt x="383" y="741" on="1"/>
        <pt x="351" y="741" on="0"/>
        <pt x="296" y="764" on="0"/>
        <pt x="255" y="804" on="0"/>
        <pt x="232" y="859" on="0"/>
      </contour>
    </TTGlyph>
    <TTGlyph name="f" xMin="58" yMin="-247" xMax="753" yMax="1471">
      <contour>
        <pt x="432" y="841" on="1"/>
        <pt x="335" y="42" on="1"/>
        <pt x="284" y="-146" on="1"/>
        <pt x="270" y="-195" on="0"/>
        <pt x="211" y="-247" on="0"/>
        <pt x="157" y="-247" on="1"/>
        <pt x="58" y="-247" on="1"/>
        <pt x="189" y="841" on="1"/>
        <pt x="110" y="855" on="1"/>
        <pt x="88" y="859" on="0"/>
        <pt x="60" y="884" on="0"/>
        <pt x="60" y="907" on="1"/>
        <pt x="60" y="908" on="0"/>
        <pt x="61" y="914" on="0"/>
        <pt x="63" y="935" on="0"/>
        <pt x="68" y="978" on="0"/>
        <pt x="73" y="1017" on="1"/>
        <pt x="211" y="1017" on="1"/>
        <pt x="220" y="1093" on="1"/>
        <pt x="231" y="1181" on="0"/>
        <pt x="302" y="1321" on="0"/>
        <pt x="411" y="1419" on="0"/>
        <pt x="553" y="1471" on="0"/>
        <pt x="635" y="1471" on="1"/>
        <pt x="699" y="1471" on="0"/>
        <pt x="753" y="1452" on="1"/>
        <pt x="731" y="1324" on="1"/>
        <pt x="729" y="1313" on="0"/>
        <pt x="714" y="1300" on="0"/>
        <pt x="692" y="1294" on="0"/>
        <pt x="665" y="1292" on="0"/>
        <pt x="651" y="1292" on="1"/>
        <pt x="611" y="1292" on="0"/>
        <pt x="544" y="1270" on="0"/>
        <pt x="493" y="1221" on="0"/>
        <pt x="460" y="1142" on="0"/>
        <pt x="453" y="1085" on="1"/>
        <pt x="445" y="1017" on="1"/>
        <pt x="675" y="1017" on="1"/>
        <pt x="652" y="841" on="1"/>
      </contour>
    </TTGlyph>
    <TTGlyph name="fi" xMin="56" yMin="-249" xMax="1033" yMax="1486">
      <contour>
        <pt x="443" y="1017" on="1"/>
        <pt x="1033" y="1017" on="1"/>
        <pt x="910" y="0" on="1"/>
        <pt x="667" y="0" on="1"/>
        <pt x="771" y="841" on="1"/>
        <pt x="431" y="841" on="1"/>
        <pt x="333" y="41" on="1"/>
        <pt x="283" y="-147" on="1"/>
        <pt x="270" y="-196" on="0"/>
        <pt x="209" y="-249" on="0"/>
        <pt x="155" y="-249" on="1"/>
        <pt x="56" y="-249" on="1"/>
        <pt x="190" y="840" on="1"/>
        <pt x="114" y="854" on="1"/>
        <pt x="89" y="859" on="0"/>
        <pt x="60" y="882" on="0"/>
        <pt x="60" y="905" on="1"/>
        <pt x="71" y="1017" on="1"/>
        <pt x="212" y="1017" on="1"/>
        <pt x="216" y="1050" on="1"/>
        <pt x="227" y="1144" on="0"/>
        <pt x="304" y="1303" on="0"/>
        <pt x="437" y="1420" on="0"/>
        <pt x="625" y="1486" on="0"/>
        <pt x="748" y="1486" on="1"/>
        <pt x="787" y="1486" on="0"/>
        <pt x="873" y="1477" on="0"/>
        <pt x="902" y="1467" on="1"/>
        <pt x="878" y="1344" on="1"/>
        <pt x="873" y="1321" on="0"/>
        <pt x="830" y="1314" on="0"/>
        <pt x="800" y="1314" on="1"/>
        <pt x="708" y="1314" on="0"/>
        <pt x="581" y="1281" on="0"/>
        <pt x="498" y="1214" on="0"/>
        <pt x="454" y="1113" on="0"/>
        <pt x="446" y="1045" on="1"/>
      </contour>
    </TTGlyph>
    <TTGlyph name="five" xMin="39" yMin="-16" xMax="1105" yMax="1446">
      <contour>
        <pt x="1093" y="1344" on="1"/>
        <pt x="1087" y="1294" on="0"/>
        <pt x="1014" y="1230" on="0"/>
        <pt x="938" y="1230" on="1"/>
        <pt x="534" y="1230" on="1"/>
        <pt x="441" y="916" on="1"/>
        <pt x="535" y="935" on="0"/>
        <pt x="618" y="935" on="1"/>
        <pt x="724" y="935" on="0"/>
        <pt x="882" y="877" on="0"/>
        <pt x="988" y="774" on="0"/>
        <pt x="1041" y="634" on="0"/>
        <pt x="1041" y="552" on="1"/>
        <pt x="1041" y="468" on="0"/>
        <pt x="998" y="318" on="0"/>
        <pt x="920" y="191" on="0"/>
        <pt x="810" y="91" on="0"/>
        <pt x="677" y="21" on="0"/>
        <pt x="523" y="-16" on="0"/>
        <pt x="440" y="-16" on="1"/>
        <pt x="372" y="-16" on="0"/>
        <pt x="254" y="11" on="0"/>
        <pt x="154" y="57" on="0"/>
        <pt x="71" y="118" on="0"/>
        <pt x="39" y="151" on="1"/>
        <pt x="124" y="254" on="1"/>
        <pt x="138" y="271" on="0"/>
        <pt x="172" y="285" on="0"/>
        <pt x="189" y="285" on="1"/>
        <pt x="214" y="285" on="0"/>
        <pt x="262" y="253" on="0"/>
        <pt x="325" y="216" on="0"/>
        <pt x="413" y="184" on="0"/>
        <pt x="478" y="184" on="1"/>
        <pt x="555" y="184" on="0"/>
        <pt x="675" y="236" on="0"/>
        <pt x="757" y="328" on="0"/>
        <pt x="800" y="450" on="0"/>
        <pt x="800" y="521" on="1"/>
        <pt x="800" y="621" on="0"/>
        <pt x="675" y="740" on="0"/>
        <pt x="548" y="740" on="1"/>
        <pt x="502" y="740" on="0"/>
        <pt x="396" y="723" on="0"/>
        <pt x="333" y="705" on="1"/>
        <pt x="190" y="747" on="1"/>
        <pt x="396" y="1446" on="1"/>
        <pt x="1105" y="1446" on="1"/>
      </contour>
    </TTGlyph>
    <TTGlyph name="fl" xMin="56" yMin="-249" xMax="1114" yMax="1474">
      <contour>
        <pt x="432" y="841" on="1"/>
        <pt x="333" y="41" on="1"/>
        <pt x="283" y="-147" on="1"/>
        <pt x="270" y="-196" on="0"/>
        <pt x="209" y="-249" on="0"/>
        <pt x="155" y="-249" on="1"/>
        <pt x="56" y="-249" on="1"/>
        <pt x="190" y="840" on="1"/>
        <pt x="114" y="854" on="1"/>
        <pt x="89" y="859" on="0"/>
        <pt x="60" y="882" on="0"/>
        <pt x="60" y="905" on="1"/>
        <pt x="72" y="1017" on="1"/>
        <pt x="211" y="1017" on="1"/>
        <pt x="217" y="1062" on="1"/>
        <pt x="227" y="1144" on="0"/>
        <pt x="293" y="1293" on="0"/>
        <pt x="405" y="1407" on="0"/>
        <pt x="563" y="1474" on="0"/>
        <pt x="666" y="1474" on="1"/>
        <pt x="744" y="1474" on="0"/>
        <pt x="884" y="1462" on="0"/>
        <pt x="954" y="1462" on="1"/>
        <pt x="1114" y="1462" on="1"/>
        <pt x="934" y="0" on="1"/>
        <pt x="695" y="0" on="1"/>
        <pt x="851" y="1286" on="1"/>
        <pt x="808" y="1291" on="0"/>
        <pt x="722" y="1300" on="0"/>
        <pt x="682" y="1300" on="1"/>
        <pt x="583" y="1300" on="0"/>
        <pt x="461" y="1180" on="0"/>
        <pt x="449" y="1062" on="1"/>
        <pt x="444" y="1017" on="1"/>
        <pt x="661" y="1017" on="1"/>
        <pt x="641" y="841" on="1"/>
      </contour>
    </TTGlyph>
    <TTGlyph name="florin" xMin="-3" yMin="-346" xMax="1145" yMax="1470">
      <contour>
        <pt x="734" y="748" on="1"/>
        <pt x="565" y="54" on="1"/>
        <pt x="539" y="-51" on="0"/>
        <pt x="446" y="-203" on="0"/>
        <pt x="305" y="-300" on="0"/>
        <pt x="117" y="-346" on="0"/>
        <pt x="-3" y="-346" on="1"/>
        <pt x="13" y="-222" on="1"/>
        <pt x="22" y="-148" on="0"/>
        <pt x="98" y="-148" on="1"/>
        <pt x="139" y="-148" on="0"/>
        <pt x="211" y="-126" on="0"/>
        <pt x="271" y="-76" on="0"/>
        <pt x="316" y="3" on="0"/>
        <pt x="330" y="61" on="1"/>
        <pt x="498" y="743" on="1"/>
        <pt x="372" y="761" on="1"/>
        <pt x="325" y="772" on="0"/>
        <pt x="325" y="810" on="1"/>
        <pt x="325" y="812" on="0"/>
        <pt x="326" y="818" on="0"/>
        <pt x="326" y="820" on="1"/>
        <pt x="337" y="918" on="1"/>
        <pt x="541" y="918" on="1"/>
        <pt x="578" y="1069" on="1"/>
        <pt x="626" y="1268" on="0"/>
        <pt x="902" y="1470" on="0"/>
        <pt x="1145" y="1470" on="1"/>
        <pt x="1129" y="1339" on="1"/>
        <pt x="1124" y="1301" on="0"/>
        <pt x="1083" y="1271" on="0"/>
        <pt x="1044" y="1271" on="1"/>
        <pt x="1003" y="1271" on="0"/>
        <pt x="929" y="1249" on="0"/>
        <pt x="868" y="1199" on="0"/>
        <pt x="821" y="1119" on="0"/>
        <pt x="806" y="1062" on="1"/>
        <pt x="769" y="918" on="1"/>
        <pt x="1068" y="918" on="1"/>
        <pt x="1047" y="748" on="1"/>
      </contour>
    </TTGlyph>
    <TTGlyph name="four" xMin="30" yMin="0" xMax="1132" yMax="1447">
      <contour>
        <pt x="951" y="540" on="1"/>
        <pt x="1132" y="540" on="1"/>
        <pt x="1113" y="404" on="1"/>
        <pt x="1111" y="385" on="0"/>
        <pt x="1082" y="356" on="0"/>
        <pt x="1058" y="356" on="1"/>
        <pt x="928" y="356" on="1"/>
        <pt x="885" y="0" on="1"/>
        <pt x="669" y="0" on="1"/>
        <pt x="712" y="356" on="1"/>
        <pt x="112" y="356" on="1"/>
        <pt x="87" y="356" on="0"/>
        <pt x="42" y="386" on="0"/>
        <pt x="39" y="408" on="1"/>
        <pt x="30" y="529" on="1"/>
        <pt x="829" y="1447" on="1"/>
        <pt x="1061" y="1447" on="1"/>
      </contour>
      <contour>
        <pt x="795" y="1031" on="1"/>
        <pt x="803" y="1089" on="0"/>
        <pt x="821" y="1161" on="1"/>
        <pt x="291" y="540" on="1"/>
        <pt x="735" y="540" on="1"/>
      </contour>
    </TTGlyph>
    <TTGlyph name="fraction" xMin="-219" yMin="0" xMax="955" yMax="1445">
      <contour>
        <pt x="9" y="71" on="1"/>
        <pt x="-20" y="29" on="0"/>
        <pt x="-83" y="0" on="0"/>
        <pt x="-121" y="0" on="1"/>
        <pt x="-219" y="0" on="1"/>
        <pt x="719" y="1363" on="1"/>
        <pt x="747" y="1403" on="0"/>
        <pt x="813" y="1445" on="0"/>
        <pt x="857" y="1445" on="1"/>
        <pt x="955" y="1445" on="1"/>
      </contour>
    </TTGlyph>
    <TTGlyph name="g" xMin="-70" yMin="-359" xMax="1015" yMax="1042">
      <contour>
        <pt x="860" y="729" on="1"/>
        <pt x="860" y="683" on="0"/>
        <pt x="840" y="610" on="0"/>
        <pt x="811" y="548" on="0"/>
        <pt x="777" y="493" on="0"/>
        <pt x="747" y="436" on="0"/>
        <pt x="728" y="373" on="0"/>
        <pt x="728" y="335" on="1"/>
        <pt x="728" y="294" on="0"/>
        <pt x="762" y="225" on="0"/>
        <pt x="802" y="153" on="0"/>
        <pt x="836" y="71" on="0"/>
        <pt x="836" y="17" on="1"/>
        <pt x="836" y="-59" on="0"/>
        <pt x="768" y="-196" on="0"/>
        <pt x="640" y="-299" on="0"/>
        <pt x="456" y="-359" on="0"/>
        <pt x="340" y="-359" on="1"/>
        <pt x="245" y="-359" on="0"/>
        <pt x="94" y="-320" on="0"/>
        <pt x="-13" y="-250" on="0"/>
        <pt x="-70" y="-155" on="0"/>
        <pt x="-70" y="-98" on="1"/>
        <pt x="-70" y="-13" on="0"/>
        <pt x="16" y="103" on="0"/>
        <pt x="152" y="174" on="0"/>
        <pt x="321" y="205" on="0"/>
        <pt x="405" y="205" on="1"/>
        <pt x="446" y="205" on="0"/>
        <pt x="524" y="198" on="0"/>
        <pt x="559" y="192" on="1"/>
        <pt x="555" y="208" on="0"/>
        <pt x="550" y="240" on="0"/>
        <pt x="550" y="258" on="1"/>
        <pt x="550" y="316" on="0"/>
        <pt x="582" y="386" on="1"/>
        <pt x="544" y="360" on="0"/>
        <pt x="448" y="332" on="0"/>
        <pt x="380" y="332" on="1"/>
        <pt x="322" y="332" on="0"/>
        <pt x="217" y="370" on="0"/>
        <pt x="137" y="448" on="0"/>
        <pt x="90" y="565" on="0"/>
        <pt x="90" y="643" on="1"/>
        <pt x="90" y="718" on="0"/>
        <pt x="146" y="861" on="0"/>
        <pt x="256" y="974" on="0"/>
        <pt x="418" y="1042" on="0"/>
        <pt x="525" y="1042" on="1"/>
        <pt x="582" y="1042" on="0"/>
        <pt x="685" y="1015" on="0"/>
        <pt x="728" y="989" on="1"/>
        <pt x="1015" y="989" on="1"/>
        <pt x="1004" y="909" on="1"/>
        <pt x="1000" y="885" on="0"/>
        <pt x="977" y="851" on="0"/>
        <pt x="955" y="845" on="1"/>
        <pt x="850" y="817" on="1"/>
        <pt x="855" y="797" on="0"/>
        <pt x="860" y="753" on="0"/>
      </contour>
      <contour>
        <pt x="450" y="481" on="1"/>
        <pt x="495" y="481" on="0"/>
        <pt x="563" y="523" on="0"/>
        <pt x="610" y="591" on="0"/>
        <pt x="634" y="676" on="0"/>
        <pt x="634" y="720" on="1"/>
        <pt x="634" y="795" on="0"/>
        <pt x="564" y="875" on="0"/>
        <pt x="497" y="875" on="1"/>
        <pt x="452" y="875" on="0"/>
        <pt x="384" y="836" on="0"/>
        <pt x="338" y="771" on="0"/>
        <pt x="315" y="687" on="0"/>
        <pt x="315" y="642" on="1"/>
        <pt x="315" y="565" on="0"/>
        <pt x="384" y="481" on="0"/>
      </contour>
      <contour>
        <pt x="611" y="-4" on="1"/>
        <pt x="611" y="10" on="0"/>
        <pt x="608" y="37" on="0"/>
        <pt x="606" y="49" on="1"/>
        <pt x="552" y="58" on="0"/>
        <pt x="461" y="66" on="0"/>
        <pt x="421" y="66" on="1"/>
        <pt x="353" y="66" on="0"/>
        <pt x="256" y="44" on="0"/>
        <pt x="193" y="8" on="0"/>
        <pt x="164" y="-40" on="0"/>
        <pt x="164" y="-67" on="1"/>
        <pt x="164" y="-127" on="0"/>
        <pt x="260" y="-189" on="0"/>
        <pt x="360" y="-189" on="1"/>
        <pt x="416" y="-189" on="0"/>
        <pt x="508" y="-161" on="0"/>
        <pt x="574" y="-111" on="0"/>
        <pt x="611" y="-43" on="0"/>
      </contour>
    </TTGlyph>
    <TTGlyph name="germandbls" xMin="45" yMin="-247" xMax="1124" yMax="1470">
      <contour>
        <pt x="758" y="1470" on="1"/>
        <pt x="860" y="1470" on="0"/>
        <pt x="999" y="1409" on="0"/>
        <pt x="1086" y="1318" on="0"/>
        <pt x="1124" y="1209" on="0"/>
        <pt x="1124" y="1161" on="1"/>
        <pt x="1124" y="1095" on="0"/>
        <pt x="1081" y="1002" on="0"/>
        <pt x="1018" y="934" on="0"/>
        <pt x="943" y="885" on="0"/>
        <pt x="880" y="839" on="0"/>
        <pt x="837" y="790" on="0"/>
        <pt x="837" y="757" on="1"/>
        <pt x="837" y="727" on="0"/>
        <pt x="877" y="682" on="0"/>
        <pt x="937" y="640" on="0"/>
        <pt x="1008" y="593" on="0"/>
        <pt x="1068" y="527" on="0"/>
        <pt x="1108" y="436" on="0"/>
        <pt x="1108" y="372" on="1"/>
        <pt x="1108" y="277" on="0"/>
        <pt x="1039" y="133" on="0"/>
        <pt x="925" y="34" on="0"/>
        <pt x="777" y="-16" on="0"/>
        <pt x="698" y="-16" on="1"/>
        <pt x="656" y="-16" on="0"/>
        <pt x="575" y="3" on="0"/>
        <pt x="502" y="37" on="0"/>
        <pt x="439" y="83" on="0"/>
        <pt x="414" y="110" on="1"/>
        <pt x="481" y="201" on="1"/>
        <pt x="492" y="216" on="0"/>
        <pt x="524" y="234" on="0"/>
        <pt x="546" y="234" on="1"/>
        <pt x="567" y="234" on="0"/>
        <pt x="603" y="208" on="0"/>
        <pt x="645" y="176" on="0"/>
        <pt x="699" y="150" on="0"/>
        <pt x="739" y="150" on="1"/>
        <pt x="768" y="150" on="0"/>
        <pt x="820" y="174" on="0"/>
        <pt x="858" y="217" on="0"/>
        <pt x="880" y="275" on="0"/>
        <pt x="880" y="308" on="1"/>
        <pt x="880" y="349" on="0"/>
        <pt x="836" y="406" on="0"/>
        <pt x="769" y="452" on="0"/>
        <pt x="692" y="495" on="0"/>
        <pt x="625" y="552" on="0"/>
        <pt x="581" y="629" on="0"/>
        <pt x="581" y="687" on="1"/>
        <pt x="581" y="754" on="0"/>
        <pt x="627" y="847" on="0"/>
        <pt x="697" y="916" on="0"/>
        <pt x="777" y="972" on="0"/>
        <pt x="847" y="1031" on="0"/>
        <pt x="893" y="1102" on="0"/>
        <pt x="893" y="1153" on="1"/>
        <pt x="893" y="1181" on="0"/>
        <pt x="874" y="1234" on="0"/>
        <pt x="834" y="1273" on="0"/>
        <pt x="771" y="1297" on="0"/>
        <pt x="726" y="1297" on="1"/>
        <pt x="666" y="1297" on="0"/>
        <pt x="568" y="1229" on="0"/>
        <pt x="495" y="1116" on="0"/>
        <pt x="447" y="970" on="0"/>
        <pt x="438" y="892" on="1"/>
        <pt x="335" y="42" on="1"/>
        <pt x="284" y="-146" on="1"/>
        <pt x="270" y="-195" on="0"/>
        <pt x="211" y="-247" on="0"/>
        <pt x="157" y="-247" on="1"/>
        <pt x="58" y="-247" on="1"/>
        <pt x="190" y="841" on="1"/>
        <pt x="99" y="857" on="1"/>
        <pt x="73" y="862" on="0"/>
        <pt x="45" y="886" on="0"/>
        <pt x="45" y="908" on="1"/>
        <pt x="56" y="1014" on="1"/>
        <pt x="222" y="1014" on="1"/>
        <pt x="249" y="1104" on="0"/>
        <pt x="350" y="1269" on="0"/>
        <pt x="488" y="1395" on="0"/>
        <pt x="659" y="1470" on="0"/>
      </contour>
    </TTGlyph>
    <TTGlyph name="grave" xMin="36" yMin="1166" xMax="443" yMax="1461">
      <contour>
        <pt x="260" y="1461" on="1"/>
        <pt x="298" y="1461" on="0"/>
        <pt x="332" y="1435" on="0"/>
        <pt x="343" y="1409" on="1"/>
        <pt x="443" y="1166" on="1"/>
        <pt x="307" y="1166" on="1"/>
        <pt x="281" y="1166" on="0"/>
        <pt x="248" y="1180" on="0"/>
        <pt x="234" y="1200" on="1"/>
        <pt x="36" y="1461" on="1"/>
      </contour>
    </TTGlyph>
    <TTGlyph name="grave.case" xMin="53" yMin="1549" xMax="564" yMax="1789">
      <contour>
        <pt x="318" y="1789" on="1"/>
        <pt x="337" y="1789" on="0"/>
        <pt x="363" y="1786" on="0"/>
        <pt x="383" y="1777" on="0"/>
        <pt x="400" y="1763" on="0"/>
        <pt x="411" y="1751" on="1"/>
        <pt x="564" y="1549" on="1"/>
        <pt x="362" y="1549" on="1"/>
        <pt x="335" y="1549" on="0"/>
        <pt x="306" y="1566" on="0"/>
        <pt x="287" y="1583" on="1"/>
        <pt x="53" y="1789" on="1"/>
      </contour>
    </TTGlyph>
    <TTGlyph name="greater" xMin="113" yMin="211" xMax="968" yMax="1138">
      <contour>
        <pt x="956" y="624" on="1"/>
        <pt x="113" y="211" on="1"/>
        <pt x="135" y="387" on="1"/>
        <pt x="137" y="407" on="0"/>
        <pt x="161" y="440" on="0"/>
        <pt x="186" y="452" on="1"/>
        <pt x="572" y="638" on="1"/>
        <pt x="597" y="650" on="0"/>
        <pt x="650" y="667" on="0"/>
        <pt x="679" y="674" on="1"/>
        <pt x="652" y="681" on="0"/>
        <pt x="603" y="698" on="0"/>
        <pt x="581" y="710" on="1"/>
        <pt x="240" y="897" on="1"/>
        <pt x="220" y="908" on="0"/>
        <pt x="204" y="935" on="0"/>
        <pt x="204" y="952" on="1"/>
        <pt x="204" y="953" on="0"/>
        <pt x="205" y="961" on="0"/>
        <pt x="209" y="997" on="0"/>
        <pt x="219" y="1071" on="0"/>
        <pt x="227" y="1138" on="1"/>
        <pt x="968" y="724" on="1"/>
      </contour>
    </TTGlyph>
    <TTGlyph name="greaterequal" xMin="95" yMin="80" xMax="981" yMax="1219">
      <contour>
        <pt x="887" y="80" on="1"/>
        <pt x="95" y="80" on="1"/>
        <pt x="118" y="263" on="1"/>
        <pt x="911" y="263" on="1"/>
      </contour>
      <contour>
        <pt x="968" y="738" on="1"/>
        <pt x="129" y="359" on="1"/>
        <pt x="150" y="527" on="1"/>
        <pt x="152" y="547" on="0"/>
        <pt x="179" y="582" on="0"/>
        <pt x="212" y="596" on="1"/>
        <pt x="584" y="754" on="1"/>
        <pt x="610" y="765" on="0"/>
        <pt x="669" y="780" on="0"/>
        <pt x="701" y="787" on="1"/>
        <pt x="670" y="794" on="0"/>
        <pt x="615" y="810" on="0"/>
        <pt x="592" y="821" on="1"/>
        <pt x="260" y="982" on="1"/>
        <pt x="234" y="995" on="0"/>
        <pt x="213" y="1025" on="0"/>
        <pt x="213" y="1042" on="1"/>
        <pt x="213" y="1049" on="0"/>
        <pt x="218" y="1091" on="0"/>
        <pt x="224" y="1137" on="0"/>
        <pt x="229" y="1174" on="0"/>
        <pt x="229" y="1175" on="1"/>
        <pt x="235" y="1219" on="1"/>
        <pt x="981" y="837" on="1"/>
      </contour>
    </TTGlyph>
    <TTGlyph name="guillemotleft" xMin="121" yMin="126" xMax="825" yMax="947">
      <contour>
        <pt x="121" y="522" on="1"/>
        <pt x="126" y="552" on="1"/>
        <pt x="411" y="947" on="1"/>
        <pt x="484" y="910" on="1"/>
        <pt x="516" y="897" on="0"/>
        <pt x="516" y="866" on="1"/>
        <pt x="516" y="855" on="0"/>
        <pt x="505" y="831" on="0"/>
        <pt x="497" y="817" on="1"/>
        <pt x="344" y="578" on="1"/>
        <pt x="327" y="553" on="0"/>
        <pt x="307" y="536" on="1"/>
        <pt x="315" y="529" on="0"/>
        <pt x="327" y="508" on="0"/>
        <pt x="333" y="496" on="1"/>
        <pt x="428" y="257" on="1"/>
        <pt x="436" y="238" on="0"/>
        <pt x="436" y="222" on="1"/>
        <pt x="436" y="181" on="0"/>
        <pt x="393" y="162" on="1"/>
        <pt x="310" y="126" on="1"/>
      </contour>
      <contour>
        <pt x="430" y="522" on="1"/>
        <pt x="435" y="552" on="1"/>
        <pt x="720" y="947" on="1"/>
        <pt x="793" y="910" on="1"/>
        <pt x="825" y="897" on="0"/>
        <pt x="825" y="866" on="1"/>
        <pt x="825" y="855" on="0"/>
        <pt x="814" y="831" on="0"/>
        <pt x="806" y="817" on="1"/>
        <pt x="653" y="578" on="1"/>
        <pt x="636" y="553" on="0"/>
        <pt x="616" y="536" on="1"/>
        <pt x="624" y="529" on="0"/>
        <pt x="636" y="508" on="0"/>
        <pt x="642" y="496" on="1"/>
        <pt x="737" y="257" on="1"/>
        <pt x="745" y="238" on="0"/>
        <pt x="745" y="222" on="1"/>
        <pt x="745" y="181" on="0"/>
        <pt x="702" y="162" on="1"/>
        <pt x="619" y="126" on="1"/>
      </contour>
    </TTGlyph>
    <TTGlyph name="guillemotright" xMin="112" yMin="126" xMax="813" yMax="947">
      <contour>
        <pt x="504" y="552" on="1"/>
        <pt x="501" y="522" on="1"/>
        <pt x="216" y="126" on="1"/>
        <pt x="143" y="162" on="1"/>
        <pt x="112" y="177" on="0"/>
        <pt x="112" y="207" on="1"/>
        <pt x="112" y="229" on="0"/>
        <pt x="129" y="257" on="1"/>
        <pt x="284" y="496" on="1"/>
        <pt x="292" y="508" on="0"/>
        <pt x="310" y="529" on="0"/>
        <pt x="319" y="536" on="1"/>
        <pt x="302" y="552" on="0"/>
        <pt x="294" y="578" on="1"/>
        <pt x="197" y="817" on="1"/>
        <pt x="191" y="833" on="0"/>
        <pt x="191" y="849" on="1"/>
        <pt x="191" y="890" on="0"/>
        <pt x="235" y="910" on="1"/>
        <pt x="317" y="947" on="1"/>
      </contour>
      <contour>
        <pt x="813" y="552" on="1"/>
        <pt x="810" y="522" on="1"/>
        <pt x="525" y="126" on="1"/>
        <pt x="452" y="162" on="1"/>
        <pt x="421" y="177" on="0"/>
        <pt x="421" y="207" on="1"/>
        <pt x="421" y="229" on="0"/>
        <pt x="438" y="257" on="1"/>
        <pt x="593" y="496" on="1"/>
        <pt x="601" y="508" on="0"/>
        <pt x="619" y="529" on="0"/>
        <pt x="628" y="536" on="1"/>
        <pt x="611" y="552" on="0"/>
        <pt x="603" y="578" on="1"/>
        <pt x="506" y="817" on="1"/>
        <pt x="500" y="833" on="0"/>
        <pt x="500" y="849" on="1"/>
        <pt x="500" y="890" on="0"/>
        <pt x="544" y="910" on="1"/>
        <pt x="626" y="947" on="1"/>
      </contour>
    </TTGlyph>
    <TTGlyph name="guilsinglleft" xMin="121" yMin="126" xMax="516" yMax="947">
      <contour>
        <pt x="121" y="522" on="1"/>
        <pt x="126" y="552" on="1"/>
        <pt x="411" y="947" on="1"/>
        <pt x="484" y="910" on="1"/>
        <pt x="516" y="897" on="0"/>
        <pt x="516" y="866" on="1"/>
        <pt x="516" y="855" on="0"/>
        <pt x="505" y="831" on="0"/>
        <pt x="497" y="817" on="1"/>
        <pt x="344" y="578" on="1"/>
        <pt x="327" y="553" on="0"/>
        <pt x="307" y="536" on="1"/>
        <pt x="315" y="529" on="0"/>
        <pt x="327" y="508" on="0"/>
        <pt x="333" y="496" on="1"/>
        <pt x="428" y="257" on="1"/>
        <pt x="436" y="238" on="0"/>
        <pt x="436" y="222" on="1"/>
        <pt x="436" y="181" on="0"/>
        <pt x="393" y="162" on="1"/>
        <pt x="310" y="126" on="1"/>
      </contour>
    </TTGlyph>
    <TTGlyph name="guilsinglright" xMin="112" yMin="126" xMax="504" yMax="947">
      <contour>
        <pt x="504" y="552" on="1"/>
        <pt x="501" y="522" on="1"/>
        <pt x="216" y="126" on="1"/>
        <pt x="143" y="162" on="1"/>
        <pt x="112" y="177" on="0"/>
        <pt x="112" y="207" on="1"/>
        <pt x="112" y="229" on="0"/>
        <pt x="129" y="257" on="1"/>
        <pt x="284" y="496" on="1"/>
        <pt x="292" y="508" on="0"/>
        <pt x="310" y="529" on="0"/>
        <pt x="319" y="536" on="1"/>
        <pt x="302" y="552" on="0"/>
        <pt x="294" y="578" on="1"/>
        <pt x="197" y="817" on="1"/>
        <pt x="191" y="833" on="0"/>
        <pt x="191" y="849" on="1"/>
        <pt x="191" y="890" on="0"/>
        <pt x="235" y="910" on="1"/>
        <pt x="317" y="947" on="1"/>
      </contour>
    </TTGlyph>
    <TTGlyph name="h" xMin="60" yMin="0" xMax="1005" yMax="1486">
      <contour>
        <pt x="60" y="0" on="1"/>
        <pt x="241" y="1486" on="1"/>
        <pt x="487" y="1486" on="1"/>
        <pt x="410" y="851" on="1"/>
        <pt x="485" y="948" on="0"/>
        <pt x="660" y="1042" on="0"/>
        <pt x="751" y="1042" on="1"/>
        <pt x="809" y="1042" on="0"/>
        <pt x="903" y="1001" on="0"/>
        <pt x="969" y="922" on="0"/>
        <pt x="1005" y="807" on="0"/>
        <pt x="1005" y="732" on="1"/>
        <pt x="1005" y="713" on="0"/>
        <pt x="1002" y="674" on="0"/>
        <pt x="1000" y="653" on="1"/>
        <pt x="923" y="0" on="1"/>
        <pt x="676" y="0" on="1"/>
        <pt x="753" y="653" on="1"/>
        <pt x="755" y="671" on="0"/>
        <pt x="758" y="703" on="0"/>
        <pt x="758" y="717" on="1"/>
        <pt x="758" y="783" on="0"/>
        <pt x="708" y="841" on="0"/>
        <pt x="657" y="841" on="1"/>
        <pt x="619" y="841" on="0"/>
        <pt x="537" y="798" on="0"/>
        <pt x="461" y="719" on="0"/>
        <pt x="395" y="607" on="0"/>
        <pt x="372" y="538" on="1"/>
        <pt x="307" y="0" on="1"/>
      </contour>
    </TTGlyph>
    <TTGlyph name="hungarumlaut" xMin="144" yMin="1166" xMax="866" yMax="1461">
      <contour>
        <pt x="540" y="1461" on="1"/>
        <pt x="325" y="1200" on="1"/>
        <pt x="308" y="1179" on="0"/>
        <pt x="268" y="1166" on="0"/>
        <pt x="242" y="1166" on="1"/>
        <pt x="144" y="1166" on="1"/>
        <pt x="289" y="1409" on="1"/>
        <pt x="305" y="1435" on="0"/>
        <pt x="347" y="1461" on="0"/>
        <pt x="385" y="1461" on="1"/>
      </contour>
      <contour>
        <pt x="866" y="1461" on="1"/>
        <pt x="600" y="1200" on="1"/>
        <pt x="580" y="1181" on="0"/>
        <pt x="545" y="1166" on="0"/>
        <pt x="518" y="1166" on="1"/>
        <pt x="405" y="1166" on="1"/>
        <pt x="598" y="1409" on="1"/>
        <pt x="617" y="1433" on="0"/>
        <pt x="657" y="1461" on="0"/>
        <pt x="695" y="1461" on="1"/>
      </contour>
    </TTGlyph>
    <TTGlyph name="hungarumlaut.case" xMin="179" yMin="1549" xMax="923" yMax="1775">
      <contour>
        <pt x="582" y="1775" on="1"/>
        <pt x="373" y="1583" on="1"/>
        <pt x="353" y="1565" on="0"/>
        <pt x="318" y="1549" on="0"/>
        <pt x="292" y="1549" on="1"/>
        <pt x="179" y="1549" on="1"/>
        <pt x="321" y="1723" on="1"/>
        <pt x="341" y="1746" on="0"/>
        <pt x="390" y="1775" on="0"/>
        <pt x="428" y="1775" on="1"/>
      </contour>
      <contour>
        <pt x="923" y="1775" on="1"/>
        <pt x="664" y="1583" on="1"/>
        <pt x="642" y="1566" on="0"/>
        <pt x="602" y="1549" on="0"/>
        <pt x="575" y="1549" on="1"/>
        <pt x="447" y="1549" on="1"/>
        <pt x="631" y="1723" on="1"/>
        <pt x="654" y="1745" on="0"/>
        <pt x="706" y="1775" on="0"/>
        <pt x="744" y="1775" on="1"/>
      </contour>
    </TTGlyph>
    <TTGlyph name="hyphen" xMin="94" yMin="504" xMax="599" yMax="703">
      <contour>
        <pt x="118" y="703" on="1"/>
        <pt x="599" y="703" on="1"/>
        <pt x="574" y="504" on="1"/>
        <pt x="94" y="504" on="1"/>
      </contour>
    </TTGlyph>
    <TTGlyph name="i" xMin="74" yMin="0" xMax="503" yMax="1483">
      <contour>
        <pt x="441" y="1026" on="1"/>
        <pt x="318" y="0" on="1"/>
        <pt x="74" y="0" on="1"/>
        <pt x="197" y="1026" on="1"/>
      </contour>
      <contour>
        <pt x="503" y="1325" on="1"/>
        <pt x="503" y="1293" on="0"/>
        <pt x="476" y="1237" on="0"/>
        <pt x="433" y="1195" on="0"/>
        <pt x="377" y="1170" on="0"/>
        <pt x="347" y="1170" on="1"/>
        <pt x="318" y="1170" on="0"/>
        <pt x="263" y="1195" on="0"/>
        <pt x="221" y="1237" on="0"/>
        <pt x="196" y="1293" on="0"/>
        <pt x="196" y="1325" on="1"/>
        <pt x="196" y="1357" on="0"/>
        <pt x="222" y="1415" on="0"/>
        <pt x="264" y="1458" on="0"/>
        <pt x="319" y="1483" on="0"/>
        <pt x="348" y="1483" on="1"/>
        <pt x="378" y="1483" on="0"/>
        <pt x="434" y="1458" on="0"/>
        <pt x="477" y="1416" on="0"/>
        <pt x="503" y="1358" on="0"/>
      </contour>
    </TTGlyph>
    <TTGlyph name="iacute" xMin="74" yMin="0" xMax="693" yMax="1461">
      <component glyphName="dotlessi" x="0" y="0" flags="0x204"/>
      <component glyphName="acute" x="-49" y="0" flags="0x4"/>
    </TTGlyph>
    <TTGlyph name="icircumflex" xMin="6" yMin="0" xMax="653" yMax="1445">
      <component glyphName="dotlessi" x="0" y="0" flags="0x204"/>
      <component glyphName="circumflex" x="-49" y="0" flags="0x4"/>
    </TTGlyph>
    <TTGlyph name="idieresis" xMin="24" yMin="0" xMax="673" yMax="1454">
      <component glyphName="dotlessi" x="0" y="0" flags="0x204"/>
      <component glyphName="dieresis" x="-49" y="0" flags="0x4"/>
    </TTGlyph>
    <TTGlyph name="igrave" xMin="33" yMin="0" xMax="441" yMax="1461">
      <component glyphName="dotlessi" x="0" y="0" flags="0x204"/>
      <component glyphName="grave" x="-3" y="0" flags="0x4"/>
    </TTGlyph>
    <TTGlyph name="infinity" xMin="49" yMin="232" xMax="1243" yMax="951">
      <contour>
        <pt x="886" y="232" on="1"/>
        <pt x="835" y="232" on="0"/>
        <pt x="756" y="261" on="0"/>
        <pt x="693" y="310" on="0"/>
        <pt x="643" y="375" on="0"/>
        <pt x="623" y="412" on="1"/>
        <pt x="593" y="375" on="0"/>
        <pt x="527" y="310" on="0"/>
        <pt x="452" y="261" on="0"/>
        <pt x="365" y="232" on="0"/>
        <pt x="314" y="232" on="1"/>
        <pt x="258" y="232" on="0"/>
        <pt x="161" y="276" on="0"/>
        <pt x="90" y="356" on="0"/>
        <pt x="49" y="469" on="0"/>
        <pt x="49" y="537" on="1"/>
        <pt x="49" y="611" on="0"/>
        <pt x="99" y="759" on="0"/>
        <pt x="191" y="877" on="0"/>
        <pt x="322" y="951" on="0"/>
        <pt x="403" y="951" on="1"/>
        <pt x="454" y="951" on="0"/>
        <pt x="534" y="922" on="0"/>
        <pt x="597" y="873" on="0"/>
        <pt x="647" y="807" on="0"/>
        <pt x="667" y="770" on="1"/>
        <pt x="696" y="807" on="0"/>
        <pt x="762" y="873" on="0"/>
        <pt x="837" y="922" on="0"/>
        <pt x="924" y="951" on="0"/>
        <pt x="975" y="951" on="1"/>
        <pt x="1032" y="951" on="0"/>
        <pt x="1130" y="907" on="0"/>
        <pt x="1202" y="826" on="0"/>
        <pt x="1243" y="713" on="0"/>
        <pt x="1243" y="645" on="1"/>
        <pt x="1243" y="571" on="0"/>
        <pt x="1193" y="424" on="0"/>
        <pt x="1100" y="306" on="0"/>
        <pt x="968" y="232" on="0"/>
      </contour>
      <contour>
        <pt x="350" y="431" on="1"/>
        <pt x="377" y="431" on="0"/>
        <pt x="427" y="456" on="0"/>
        <pt x="474" y="499" on="0"/>
        <pt x="519" y="557" on="0"/>
        <pt x="542" y="591" on="1"/>
        <pt x="527" y="625" on="0"/>
        <pt x="496" y="683" on="0"/>
        <pt x="460" y="727" on="0"/>
        <pt x="416" y="752" on="0"/>
        <pt x="389" y="752" on="1"/>
        <pt x="351" y="752" on="0"/>
        <pt x="296" y="717" on="0"/>
        <pt x="260" y="661" on="0"/>
        <pt x="242" y="593" on="0"/>
        <pt x="242" y="559" on="1"/>
        <pt x="242" y="491" on="0"/>
        <pt x="305" y="431" on="0"/>
      </contour>
      <contour>
        <pt x="901" y="431" on="1"/>
        <pt x="937" y="431" on="0"/>
        <pt x="992" y="465" on="0"/>
        <pt x="1029" y="520" on="0"/>
        <pt x="1048" y="590" on="0"/>
        <pt x="1048" y="626" on="1"/>
        <pt x="1048" y="659" on="0"/>
        <pt x="1031" y="707" on="0"/>
        <pt x="1001" y="737" on="0"/>
        <pt x="962" y="752" on="0"/>
        <pt x="940" y="752" on="1"/>
        <pt x="913" y="752" on="0"/>
        <pt x="863" y="727" on="0"/>
        <pt x="816" y="684" on="0"/>
        <pt x="771" y="625" on="0"/>
        <pt x="748" y="592" on="1"/>
        <pt x="763" y="558" on="0"/>
        <pt x="794" y="499" on="0"/>
        <pt x="830" y="456" on="0"/>
        <pt x="874" y="431" on="0"/>
      </contour>
    </TTGlyph>
    <TTGlyph name="integral" xMin="-115" yMin="-342" xMax="984" yMax="1462">
      <contour>
        <pt x="459" y="1094" on="1"/>
        <pt x="479" y="1181" on="0"/>
        <pt x="547" y="1317" on="0"/>
        <pt x="643" y="1412" on="0"/>
        <pt x="767" y="1462" on="0"/>
        <pt x="842" y="1462" on="1"/>
        <pt x="877" y="1462" on="0"/>
        <pt x="952" y="1447" on="0"/>
        <pt x="984" y="1428" on="1"/>
        <pt x="957" y="1308" on="1"/>
        <pt x="955" y="1298" on="0"/>
        <pt x="947" y="1279" on="0"/>
        <pt x="931" y="1263" on="0"/>
        <pt x="906" y="1253" on="0"/>
        <pt x="887" y="1253" on="1"/>
        <pt x="843" y="1253" on="0"/>
        <pt x="780" y="1229" on="0"/>
        <pt x="734" y="1182" on="0"/>
        <pt x="703" y="1110" on="0"/>
        <pt x="691" y="1062" on="1"/>
        <pt x="449" y="57" on="1"/>
        <pt x="424" y="-47" on="0"/>
        <pt x="342" y="-198" on="0"/>
        <pt x="233" y="-295" on="0"/>
        <pt x="101" y="-342" on="0"/>
        <pt x="26" y="-342" on="1"/>
        <pt x="-8" y="-342" on="0"/>
        <pt x="-83" y="-327" on="0"/>
        <pt x="-115" y="-308" on="1"/>
        <pt x="-89" y="-205" on="1"/>
        <pt x="-86" y="-192" on="0"/>
        <pt x="-76" y="-173" on="0"/>
        <pt x="-59" y="-161" on="0"/>
        <pt x="-31" y="-156" on="0"/>
        <pt x="-9" y="-156" on="1"/>
        <pt x="44" y="-156" on="0"/>
        <pt x="117" y="-133" on="0"/>
        <pt x="168" y="-84" on="0"/>
        <pt x="201" y="-6" on="0"/>
        <pt x="214" y="49" on="1"/>
      </contour>
    </TTGlyph>
    <TTGlyph name="j" xMin="-157" yMin="-360" xMax="495" yMax="1483">
      <contour>
        <pt x="441" y="1026" on="1"/>
        <pt x="311" y="-35" on="1"/>
        <pt x="303" y="-102" on="0"/>
        <pt x="252" y="-220" on="0"/>
        <pt x="167" y="-309" on="0"/>
        <pt x="46" y="-360" on="0"/>
        <pt x="-33" y="-360" on="1"/>
        <pt x="-72" y="-360" on="0"/>
        <pt x="-129" y="-351" on="0"/>
        <pt x="-157" y="-341" on="1"/>
        <pt x="-133" y="-208" on="1"/>
        <pt x="-127" y="-188" on="0"/>
        <pt x="-101" y="-177" on="0"/>
        <pt x="-67" y="-177" on="1"/>
        <pt x="-33" y="-177" on="0"/>
        <pt x="14" y="-162" on="0"/>
        <pt x="46" y="-129" on="0"/>
        <pt x="64" y="-75" on="0"/>
        <pt x="69" y="-35" on="1"/>
        <pt x="199" y="1026" on="1"/>
      </contour>
      <contour>
        <pt x="495" y="1325" on="1"/>
        <pt x="495" y="1293" on="0"/>
        <pt x="468" y="1237" on="0"/>
        <pt x="425" y="1195" on="0"/>
        <pt x="369" y="1170" on="0"/>
        <pt x="339" y="1170" on="1"/>
        <pt x="310" y="1170" on="0"/>
        <pt x="255" y="1195" on="0"/>
        <pt x="213" y="1237" on="0"/>
        <pt x="188" y="1293" on="0"/>
        <pt x="188" y="1325" on="1"/>
        <pt x="188" y="1357" on="0"/>
        <pt x="214" y="1415" on="0"/>
        <pt x="256" y="1458" on="0"/>
        <pt x="311" y="1483" on="0"/>
        <pt x="340" y="1483" on="1"/>
        <pt x="370" y="1483" on="0"/>
        <pt x="426" y="1458" on="0"/>
        <pt x="469" y="1416" on="0"/>
        <pt x="495" y="1358" on="0"/>
      </contour>
    </TTGlyph>
    <TTGlyph name="k" xMin="62" yMin="0" xMax="1054" yMax="1486">
      <contour>
        <pt x="488" y="1486" on="1"/>
        <pt x="384" y="635" on="1"/>
        <pt x="409" y="635" on="1"/>
        <pt x="432" y="635" on="0"/>
        <pt x="461" y="649" on="0"/>
        <pt x="477" y="668" on="1"/>
        <pt x="749" y="983" on="1"/>
        <pt x="767" y="1003" on="0"/>
        <pt x="805" y="1026" on="0"/>
        <pt x="834" y="1026" on="1"/>
        <pt x="1054" y="1026" on="1"/>
        <pt x="716" y="645" on="1"/>
        <pt x="697" y="624" on="0"/>
        <pt x="659" y="589" on="0"/>
        <pt x="638" y="576" on="1"/>
        <pt x="657" y="562" on="0"/>
        <pt x="682" y="521" on="0"/>
        <pt x="694" y="498" on="1"/>
        <pt x="948" y="0" on="1"/>
        <pt x="734" y="0" on="1"/>
        <pt x="707" y="0" on="0"/>
        <pt x="672" y="20" on="0"/>
        <pt x="660" y="44" on="1"/>
        <pt x="461" y="433" on="1"/>
        <pt x="449" y="456" on="0"/>
        <pt x="424" y="470" on="0"/>
        <pt x="396" y="470" on="1"/>
        <pt x="363" y="470" on="1"/>
        <pt x="306" y="0" on="1"/>
        <pt x="62" y="0" on="1"/>
        <pt x="244" y="1486" on="1"/>
      </contour>
    </TTGlyph>
    <TTGlyph name="l" xMin="65" yMin="0" xMax="488" yMax="1486">
      <contour>
        <pt x="65" y="0" on="1"/>
        <pt x="245" y="1486" on="1"/>
        <pt x="488" y="1486" on="1"/>
        <pt x="308" y="0" on="1"/>
      </contour>
    </TTGlyph>
    <TTGlyph name="less" xMin="147" yMin="210" xMax="1002" yMax="1137">
      <contour>
        <pt x="159" y="724" on="1"/>
        <pt x="1002" y="1137" on="1"/>
        <pt x="980" y="961" on="1"/>
        <pt x="978" y="941" on="0"/>
        <pt x="954" y="908" on="0"/>
        <pt x="929" y="896" on="1"/>
        <pt x="543" y="710" on="1"/>
        <pt x="518" y="698" on="0"/>
        <pt x="465" y="681" on="0"/>
        <pt x="436" y="674" on="1"/>
        <pt x="463" y="667" on="0"/>
        <pt x="512" y="650" on="0"/>
        <pt x="534" y="638" on="1"/>
        <pt x="875" y="451" on="1"/>
        <pt x="895" y="440" on="0"/>
        <pt x="911" y="413" on="0"/>
        <pt x="911" y="396" on="1"/>
        <pt x="911" y="395" on="0"/>
        <pt x="910" y="387" on="0"/>
        <pt x="905" y="351" on="0"/>
        <pt x="896" y="277" on="0"/>
        <pt x="888" y="210" on="1"/>
        <pt x="147" y="624" on="1"/>
      </contour>
    </TTGlyph>
    <TTGlyph name="lessequal" xMin="79" yMin="80" xMax="1012" yMax="1218">
      <contour>
        <pt x="173" y="839" on="1"/>
        <pt x="1012" y="1218" on="1"/>
        <pt x="991" y="1050" on="1"/>
        <pt x="989" y="1030" on="0"/>
        <pt x="962" y="995" on="0"/>
        <pt x="929" y="981" on="1"/>
        <pt x="557" y="823" on="1"/>
        <pt x="531" y="812" on="0"/>
        <pt x="472" y="797" on="0"/>
        <pt x="440" y="790" on="1"/>
        <pt x="471" y="783" on="0"/>
        <pt x="526" y="767" on="0"/>
        <pt x="549" y="756" on="1"/>
        <pt x="881" y="595" on="1"/>
        <pt x="907" y="582" on="0"/>
        <pt x="928" y="552" on="0"/>
        <pt x="928" y="535" on="1"/>
        <pt x="928" y="528" on="0"/>
        <pt x="923" y="486" on="0"/>
        <pt x="917" y="440" on="0"/>
        <pt x="912" y="403" on="0"/>
        <pt x="912" y="402" on="1"/>
        <pt x="906" y="358" on="1"/>
        <pt x="160" y="740" on="1"/>
      </contour>
      <contour>
        <pt x="102" y="263" on="1"/>
        <pt x="895" y="263" on="1"/>
        <pt x="872" y="80" on="1"/>
        <pt x="79" y="80" on="1"/>
      </contour>
    </TTGlyph>
    <TTGlyph name="logicalnot" xMin="150" yMin="300" xMax="1054" yMax="760">
      <contour>
        <pt x="171" y="760" on="1"/>
        <pt x="1054" y="760" on="1"/>
        <pt x="997" y="300" on="1"/>
        <pt x="795" y="300" on="1"/>
        <pt x="830" y="583" on="1"/>
        <pt x="150" y="583" on="1"/>
      </contour>
    </TTGlyph>
    <TTGlyph name="lozenge" xMin="131" yMin="-91" xMax="1065" yMax="1531">
      <contour>
        <pt x="131" y="720" on="1"/>
        <pt x="512" y="1531" on="1"/>
        <pt x="684" y="1531" on="1"/>
        <pt x="1065" y="720" on="1"/>
        <pt x="684" y="-91" on="1"/>
        <pt x="512" y="-91" on="1"/>
      </contour>
      <contour>
        <pt x="333" y="720" on="1"/>
        <pt x="564" y="219" on="1"/>
        <pt x="576" y="193" on="0"/>
        <pt x="592" y="146" on="0"/>
        <pt x="598" y="124" on="1"/>
        <pt x="604" y="146" on="0"/>
        <pt x="620" y="193" on="0"/>
        <pt x="632" y="219" on="1"/>
        <pt x="867" y="720" on="1"/>
        <pt x="632" y="1221" on="1"/>
        <pt x="620" y="1247" on="0"/>
        <pt x="605" y="1294" on="0"/>
        <pt x="598" y="1316" on="1"/>
        <pt x="591" y="1294" on="0"/>
        <pt x="576" y="1247" on="0"/>
        <pt x="564" y="1221" on="1"/>
      </contour>
    </TTGlyph>
    <TTGlyph name="lslash" xMin="72" yMin="0" xMax="645" yMax="1486">
      <contour>
        <pt x="72" y="737" on="1"/>
        <pt x="72" y="772" on="0"/>
        <pt x="102" y="785" on="1"/>
        <pt x="235" y="841" on="1"/>
        <pt x="313" y="1486" on="1"/>
        <pt x="556" y="1486" on="1"/>
        <pt x="488" y="931" on="1"/>
        <pt x="645" y="995" on="1"/>
        <pt x="645" y="853" on="1"/>
        <pt x="645" y="814" on="0"/>
        <pt x="611" y="799" on="1"/>
        <pt x="465" y="736" on="1"/>
        <pt x="376" y="0" on="1"/>
        <pt x="133" y="0" on="1"/>
        <pt x="211" y="647" on="1"/>
        <pt x="72" y="591" on="1"/>
      </contour>
    </TTGlyph>
    <TTGlyph name="m" xMin="52" yMin="0" xMax="1501" yMax="1042">
      <contour>
        <pt x="52" y="0" on="1"/>
        <pt x="177" y="1027" on="1"/>
        <pt x="302" y="1027" on="1"/>
        <pt x="340" y="1027" on="0"/>
        <pt x="384" y="991" on="0"/>
        <pt x="384" y="952" on="1"/>
        <pt x="384" y="951" on="0"/>
        <pt x="384" y="947" on="0"/>
        <pt x="383" y="924" on="0"/>
        <pt x="381" y="877" on="0"/>
        <pt x="379" y="834" on="1"/>
        <pt x="448" y="939" on="0"/>
        <pt x="610" y="1042" on="0"/>
        <pt x="698" y="1042" on="1"/>
        <pt x="793" y="1042" on="0"/>
        <pt x="902" y="916" on="0"/>
        <pt x="911" y="797" on="1"/>
        <pt x="983" y="923" on="0"/>
        <pt x="1158" y="1042" on="0"/>
        <pt x="1261" y="1042" on="1"/>
        <pt x="1376" y="1042" on="0"/>
        <pt x="1501" y="887" on="0"/>
        <pt x="1501" y="741" on="1"/>
        <pt x="1501" y="721" on="0"/>
        <pt x="1499" y="676" on="0"/>
        <pt x="1496" y="653" on="1"/>
        <pt x="1419" y="0" on="1"/>
        <pt x="1175" y="0" on="1"/>
        <pt x="1195" y="170" on="0"/>
        <pt x="1223" y="407" on="0"/>
        <pt x="1241" y="566" on="0"/>
        <pt x="1251" y="656" on="0"/>
        <pt x="1256" y="705" on="0"/>
        <pt x="1257" y="722" on="0"/>
        <pt x="1257" y="727" on="1"/>
        <pt x="1257" y="787" on="0"/>
        <pt x="1217" y="840" on="0"/>
        <pt x="1172" y="840" on="1"/>
        <pt x="1134" y="840" on="0"/>
        <pt x="1062" y="800" on="0"/>
        <pt x="997" y="724" on="0"/>
        <pt x="942" y="614" on="0"/>
        <pt x="921" y="545" on="1"/>
        <pt x="857" y="0" on="1"/>
        <pt x="614" y="0" on="1"/>
        <pt x="691" y="653" on="1"/>
        <pt x="693" y="674" on="0"/>
        <pt x="696" y="711" on="0"/>
        <pt x="696" y="727" on="1"/>
        <pt x="696" y="787" on="0"/>
        <pt x="657" y="840" on="0"/>
        <pt x="612" y="840" on="1"/>
        <pt x="573" y="840" on="0"/>
        <pt x="499" y="798" on="0"/>
        <pt x="434" y="719" on="0"/>
        <pt x="379" y="606" on="0"/>
        <pt x="358" y="536" on="1"/>
        <pt x="294" y="0" on="1"/>
      </contour>
    </TTGlyph>
</ttFont>
